<svg fill="none" xmlns="http://www.w3.org/2000/svg" viewBox="0 0 2779 2299">
  <path d="m2527.62 1578.06-929.45 539.75a329.223 329.223 0 0 1-149.11 35.7c-51.82 0-102.91-12.23-149.12-35.7l-680.967-393.18a107.006 107.006 0 0 1-62.32-86.93v144.97a106.986 106.986 0 0 0 62.32 87.19l680.167 392.91a329.81 329.81 0 0 0 149.25 35.71c51.86 0 103-12.24 149.25-35.71l929.44-540.28a104.41 104.41 0 0 0 42.22-34.5 104.272 104.272 0 0 0 19.03-51.09v-144.97c-1.5 18.47-7.93 36.2-18.61 51.34a103.775 103.775 0 0 1-42.1 34.79Z" fill="#1D1D1B"/>
  <path d="M2526.55 1404.74c82.64 47.88 83.18 125.17 0 172.78l-928.38 540.29a329.233 329.233 0 0 1-149.12 35.7c-51.82 0-102.91-12.23-149.11-35.7l-680.97-393.18c-82.648-47.61-83.985-125.18-1.07-173.32l929.45-540.28a328.947 328.947 0 0 1 298.49 0l680.71 393.71Z" fill="#878787"/>
  <path d="M1428.87 1930.85 906.238 1627l-2.14-747.299 522.632 303.579 2.14 747.57Z" fill="#5F5F5F"/>
  <path d="M1426.73 1183.28 904.098 879.7 2198.1 132.664l522.64 303.576-1294.01 747.04Z" fill="#747474"/>
  <path d="M2720.74 436.239v249.012l-116.89 67.67c-237.24 136.675-427.94 468.599-427.94 741.419v4.81l-747.04 431.7-2.14-747.57 1294.01-747.041Z" fill="#1D1D1B"/>
  <path d="m2778.52 221.463-.53 172.516-378.74 381.409.54-172.517 378.73-381.408ZM2399.78 602.872l-.54 172.516-895.74 520.762.53-172.79 895.75-520.488Z" fill="#3C3C3B"/>
  <path d="m1504.03 1123.36-.53 172.79-661.985-382.215.267-172.784 662.248 382.209Z" fill="#5F5F5F"/>
  <path d="m2778.51 221.463-378.73 381.408-895.75 520.489-662.249-382.208L1737.8 220.66 2395.23 0l383.28 221.463ZM1140.28 944.961c-69.81-40.387-133.74-44.399-179.206-17.92L5.681 1478.56a14.427 14.427 0 0 0-4.47 5.69 14.467 14.467 0 0 0-1.147 7.15 43.354 43.354 0 0 0 5.878 18.87 43.335 43.335 0 0 0 13.647 14.29 14.076 14.076 0 0 0 5.292 2.06c1.884.32 3.814.26 5.674-.18l1208.145 36.91h18.46c80.24-2.14 136.41-67.94 136.41-180.81.27-160.22-113.14-356.8-253.29-437.579Z" fill="#878787"/>
  <path d="M.07 1497.82a44.663 44.663 0 0 0 19.525 26.74 14.076 14.076 0 0 0 5.292 2.06c1.884.32 3.814.26 5.674-.18l1208.149 36.91h18.46c80.24-2.14 136.4-67.94 136.4-180.81-.37-36.16-5.41-72.12-14.97-106.99L.07 1497.82ZM1509.92 2021.25a35.61 35.61 0 0 1 17.25 12.99 35.63 35.63 0 0 1 6.55 20.58c0 7.37-2.29 14.56-6.55 20.57a35.61 35.61 0 0 1-17.25 12.99 129.145 129.145 0 0 1-58.17 13.84c-20.21 0-40.13-4.74-58.17-13.84a35.565 35.565 0 0 1-17.25-12.99 35.577 35.577 0 0 1-6.55-20.57c0-7.37 2.29-14.56 6.55-20.58a35.565 35.565 0 0 1 17.25-12.99c18-9.22 37.94-14.04 58.17-14.04 20.23 0 40.17 4.82 58.17 14.04ZM755.658 1601.06a35.584 35.584 0 0 1 17.243 12.99 35.611 35.611 0 0 1 6.553 20.58c0 7.37-2.29 14.56-6.553 20.57a35.584 35.584 0 0 1-17.243 12.99 129.18 129.18 0 0 1-116.349 0 35.584 35.584 0 0 1-17.243-12.99 35.558 35.558 0 0 1-6.553-20.57c0-7.37 2.29-14.56 6.553-20.58a35.584 35.584 0 0 1 17.243-12.99 127.52 127.52 0 0 1 58.175-14.04c20.229 0 40.169 4.81 58.174 14.04ZM2493.93 1458.23a35.57 35.57 0 0 1 23.8 33.57 35.577 35.577 0 0 1-23.8 33.57 129.145 129.145 0 0 1-58.17 13.84c-20.21 0-40.13-4.74-58.18-13.84a35.544 35.544 0 0 1-17.24-13 35.577 35.577 0 0 1 17.24-54.14c18.05-9.1 37.97-13.84 58.18-13.84s40.13 4.74 58.17 13.84Z" fill="#1D1D1B"/>
</svg>
