<?xml version="1.0" encoding="utf-8"?>
<svg fill="none" xmlns="http://www.w3.org/2000/svg" viewBox="0 0 2780 2299">
  <path d="m2528.06 1578.33-929.61 539.84a329.227 329.227 0 0 1-149.14 35.71c-51.83 0-102.92-12.23-149.13-35.71l-681.094-393.24a106.962 106.962 0 0 1-42.809-35.13 106.989 106.989 0 0 1-19.521-51.81v144.99a107.012 107.012 0 0 0 62.33 87.21l680.284 392.97a329.804 329.804 0 0 0 149.28 35.71c51.87 0 103.01-12.23 149.27-35.71l929.61-540.37a104.433 104.433 0 0 0 42.22-34.51 104.418 104.418 0 0 0 19.04-51.1v-144.99a103.803 103.803 0 0 1-60.73 86.14Z" fill="#fff"/>
  <path d="M2526.98 1404.98c82.66 47.89 83.2 125.2 0 172.81l-928.54 540.38a329.315 329.315 0 0 1-149.13 35.71c-51.84 0-102.93-12.24-149.14-35.71l-681.093-393.24c-82.661-47.62-83.999-125.2-1.07-173.35l929.613-540.38a329 329 0 0 1 149.27-35.807c51.88 0 103.03 12.27 149.27 35.807l680.82 393.78Z" fill="#E8E8E8"/>
  <path d="m1429.12 1931.18-522.725-303.9-2.14-747.428 522.725 303.628 2.14 747.7Z" fill="#C7C7C7"/>
  <path d="M1426.98 1183.48 904.255 879.851 2198.48 132.687l522.73 303.627-1294.23 747.166Z" fill="#747474"/>
  <path d="M2721.21 436.315V685.37l-116.91 67.681c-237.28 136.699-428.02 468.679-428.02 741.549v4.81l-747.16 431.77-2.14-747.7 1294.23-747.165Z" fill="#fff"/>
  <path d="m2779 221.5-.53 172.547-378.8 381.474.53-172.546L2779 221.5Z" fill="#EEE"/>
  <path d="m2400.21 602.976-.54 172.546-895.9 520.848.53-172.81 895.91-520.584ZM1504.3 1123.56l-.54 172.81-662.094-382.278.268-172.813L1504.3 1123.56Z" fill="silver"/>
  <path d="m2779 221.501-378.8 381.474-895.9 520.585-662.367-382.28L1738.1 220.699 2395.65 0 2779 221.501ZM1140.47 945.124c-69.82-40.394-133.75-44.407-179.23-17.923L5.682 1478.81a14.458 14.458 0 0 0-5.618 12.84 43.39 43.39 0 0 0 5.88 18.88 43.466 43.466 0 0 0 13.648 14.3 14.23 14.23 0 0 0 10.968 1.87l1208.36 36.92h18.46c80.25-2.14 136.43-67.95 136.43-180.84.27-160.24-113.16-356.87-253.34-437.656Z" fill="#E1E1E1"/>
  <path d="M.07 1498.07a44.705 44.705 0 0 0 19.528 26.76 14.23 14.23 0 0 0 5.293 2.05c1.885.33 3.815.26 5.675-.18l1208.354 36.92h18.46c80.26-2.14 136.43-67.95 136.43-180.84a420.67 420.67 0 0 0-14.98-107.01L.07 1498.07ZM1510.18 2021.6a35.565 35.565 0 0 1 17.25 12.99 35.63 35.63 0 0 1 6.55 20.58c0 7.37-2.29 14.56-6.55 20.58a35.565 35.565 0 0 1-17.25 12.99 129.066 129.066 0 0 1-58.18 13.85c-20.21 0-40.14-4.74-58.18-13.85a35.565 35.565 0 0 1-17.25-12.99 35.63 35.63 0 0 1-6.55-20.58c0-7.37 2.29-14.56 6.55-20.58a35.565 35.565 0 0 1 17.25-12.99c18-9.23 37.95-14.04 58.18-14.04 20.23 0 40.18 4.81 58.18 14.04ZM755.788 1601.34a35.587 35.587 0 0 1 17.246 12.99 35.605 35.605 0 0 1 6.554 20.58c0 7.37-2.29 14.56-6.554 20.58a35.587 35.587 0 0 1-17.246 12.99 129.219 129.219 0 0 1-116.369 0 35.587 35.587 0 0 1-17.246-12.99 35.605 35.605 0 0 1-6.554-20.58c0-7.37 2.29-14.56 6.554-20.58a35.587 35.587 0 0 1 17.246-12.99 127.557 127.557 0 0 1 58.185-14.04c20.233 0 40.176 4.81 58.184 14.04ZM2494.36 1458.48a35.585 35.585 0 0 1 17.25 13 35.584 35.584 0 0 1 0 41.15 35.524 35.524 0 0 1-17.25 13 129.187 129.187 0 0 1-58.18 13.84c-20.21 0-40.14-4.74-58.19-13.84a35.544 35.544 0 0 1-17.24-13 35.514 35.514 0 0 1-6.56-20.57c0-7.38 2.29-14.57 6.56-20.58a35.604 35.604 0 0 1 17.24-13 129.26 129.26 0 0 1 58.19-13.84c20.21 0 40.14 4.74 58.18 13.84Z" fill="#fff"/>
  <path d="M 1367.77 936.875 L 1175.56 830.665 L 1231.65 831.905 L 1174.26 865.295 L 1118.9 834.705 L 1211.35 780.905 L 1429.06 901.205 L 1367.77 936.875 Z M 1538.68 843.065 C 1522.58 852.435 1503.88 858.255 1482.58 860.535 C 1461.29 862.815 1438.63 861.295 1414.62 855.975 C 1390.61 850.665 1366.57 841.365 1342.52 828.075 C 1318.47 814.785 1301.45 801.395 1291.46 787.925 C 1281.47 774.445 1278.21 761.645 1281.67 749.515 C 1285.14 737.385 1294.92 726.635 1311.02 717.265 C 1327.12 707.895 1345.82 702.075 1367.11 699.795 C 1388.41 697.525 1411.06 699.045 1435.07 704.355 C 1459.09 709.675 1483.12 718.975 1507.17 732.265 C 1531.22 745.555 1548.24 758.935 1558.23 772.415 C 1568.22 785.885 1571.49 798.685 1568.02 810.815 C 1564.56 822.945 1554.78 833.695 1538.68 843.065 Z M 1479.9 810.585 C 1483.88 808.265 1485.77 805.285 1485.57 801.635 C 1485.37 797.995 1482.13 793.405 1475.86 787.885 C 1469.59 782.355 1459.52 775.755 1445.62 768.075 C 1431.52 760.285 1419.57 754.715 1409.78 751.365 C 1399.98 748.005 1391.86 746.325 1385.42 746.305 C 1378.99 746.285 1373.78 747.435 1369.8 749.745 C 1365.82 752.065 1363.93 755.045 1364.13 758.695 C 1364.33 762.345 1367.51 766.895 1373.68 772.365 C 1379.84 777.835 1389.97 784.465 1404.07 792.255 C 1417.96 799.935 1429.86 805.475 1439.77 808.885 C 1449.67 812.295 1457.84 814.015 1464.27 814.035 C 1470.71 814.055 1475.91 812.905 1479.9 810.585 Z M 1762.99 706.895 L 1667.51 654.135 L 1725.39 670.205 L 1476.73 626.485 L 1541.39 588.865 L 1710.74 619.095 L 1673.09 641.005 L 1615.93 545.495 L 1675.14 511.035 L 1759.15 650.555 L 1728.8 618.465 L 1824.28 671.225 L 1762.99 706.895 Z M 1819.87 518.545 L 1900.9 471.395 L 1953.77 500.615 L 1872.74 547.765 L 1819.87 518.545 Z M 1905.51 561.155 L 1996.41 508.265 L 2051.76 538.855 L 1900.62 626.805 L 1682.92 506.505 L 1830.68 420.525 L 1886.04 451.115 L 1798.53 502.035 L 1905.51 561.155 Z M 2055.64 536.595 L 1917.41 370.058 L 1977.66 334.999 L 2274.83 409.055 L 2211.46 445.925 L 1969.9 379.03 L 1993.79 365.127 L 2117.97 500.335 L 2055.64 536.595 Z M 2064.97 488.125 L 2027.68 449.845 L 2111.3 401.185 L 2179.75 421.335 L 2064.97 488.125 Z M 2284.7 403.315 L 2066.99 283.015 L 2154.51 232.089 C 2171.48 222.216 2189.47 215.511 2208.48 211.974 C 2227.49 208.437 2246.55 208.113 2265.64 211.001 C 2284.72 213.889 2302.66 219.973 2319.46 229.253 C 2336.25 238.533 2347.34 248.489 2352.72 259.12 C 2358.09 269.751 2357.81 280.444 2351.85 291.199 C 2345.9 301.954 2334.44 312.268 2317.48 322.141 L 2263.98 353.271 L 2261.08 320.734 L 2345.98 367.65 L 2284.7 403.315 Z M 2393.51 339.995 L 2269.54 322.165 L 2334.46 284.386 L 2458.95 301.914 L 2393.51 339.995 Z M 2269.17 325.202 L 2208.62 322.68 L 2258.22 293.817 C 2266.71 288.881 2270.7 283.969 2270.21 279.081 C 2269.72 274.193 2265.53 269.572 2257.65 265.218 C 2249.77 260.865 2241.52 258.611 2232.89 258.459 C 2224.26 258.305 2215.7 260.697 2207.22 265.633 L 2157.62 294.496 L 2151.61 260.241 L 2269.17 325.202 Z M 2550.91 254.048 C 2535.68 262.914 2518.89 270.331 2500.54 276.301 C 2482.2 282.27 2465.12 286.092 2449.31 287.765 L 2415.56 246.721 C 2430.23 245.007 2444.7 242.054 2458.97 237.863 C 2473.25 233.672 2485.41 228.655 2495.45 222.812 C 2501.34 219.387 2505.5 216.434 2507.95 213.954 C 2510.39 211.474 2511.51 209.294 2511.3 207.413 C 2511.1 205.533 2509.75 203.905 2507.26 202.531 C 2503.33 200.354 2498.4 199.693 2492.48 200.549 C 2486.57 201.404 2479.84 203.139 2472.32 205.756 C 2464.79 208.372 2456.59 211.259 2447.73 214.416 C 2438.87 217.572 2429.4 220.439 2419.31 223.016 C 2409.22 225.593 2398.81 227.301 2388.07 228.142 C 2377.32 228.983 2366.25 228.313 2354.84 226.132 C 2343.43 223.951 2331.91 219.653 2320.3 213.237 C 2306.83 205.79 2297.7 197.163 2292.93 187.356 C 2288.16 177.55 2288.73 167.162 2294.64 156.191 C 2300.56 145.221 2312.87 134.296 2331.57 123.416 C 2343.86 116.263 2357.53 110.07 2372.59 104.837 C 2387.64 99.604 2403.15 95.994 2419.1 94.005 L 2453.84 134.12 C 2439.45 136.38 2426.7 139.209 2415.61 142.605 C 2404.52 146.002 2394.99 150.018 2387.03 154.652 C 2381.14 158.077 2377.09 161.141 2374.87 163.843 C 2372.65 166.545 2371.84 168.897 2372.45 170.899 C 2373.05 172.901 2374.59 174.59 2377.08 175.965 C 2380.81 178.027 2385.58 178.602 2391.4 177.689 C 2397.21 176.776 2403.83 174.983 2411.25 172.31 C 2418.68 169.636 2426.81 166.667 2435.66 163.402 C 2444.5 160.138 2453.92 157.243 2463.92 154.716 C 2473.92 152.19 2484.3 150.506 2495.04 149.666 C 2505.78 148.825 2516.8 149.467 2528.11 151.59 C 2539.42 153.714 2550.77 157.926 2562.18 164.227 C 2575.45 171.56 2584.47 180.129 2589.24 189.935 C 2594.01 199.742 2593.54 210.134 2587.81 221.111 C 2582.08 232.088 2569.78 243.067 2550.91 254.048 Z" style="text-wrap-mode: nowrap; fill: rgb(171, 171, 171);"/>
</svg>