
<?xml version="1.0" encoding="UTF-8" standalone="no"?>
<!-- Created with Inkscape (http://www.inkscape.org/) -->

<svg
   xmlns:dc="http://purl.org/dc/elements/1.1/"
   xmlns:cc="http://creativecommons.org/ns#"
   xmlns:rdf="http://www.w3.org/1999/02/22-rdf-syntax-ns#"
   xmlns:svg="http://www.w3.org/2000/svg"
   xmlns="http://www.w3.org/2000/svg"
   xmlns:sodipodi="http://sodipodi.sourceforge.net/DTD/sodipodi-0.dtd"
   xmlns:inkscape="http://www.inkscape.org/namespaces/inkscape"
   width="2.75in"
   height="1.5in"
   viewBox="0 0 247.5 135"
   id="svg2"
   version="1.1"
   inkscape:version="0.91 r13725"
   sodipodi:docname="logo.svg"
   inkscape:export-filename="/Users/chris.barker/HAZMAT/CondaForge/marketing/logo/logo_white_on_trans.png"
   inkscape:export-xdpi="300"
   inkscape:export-ydpi="300">
  <defs
     id="defs4" />
  <sodipodi:namedview
     id="base"
     pagecolor="#ffffff"
     bordercolor="#666666"
     borderopacity="1.0"
     inkscape:pageopacity="0.0"
     inkscape:pageshadow="2"
     inkscape:zoom="2.1476098"
     inkscape:cx="46.952107"
     inkscape:cy="114.1702"
     inkscape:document-units="in"
     inkscape:current-layer="layer1"
     showgrid="true"
     gridtolerance="10000"
     inkscape:window-width="1440"
     inkscape:window-height="810"
     inkscape:window-x="45"
     inkscape:window-y="50"
     inkscape:window-maximized="0"
     showguides="false"
     units="in">
    <inkscape:grid
       type="xygrid"
       id="grid4205" />
  </sodipodi:namedview>
  <metadata
     id="metadata7">
    <rdf:RDF>
      <cc:Work
         rdf:about="">
        <dc:format>image/svg+xml</dc:format>
        <dc:type
           rdf:resource="http://purl.org/dc/dcmitype/StillImage" />
        <dc:title />
      </cc:Work>
    </rdf:RDF>
  </metadata>
  <g
     inkscape:label="Layer 1"
     inkscape:groupmode="layer"
     id="layer1"
     transform="translate(0,-917.3622)">
    <rect
       style="fill:none;fill-opacity:1;stroke:none;stroke-width:6.00112152;stroke-miterlimit:4;stroke-dasharray:none;stroke-opacity:1"
       id="rect4783"
       width="247.5"
       height="135"
       x="0"
       y="917.36218"
       inkscape:export-xdpi="300"
       inkscape:export-ydpi="300" />
    <g
       id="g4239"
       style="fill:#000000;fill-opacity:1;stroke:#ffffff;stroke-width:16;stroke-miterlimit:4;stroke-dasharray:none;stroke-opacity:1"
       transform="matrix(0.19867978,0,0,0.19300214,49.360818,893.36418)"
       inkscape:export-xdpi="300"
       inkscape:export-ydpi="300">
      <path
         sodipodi:nodetypes="ccccccccccccccc"
         inkscape:connector-curvature="0"
         id="path4203"
         d="m -143.01319,222.52531 c 9.56597,30.92509 222.157599,161.1087 332.25697,159.68705 59.98591,-0.77457 90.02036,40.33836 89.82132,109.69241 l -100.22721,79.92836 0.27369,60.2458 449.97841,-0.0565 -0.11963,-55.17393 -99.88462,-84.85856 c 2.76308,-160.39808 104.76019,-230.24401 240.0367,-239.97362 l 0.1187,-69.96251 -580.27108,-0.10735 0.15406,15.09496 -54.97201,0 -0.19427,25.467 z"
         style="fill:#000000;fill-opacity:1;fill-rule:evenodd;stroke:#ffffff;stroke-width:16;stroke-linecap:butt;stroke-linejoin:miter;stroke-miterlimit:4;stroke-dasharray:none;stroke-opacity:1" />
      <path
         sodipodi:nodetypes="ccc"
         inkscape:connector-curvature="0"
         id="path4207"
         d="m 180.30814,571.28372 133.7358,1.04403 0.23925,59.72631"
         style="fill:#000000;fill-opacity:1;fill-rule:evenodd;stroke:#ffffff;stroke-width:16;stroke-linecap:butt;stroke-linejoin:miter;stroke-miterlimit:4;stroke-dasharray:none;stroke-opacity:1" />
      <path
         style="fill:#000000;fill-opacity:1;fill-rule:evenodd;stroke:#ffffff;stroke-width:16;stroke-linecap:butt;stroke-linejoin:miter;stroke-miterlimit:4;stroke-dasharray:none;stroke-opacity:1"
         d="m 628.92549,576.79573 -134.6602,0.11962 -0.0852,55.10427"
         id="path4211"
         inkscape:connector-curvature="0"
         sodipodi:nodetypes="ccc" />
      <path
         sodipodi:nodetypes="cc"
         inkscape:connector-curvature="0"
         id="path4213"
         d="M 311.64773,576.53833 C 370,512.3622 439.84593,524.05695 494.02206,577.18905"
         style="fill:#000000;fill-opacity:1;fill-rule:evenodd;stroke:#ffffff;stroke-width:16;stroke-linecap:butt;stroke-linejoin:miter;stroke-miterlimit:4;stroke-dasharray:none;stroke-opacity:1" />
      <path
         inkscape:connector-curvature="0"
         id="path4215"
         d="m 134.29948,202.3622 0,109.84593"
         style="fill:#000000;fill-opacity:1;fill-rule:evenodd;stroke:#ffffff;stroke-width:16;stroke-linecap:butt;stroke-linejoin:miter;stroke-miterlimit:4;stroke-dasharray:none;stroke-opacity:1"
         sodipodi:nodetypes="cc" />
      <path
         sodipodi:nodetypes="cc"
         style="fill:#000000;fill-opacity:1;fill-rule:evenodd;stroke:#ffffff;stroke-width:16;stroke-linecap:butt;stroke-linejoin:miter;stroke-miterlimit:4;stroke-dasharray:none;stroke-opacity:1"
         d="m 188.92441,202.3622 0.30814,179.52248"
         id="path4217"
         inkscape:connector-curvature="0" />
      <path
         sodipodi:nodetypes="cc"
         inkscape:connector-curvature="0"
         id="path4219"
         d="m 534.22823,451.89212 -65.02139,0.12251"
         style="fill:#000000;fill-opacity:1;fill-rule:evenodd;stroke:#ffffff;stroke-width:16;stroke-linecap:butt;stroke-linejoin:miter;stroke-miterlimit:4;stroke-dasharray:none;stroke-opacity:1" />
      <path
         sodipodi:nodetypes="cc"
         style="fill:#000000;fill-opacity:1;fill-rule:evenodd;stroke:#ffffff;stroke-width:16;stroke-linecap:butt;stroke-linejoin:miter;stroke-miterlimit:4;stroke-dasharray:none;stroke-opacity:1"
         d="M 529.12769,492.26973 488.80424,492.1501"
         id="path4221"
         inkscape:connector-curvature="0" />
    </g>
    <g
       transform="matrix(0.1670625,0,0,0.1670625,19.700701,843.92701)"
       style="font-style:normal;font-variant:normal;font-weight:600;font-stretch:normal;font-size:162.5px;line-height:129.99999523%;font-family:Montserrat;-inkscape-font-specification:'Montserrat, Semi-Bold';text-align:start;letter-spacing:7.48000002px;word-spacing:0px;writing-mode:lr-tb;text-anchor:start;fill:#ffffff;fill-opacity:1;stroke:#ffffff;stroke-width:6;stroke-linecap:butt;stroke-linejoin:miter;stroke-miterlimit:4;stroke-dasharray:none;stroke-opacity:0.984375"
       id="flowRoot4270">
      <path
         d="m 54.9,1122.6011 14.95,-18.2 c -11.2125,-11.5375 -28.4375,-18.85 -44.85,-18.85 -34.45,0 -60.6125,24.7 -60.6125,57.525 0,32.9875 25.675,58.175 59.6375,58.175 16.575,0 33.9625,-7.9625 45.9875,-20.3125 L 54.9,1164.5261 c -8.125,8.125 -19.3375,13.325 -29.575,13.325 -19.5,0 -34.6125,-15.275 -34.6125,-35.1 0,-19.825 15.1125,-34.9375 34.6125,-34.9375 10.5625,0 21.775,5.85 29.575,14.7875 z"
         style="font-style:normal;font-variant:normal;font-weight:600;font-stretch:normal;font-size:162.5px;line-height:129.99999523%;font-family:Montserrat;-inkscape-font-specification:'Montserrat, Semi-Bold';text-align:start;letter-spacing:7.48000002px;writing-mode:lr-tb;text-anchor:start;fill:#ffffff;fill-opacity:1;stroke:#ffffff;stroke-width:6;stroke-miterlimit:4;stroke-dasharray:none;stroke-opacity:0.984375"
         id="path4157" />
      <path
         d="m 143.7341,1085.5511 c -34.775,0 -61.099995,24.5375 -61.099995,57.6875 0,32.9875 26.324995,58.0125 61.099995,58.0125 34.775,0 61.1,-25.1875 61.1,-58.0125 0,-32.9875 -26.325,-57.6875 -61.1,-57.6875 z m 0.325,22.425 c 19.0125,0 34.45,15.275 34.45,35.2625 0,19.9875 -15.4375,35.5875 -34.45,35.5875 -19.0125,0 -35.1,-15.6 -35.1,-35.5875 0,-19.9875 15.925,-35.2625 35.1,-35.2625 z"
         style="font-style:normal;font-variant:normal;font-weight:600;font-stretch:normal;font-size:162.5px;line-height:129.99999523%;font-family:Montserrat;-inkscape-font-specification:'Montserrat, Semi-Bold';text-align:start;letter-spacing:7.48000002px;writing-mode:lr-tb;text-anchor:start;fill:#ffffff;fill-opacity:1;stroke:#ffffff;stroke-width:6;stroke-miterlimit:4;stroke-dasharray:none;stroke-opacity:0.984375"
         id="path4159" />
      <path
         d="m 229.31819,1086.3636 0,113.75 24.5375,0 0,-72.9625 55.0875,72.9625 23.4,0 0,-113.75 -24.375,0 0,73.125 -55.25,-73.125 -23.4,0 z"
         style="font-style:normal;font-variant:normal;font-weight:600;font-stretch:normal;font-size:162.5px;line-height:129.99999523%;font-family:Montserrat;-inkscape-font-specification:'Montserrat, Semi-Bold';text-align:start;letter-spacing:7.48000002px;writing-mode:lr-tb;text-anchor:start;fill:#ffffff;fill-opacity:1;stroke:#ffffff;stroke-width:6;stroke-miterlimit:4;stroke-dasharray:none;stroke-opacity:0.984375"
         id="path4161" />
      <path
         d="m 412.96598,1086.3636 -48.2625,0 0,113.75 47.2875,0 c 35.9125,0 60.775,-23.4 60.775,-56.875 0,-33.6375 -24.5375,-56.875 -59.8,-56.875 z m 0.65,92.1375 -23.2375,0 0,-70.525 22.1,0 c 19.5,0 34.125,14.4625 34.125,35.425 0,20.8 -13.975,35.1 -32.9875,35.1 z"
         style="font-style:normal;font-variant:normal;font-weight:600;font-stretch:normal;font-size:162.5px;line-height:129.99999523%;font-family:Montserrat;-inkscape-font-specification:'Montserrat, Semi-Bold';text-align:start;letter-spacing:7.48000002px;writing-mode:lr-tb;text-anchor:start;fill:#ffffff;fill-opacity:1;stroke:#ffffff;stroke-width:6;stroke-miterlimit:4;stroke-dasharray:none;stroke-opacity:0.984375"
         id="path4163" />
      <path
         d="m 577.75358,1200.1136 27.4625,0 -48.5875,-113.75 -26.4875,0 -49.4,113.75 26.4875,0 8.9375,-22.1 52.65,0 8.9375,22.1 z m -53.1375,-42.7375 18.0375,-44.2 17.875,44.2 -35.9125,0 z"
         style="font-style:normal;font-variant:normal;font-weight:600;font-stretch:normal;font-size:162.5px;line-height:129.99999523%;font-family:Montserrat;-inkscape-font-specification:'Montserrat, Semi-Bold';text-align:start;letter-spacing:7.48000002px;writing-mode:lr-tb;text-anchor:start;fill:#ffffff;fill-opacity:1;stroke:#ffffff;stroke-width:6;stroke-miterlimit:4;stroke-dasharray:none;stroke-opacity:0.984375"
         id="path4165" />
      <path
         d="m 621.43303,1142.1011 0,16.575 41.925,0 0,-16.575 -41.925,0 z"
         style="font-style:normal;font-variant:normal;font-weight:600;font-stretch:normal;font-size:162.5px;line-height:129.99999523%;font-family:Montserrat;-inkscape-font-specification:'Montserrat, Semi-Bold';text-align:start;letter-spacing:7.48000002px;writing-mode:lr-tb;text-anchor:start;fill:#ffffff;fill-opacity:1;stroke:#ffffff;stroke-width:6;stroke-miterlimit:4;stroke-dasharray:none;stroke-opacity:0.984375"
         id="path4167" />
      <path
         d="m 692.46575,1086.3636 0,113.75 25.675,0 0,-43.0625 51.35,0 0,-21.45 -51.35,0 0,-27.95 55.9,0 0.1625,-21.2875 -81.7375,0 z"
         style="font-style:normal;font-variant:normal;font-weight:600;font-stretch:normal;font-size:162.5px;line-height:129.99999523%;font-family:Montserrat;-inkscape-font-specification:'Montserrat, Semi-Bold';text-align:start;letter-spacing:7.48000002px;writing-mode:lr-tb;text-anchor:start;fill:#ffffff;fill-opacity:1;stroke:#ffffff;stroke-width:6;stroke-miterlimit:4;stroke-dasharray:none;stroke-opacity:0.984375"
         id="path4169" />
      <path
         d="m 849.4051,1085.5511 c -34.775,0 -61.1,24.5375 -61.1,57.6875 0,32.9875 26.325,58.0125 61.1,58.0125 34.775,0 61.1,-25.1875 61.1,-58.0125 0,-32.9875 -26.325,-57.6875 -61.1,-57.6875 z m 0.325,22.425 c 19.0125,0 34.45,15.275 34.45,35.2625 0,19.9875 -15.4375,35.5875 -34.45,35.5875 -19.0125,0 -35.1,-15.6 -35.1,-35.5875 0,-19.9875 15.925,-35.2625 35.1,-35.2625 z"
         style="font-style:normal;font-variant:normal;font-weight:600;font-stretch:normal;font-size:162.5px;line-height:129.99999523%;font-family:Montserrat;-inkscape-font-specification:'Montserrat, Semi-Bold';text-align:start;letter-spacing:7.48000002px;writing-mode:lr-tb;text-anchor:start;fill:#ffffff;fill-opacity:1;stroke:#ffffff;stroke-width:6;stroke-miterlimit:4;stroke-dasharray:none;stroke-opacity:0.984375"
         id="path4171" />
      <path
         d="m 1033.9517,1200.1136 -24.2125,-37.5375 c 13.8125,-6.5 21.2875,-19.175 21.2875,-36.725 0,-25.1875 -16.9,-39.4875 -46.63745,-39.4875 l -49.4,0 0,113.75 25.675,0 0,-32.5 23.725,0 2.4375,0 18.03745,32.5 29.0875,0 z m -73.28745,-92.4625 23.725,0 c 14.1375,0 22.26245,6.3375 22.26245,19.0125 0,13 -8.12495,19.5 -22.26245,19.5 l -23.725,0 0,-38.5125 z"
         style="font-style:normal;font-variant:normal;font-weight:600;font-stretch:normal;font-size:162.5px;line-height:129.99999523%;font-family:Montserrat;-inkscape-font-specification:'Montserrat, Semi-Bold';text-align:start;letter-spacing:7.48000002px;writing-mode:lr-tb;text-anchor:start;fill:#ffffff;fill-opacity:1;stroke:#ffffff;stroke-width:6;stroke-miterlimit:4;stroke-dasharray:none;stroke-opacity:0.984375"
         id="path4173" />
      <path
         d="m 1136.5932,1172.6511 c -7.3125,3.7375 -15.4375,6.175 -22.2625,6.175 -20.15,0 -35.9125,-15.4375 -35.9125,-35.5875 0,-19.9875 15.6,-35.425 35.75,-35.425 11.05,0 22.75,4.875 31.2,12.675 l 14.4625,-18.3625 c -11.5375,-10.075 -28.7625,-16.575 -45.6625,-16.575 -35.425,0 -62.075,24.8625 -62.075,57.6875 0,32.9875 26.1625,58.0125 60.6125,58.0125 15.7625,0 34.125,-6.0125 46.15,-14.7875 l 0,-43.7125 -22.2625,0 0,29.9 z"
         style="font-style:normal;font-variant:normal;font-weight:600;font-stretch:normal;font-size:162.5px;line-height:129.99999523%;font-family:Montserrat;-inkscape-font-specification:'Montserrat, Semi-Bold';text-align:start;letter-spacing:7.48000002px;writing-mode:lr-tb;text-anchor:start;fill:#ffffff;fill-opacity:1;stroke:#ffffff;stroke-width:6;stroke-miterlimit:4;stroke-dasharray:none;stroke-opacity:0.984375"
         id="path4175" />
      <path
         d="m 1188.6211,1086.3636 0,113.75 88.4,0 0,-21.2875 -62.725,0 0,-25.1875 54.7625,0 0,-21.2875 -54.7625,0 0,-24.7 60.9375,0 0,-21.2875 -86.6125,0 z"
         style="font-style:normal;font-variant:normal;font-weight:600;font-stretch:normal;font-size:162.5px;line-height:129.99999523%;font-family:Montserrat;-inkscape-font-specification:'Montserrat, Semi-Bold';text-align:start;letter-spacing:7.48000002px;writing-mode:lr-tb;text-anchor:start;fill:#ffffff;fill-opacity:1;stroke:#ffffff;stroke-width:6;stroke-miterlimit:4;stroke-dasharray:none;stroke-opacity:0.984375"
         id="path4177" />
    </g>
  </g>
</svg>
