<svg width="756" height="406" viewBox="0 0 756 406" fill="none" xmlns="http://www.w3.org/2000/svg">
<path fill-rule="evenodd" clip-rule="evenodd" d="M26.6613 32.841C33.1748 53.2965 177.931 139.407 252.899 138.466C293.744 137.954 314.194 165.148 314.059 211.023L245.813 263.892L245.999 303.741L552.395 303.704L552.313 267.209L484.301 211.079C486.182 104.983 555.633 58.7836 647.744 52.3479L647.825 6.071L252.712 6L252.817 15.9846H215.386L215.254 32.8298L26.6613 32.841Z" fill="black" stroke="white" stroke-width="10.7378"/>
<path fill-rule="evenodd" clip-rule="evenodd" d="M246.814 263.528L337.876 264.218L338.039 303.724" fill="black"/>
<path d="M246.814 263.528L337.876 264.218L338.039 303.724" stroke="white" stroke-width="10.7378"/>
<path fill-rule="evenodd" clip-rule="evenodd" d="M552.283 267.174L460.591 267.253L460.533 303.702" fill="black"/>
<path d="M552.283 267.174L460.591 267.253L460.533 303.702" stroke="white" stroke-width="10.7378"/>
<path fill-rule="evenodd" clip-rule="evenodd" d="M336.245 267.004C375.977 224.554 423.536 232.29 460.425 267.434Z" fill="black"/>
<path d="M336.245 267.004C375.977 224.554 423.536 232.29 460.425 267.434" stroke="white" stroke-width="10.7378"/>
<path fill-rule="evenodd" clip-rule="evenodd" d="M215.486 19.5037V92.1615Z" fill="black"/>
<path d="M215.486 19.5037V92.1615" stroke="white" stroke-width="10.7378"/>
<path fill-rule="evenodd" clip-rule="evenodd" d="M252.681 19.5037L252.891 138.249Z" fill="black"/>
<path d="M252.681 19.5037L252.891 138.249" stroke="white" stroke-width="10.7378"/>
<path fill-rule="evenodd" clip-rule="evenodd" d="M487.802 184.556L443.528 184.637Z" fill="black"/>
<path d="M487.802 184.556L443.528 184.637" stroke="white" stroke-width="10.7378"/>
<path fill-rule="evenodd" clip-rule="evenodd" d="M484.329 211.264L456.873 211.185Z" fill="black"/>
<path d="M484.329 211.264L456.873 211.185" stroke="white" stroke-width="10.7378"/>
<path d="M53.8232 358.969L62.3828 348.548C55.9631 341.942 46.1009 337.756 36.7039 337.756C16.9794 337.756 2 351.898 2 370.692C2 389.579 16.7003 404 36.1456 404C45.6357 404 55.5909 399.441 62.4759 392.37L53.8232 382.973C49.1712 387.625 42.7514 390.602 36.8899 390.602C25.7252 390.602 17.0725 381.856 17.0725 370.506C17.0725 359.155 25.7252 350.502 36.8899 350.502C42.9375 350.502 49.3573 353.851 53.8232 358.969Z" fill="black" stroke="black" stroke-width="3.43532"/>
<path d="M104.685 337.756C84.7748 337.756 69.7024 351.805 69.7024 370.785C69.7024 389.672 84.7748 404 104.685 404C124.596 404 139.668 389.579 139.668 370.785C139.668 351.898 124.596 337.756 104.685 337.756ZM104.871 350.595C115.757 350.595 124.596 359.341 124.596 370.785C124.596 382.229 115.757 391.16 104.871 391.16C93.9858 391.16 84.7748 382.229 84.7748 370.785C84.7748 359.341 93.8927 350.595 104.871 350.595Z" fill="black" stroke="black" stroke-width="3.43532"/>
<path d="M153.687 338.221V403.349H167.736V361.574L199.276 403.349H212.674V338.221H198.718V380.089L167.084 338.221H153.687Z" fill="black" stroke="black" stroke-width="3.43532"/>
<path d="M258.835 338.221H231.202V403.349H258.277C278.838 403.349 293.074 389.951 293.074 370.785C293.074 351.526 279.024 338.221 258.835 338.221ZM259.207 390.974H245.902V350.595H258.556C269.721 350.595 278.094 358.876 278.094 370.878C278.094 382.787 270.093 390.974 259.207 390.974Z" fill="black" stroke="black" stroke-width="3.43532"/>
<path d="M353.184 403.349H368.908L341.089 338.221H325.924L297.64 403.349H312.805L317.922 390.695H348.067L353.184 403.349ZM322.76 378.879L333.088 353.573L343.322 378.879H322.76Z" fill="black" stroke="black" stroke-width="3.43532"/>
<path d="M378.193 370.133V379.623H402.198V370.133H378.193Z" fill="black" stroke="black" stroke-width="3.43532"/>
<path d="M418.863 338.221V403.349H433.563V378.693H462.964V366.412H433.563V350.409H465.569L465.662 338.221H418.863Z" fill="black" stroke="black" stroke-width="3.43532"/>
<path d="M508.719 337.756C488.809 337.756 473.736 351.805 473.736 370.785C473.736 389.672 488.809 404 508.719 404C528.63 404 543.702 389.579 543.702 370.785C543.702 351.898 528.63 337.756 508.719 337.756ZM508.905 350.595C519.791 350.595 528.63 359.341 528.63 370.785C528.63 382.229 519.791 391.16 508.905 391.16C498.02 391.16 488.809 382.229 488.809 370.785C488.809 359.341 497.927 350.595 508.905 350.595Z" fill="black" stroke="black" stroke-width="3.43532"/>
<path d="M614.382 403.349L600.519 381.857C608.427 378.135 612.707 370.878 612.707 360.83C612.707 346.408 603.031 338.221 586.005 338.221H557.721V403.349H572.421V384.741H586.005H587.4L597.728 403.349H614.382ZM572.421 350.409H586.005C594.099 350.409 598.751 354.038 598.751 361.295C598.751 368.738 594.099 372.46 586.005 372.46H572.421V350.409Z" fill="black" stroke="black" stroke-width="3.43532"/>
<path d="M673.15 387.625C668.963 389.765 664.311 391.16 660.403 391.16C648.866 391.16 639.841 382.322 639.841 370.785C639.841 359.341 648.773 350.502 660.31 350.502C666.637 350.502 673.336 353.293 678.174 357.759L686.454 347.246C679.848 341.477 669.986 337.756 660.31 337.756C640.027 337.756 624.769 351.991 624.769 370.785C624.769 389.672 639.748 404 659.473 404C668.498 404 679.011 400.557 685.896 395.533V370.506H673.15V387.625Z" fill="black" stroke="black" stroke-width="3.43532"/>
<path d="M702.938 338.221V403.349H753.552V391.161H717.639V376.739H748.993V364.551H717.639V350.409H752.528V338.221H702.938Z" fill="black" stroke="black" stroke-width="3.43532"/>
</svg>
