<svg fill="none" xmlns="http://www.w3.org/2000/svg" viewBox="0 0 398 68">
  <path d="M102.6 14.9a1 1 0 0 0-.9-.6h-.5a.912.912 0 0 0-.9.6l-17 36.8a1 1 0 0 0 .9 1.4H89a1.57 1.57 0 0 0 1.6-1.1l2.7-5.9h16.4l2.7 5.9a1.578 1.578 0 0 0 1.6 1.1h4.8a.928.928 0 0 0 1.031-.908.934.934 0 0 0-.131-.492l-17.1-36.8Zm-6.8 25.2 5.4-12h.2l5.5 12H95.8ZM154.7 14.9h-5a.999.999 0 0 0-1 1v22.6h-.1l-22.8-24.2h-1.4a.999.999 0 0 0-1 1v36.8a1.08 1.08 0 0 0 1 1h5a1 1 0 0 0 1-1V28.6h.1l22.9 25.1h1.3a1 1 0 0 0 1-1V15.9a.94.94 0 0 0-1-1ZM179.3 14.9a1 1 0 0 0-.9-.6h-.5a.912.912 0 0 0-.9.6l-17 36.8a.998.998 0 0 0 .9 1.4h4.8a1.569 1.569 0 0 0 1.6-1.1l2.7-5.9h16.4l2.7 5.9a1.578 1.578 0 0 0 1.6 1.1h4.8a.928.928 0 0 0 1.031-.908.934.934 0 0 0-.131-.492l-17.1-36.8Zm-6.8 25.2 5.4-12h.2l5.5 12h-11.1ZM226.1 43.4a1.058 1.058 0 0 0-1.4 0 13 13 0 0 1-8.4 3.1A12.422 12.422 0 0 1 204 33.9c0-6.9 5.2-12.8 12.2-12.8a12.909 12.909 0 0 1 8.4 3.2 1 1 0 0 0 1.4 0l3.3-3.4a1.007 1.007 0 0 0 .29-.773.996.996 0 0 0-.39-.727 18.6 18.6 0 0 0-13.2-5.1 19.699 19.699 0 0 0-13.93 33.63A19.7 19.7 0 0 0 216 53.7a18.74 18.74 0 0 0 13.3-5.3 1.092 1.092 0 0 0 .1-1.5l-3.3-3.5ZM252 14.3a19.7 19.7 0 1 0 19.7 19.8A19.611 19.611 0 0 0 252 14.3Zm0 32.3a12.55 12.55 0 1 1 0-25.099 12.55 12.55 0 0 1 0 25.099ZM309 14.9h-5a.999.999 0 0 0-1 1v22.6h-.1l-22.8-24.2h-1.4a.999.999 0 0 0-1 1v36.8a1.08 1.08 0 0 0 1 1h5a1 1 0 0 0 1-1V28.6h.1l22.9 25.1h1.3a1 1 0 0 0 1-1V15.9a1.081 1.081 0 0 0-1-1ZM330.9 14.9h-13a1.078 1.078 0 0 0-1 1v36.2a.998.998 0 0 0 1 1h13a19.1 19.1 0 1 0 0-38.2Zm-.6 31.6H324v-25h6.2A12.088 12.088 0 0 1 342.5 34a12.007 12.007 0 0 1-3.402 8.883A11.993 11.993 0 0 1 330.3 46.5ZM386.7 51.8 369.8 15a1 1 0 0 0-.9-.6h-.5a.912.912 0 0 0-.9.6l-17 36.8a.998.998 0 0 0 .9 1.4h4.8a1.57 1.57 0 0 0 1.6-1.1l2.7-5.9h16.4l2.7 5.9a1.578 1.578 0 0 0 1.6 1.1h4.8a.942.942 0 0 0 .824-.96.936.936 0 0 0-.124-.44Zm-23.6-11.7 5.4-12h.2l5.5 12h-11.1ZM393.5 52.6h.3a.22.22 0 0 0 .2-.2v-1h.6l.4 1.1c0 .1.1.1.2.1h.4a.22.22 0 0 0 .2-.2c-.2-.3-.3-.7-.5-1a.996.996 0 0 0 .7-1 .993.993 0 0 0-.287-.813 1.01 1.01 0 0 0-.813-.287h-1.3a.217.217 0 0 0-.136.064.216.216 0 0 0-.064.136v2.9c0 .1 0 .2.1.2Zm.5-2.7h.8a.368.368 0 0 1 .379.242.428.428 0 0 1-.379.558h-.8v-.8Z" fill="#fff"/>
  <path d="M394.5 54.2a3.159 3.159 0 0 0 3.2-3.2 3.204 3.204 0 0 0-1.975-2.956A3.201 3.201 0 1 0 394.5 54.2Zm0-5.9a2.598 2.598 0 0 1 2.402 1.605 2.6 2.6 0 1 1-5.002.995 2.65 2.65 0 0 1 2.6-2.6Z" fill="#fff"/>
  <path d="M12.5 51.7v-.2a36.79 36.79 0 0 1 .5-5.8v-.2l-.2-.1a49.675 49.675 0 0 1-5.2-2.5l-.2-.1-.1.2a53.758 53.758 0 0 0-2.8 7l-.1.2.2.1a39.14 39.14 0 0 0 7.6 1.4h.3ZM17.7 17.5c-1.5 0-2.9.1-4.4.2.17 1.483.437 2.953.8 4.4a20.36 20.36 0 0 1 3.6-4.6ZM12.5 53.5v-.2h-.2a51.954 51.954 0 0 1-6.5-1.1l-.6-.1.3.5a34.872 34.872 0 0 0 7.1 7.8l.4.4v-.7a51.4 51.4 0 0 1-.5-6.6ZM23 1.8a33.778 33.778 0 0 0-7.4 3.6 47 47 0 0 1 5.1 1.2A52.377 52.377 0 0 1 23 1.8ZM33.9 0c-1.3 0-2.6.1-3.8.2a39.812 39.812 0 0 1 5.1 4.1l1.3 1.2-1.3 1.3a34.65 34.65 0 0 0-3.2 3.4v.1c-.18.19-.346.39-.5.6a19.274 19.274 0 0 1 2.4-.1 23 23 0 1 1 0 46 22.39 22.39 0 0 1-12-3.4c-1.726.2-3.462.3-5.2.3a19.274 19.274 0 0 1-2.4-.1c.093 2.71.326 5.414.7 8.1a33.26 33.26 0 0 0 18.9 5.8 33.75 33.75 0 0 0 0-67.5Z" fill="#43B02A"/>
  <path d="M29.4 8c.7-.8 1.4-1.6 2.1-2.3a58.593 58.593 0 0 0-5-3.7 41.787 41.787 0 0 0-2.8 5.6c1.5.6 3 1.2 4.5 1.9.6-.8 1.1-1.4 1.2-1.5ZM6.5 27.3l.1.2.2-.1a50.41 50.41 0 0 1 4.9-3.1l.2-.1V24a38.38 38.38 0 0 1-1.1-5.9v-.2h-.2a43.623 43.623 0 0 0-7.3 2l-.2.1.1.2a30.3 30.3 0 0 0 3.3 7.1ZM6.1 30.5l-.2.2a46.997 46.997 0 0 0-5.1 4.9l-.2.2.2.2a58.366 58.366 0 0 0 5.6 4.2l.2.1.1-.2a45.305 45.305 0 0 1 3-4.6l.1-.2-.1-.1a52.004 52.004 0 0 1-3.5-4.4l-.1-.3ZM19.4 51.8h.6l-.5-.4a20.728 20.728 0 0 1-4.6-5.2v-.1l-.4-.2v.3a45.512 45.512 0 0 0-.4 5.3v.2h.2c.8 0 1.6.1 2.4.1.897.1 1.803.1 2.7 0ZM18.3 14.5c.36-1.662.828-3.299 1.4-4.9a46.943 46.943 0 0 0-6.5-1.4 48.462 48.462 0 0 0-.1 6.6 44.057 44.057 0 0 1 5.2-.3ZM21.5 14.4a29.17 29.17 0 0 1 4.7-2.3 27.486 27.486 0 0 0-3.6-1.5c-.4 1.2-.8 2.5-1.1 3.8ZM5.8 41.8l-.2-.1a57.348 57.348 0 0 1-5-3.6l-.5-.4.1.6a31.56 31.56 0 0 0 2.7 9.4l.2.5.2-.5a55.472 55.472 0 0 1 2.4-5.6l.1-.3ZM10.1 9.8a33.47 33.47 0 0 0-5.2 6.7c1.7-.5 3.5-.9 5.3-1.3-.1-1.8-.1-3.6-.1-5.4ZM11.1 33.5v-.6a23.535 23.535 0 0 1 1-6l.2-.6-.5.3c-1.3.8-2.6 1.6-3.9 2.5l-.2.1.3.2c.9 1.2 1.8 2.5 2.8 3.6l.3.5ZM11.4 37l-.1-.6-.3.5c-.9 1.3-1.8 2.7-2.6 4.1l-.1.2.2.1c1.4.8 2.9 1.5 4.4 2.2l.5.2-.2-.5a23.109 23.109 0 0 1-1.8-6.2ZM4.8 28.9l.2-.1-.1-.2A54.497 54.497 0 0 1 2 23.3l-.2-.5-.2.6A33.77 33.77 0 0 0 0 32.9v.6l.4-.4a24.926 24.926 0 0 1 4.4-4.2Z" fill="#43B02A"/>
</svg>
