<svg fill="none" xmlns="http://www.w3.org/2000/svg" viewBox="0 0 600 102">
  <path d="M50.6 101.094v-19.5c20.8 0 36.8-20.6 28.9-42.4-2.9-8.1-9.4-14.5-17.5-17.5-21.8-7.9-42.4 8.1-42.4 28.9H0c0-33.1 32-58.9 66.7-48.1 15.2 4.7 27.2 16.8 31.9 31.9 10.8 34.7-14.9 66.7-48 66.7Zm0-39H31.1v19.5h19.5v-19.5Zm-19.5 34.5v-15h-15v15h15Zm-15-27.6H3.5v12.6h12.6v-12.6Zm163.9-39.8c3.2 2.1 5.7 5.2 7.4 9.1 1.7 3.9 2.6 8.4 2.6 13.6 0 5.2-.9 9.8-2.6 13.7-1.7 3.9-4.2 7.1-7.4 9.3-5.8 4.2-13 6.4-21.4 6.4h-18.3v-58.1h18.3c8.4 0 15.6 2 21.4 6Zm-29 42.3h5.8c6.5 0 11.7-1.3 15.6-3.8 4.4-2.9 6.7-8.2 6.7-15.8 0-7.4-2.2-12.4-6.7-15.1-4-2.5-9.3-3.7-15.7-3.7h-5.8v38.4h.1Zm51.8-49c-1.8 0-3.3.6-4.5 1.8-1.2 1.2-1.9 2.7-1.9 4.4 0 1.8.6 3.3 1.9 4.5 1.2 1.2 2.7 1.9 4.5 1.9 1.8 0 3.3-.6 4.5-1.9 1.2-1.2 1.9-2.7 1.9-4.5 0-1.8-.6-3.3-1.9-4.4-1.2-1.2-2.8-1.8-4.5-1.8Zm-5.3 58.8h10.3v-41h-10.3v41Zm47.8-40.9h10.1v37.2c0 6.1-1.9 11.1-5.5 14.9-3.6 3.7-8.6 5.6-14.7 5.6-4.5 0-8.4-1-11.5-3-3.1-2-5.4-4.1-6.9-6.2l-.2-.3 7-6.7c3.6 4.9 6.6 6.8 11.4 6.8 3.1 0 5.6-.9 7.4-2.7 1.8-1.8 2.7-4.5 2.7-7.9v-.9c-2.8 2.2-6.2 3.3-10.2 3.3-5.7 0-10.5-1.9-14.1-5.8-3.6-4-5.5-8.9-5.5-14.7 0-5.9 1.9-10.9 5.5-14.7 3.6-3.9 8.4-5.8 14-5.8 3.8 0 7.2 1.6 10.3 4.4v-3.5h.2Zm-2.8 27.6c1.8-2 2.7-4.7 2.7-8s-.9-6.1-2.7-8.1c-1.8-2.1-4.1-3.1-7.1-3.1-2.9 0-5.3 1-7 3.1-1.8 2-2.7 4.8-2.7 8.1s.9 6 2.7 8c1.8 2 4.1 3 7 3 2.9 0 5.3-1 7.1-3Zm21.7 13.3h10.3v-41h-10.3v41Zm5.3-58.8c-1.8 0-3.3.6-4.5 1.8-1.2 1.2-1.9 2.7-1.9 4.4 0 1.8.6 3.3 1.9 4.5 1.2 1.2 2.7 1.9 4.5 1.9 1.8 0 3.3-.6 4.5-1.9 1.2-1.2 1.9-2.7 1.9-4.5 0-1.8-.6-3.3-1.9-4.4-1.3-1.2-2.8-1.8-4.5-1.8Zm27.6 6.8H287v11.1h-5.9v9.4h5.9v17c0 5.3 1.1 9.1 3.2 11.3 2.1 2.2 5.8 3.3 11.1 3.3 1.7 0 3.4-.1 5-.2h.5v-9.4l-3.5.2c-2.5 0-4.1-.4-4.9-1.3-.8-.9-1.2-2.7-1.2-5.4v-15.6h9.6v-9.4h-9.6v-11h-.1Zm57.9 52h10.3v-58.1H355v58.1Zm114.4-14.6c-1.8 2.1-3.7 3.9-5.2 4.8-1.4.9-3.2 1.4-5.3 1.4-3 0-5.5-1.1-7.5-3.4s-3-5.2-3-8.7c0-3.5 1-6.4 2.9-8.6 2-2.3 4.4-3.4 7.4-3.4 3.3 0 6.8 2.1 9.8 5.6l6.8-6.5c-4.4-5.8-10.1-8.5-16.9-8.5-5.7 0-10.6 2.1-14.6 6.1-4 4-6 9.2-6 15.3 0 6.1 2 11.2 6 15.3 4 4.1 8.9 6.1 14.6 6.1 7.5 0 13.5-3.2 17.5-9.1l-6.5-6.4Zm42.3-20.6c1.4 2 2.5 4.2 3.3 6.7.7 2.4 1.1 5 1.1 7.6l-.1 3.8h-27.3c.3 2.6 1.2 4.7 2.9 6.2 1.8 1.7 4.2 2.5 7 2.5 1.9 0 3.7-.4 5.2-1.1 1-.5 2-1.2 3-2.2.8-.8 1.7-1.6 2.3-2.4l6.7 6.5-.2.3c-4.3 5.5-10 8.4-16.9 8.4-6.1 0-11.1-2-14.9-5.9-3.8-3.9-5.7-9.1-5.7-15.3 0-6 1.7-11.2 5.2-15.4 3.5-4.2 8.2-6.3 14-6.3 3.2 0 6.1.6 8.5 1.8 2.5 1.1 4.5 2.8 5.9 4.8Zm-6.6 9.6c-.1-1.9-.8-3.5-2.1-4.8-1.3-1.4-3.2-2.1-5.7-2.1-2.2 0-4 .7-5.4 2.1-1.3 1.3-2.2 2.9-2.7 4.9h15.9v-.1Zm46.2-12.3c3.1 2.7 4.7 6.6 4.7 11.6v26.3h-10.1v-3.4c-3.3 2.7-7 4.3-10.9 4.3-3.9 0-7.3-1.1-10-3.4s-4-5.4-4-9.3c0-4.4 1.6-7.8 4.7-10.2 3.1-2.4 7.3-3.6 12.4-3.6 2.5 0 5 .4 7.6 1.2v-2c0-1.8-.7-3.3-2-4.4-1.4-1.1-3.2-1.7-5.3-1.7-4 0-7 1.5-9.7 5.8l-6.6-6.3-.1-.1c1.7-2.9 4.3-5.2 7-6.6 2.9-1.5 6.1-2.2 9.5-2.2 5.4 0 9.7 1.4 12.8 4Zm-18.3 22.3c-1.1.8-1.7 1.8-1.7 3.3 0 1.2.5 2.2 1.4 3 1 .8 2.3 1.2 4.1 1.2 3.7 0 6.7-1.1 8.9-3.1v-4c-2.7-1-5.3-1.5-7.8-1.5-2.1-.1-3.7.3-4.9 1.1Zm62.7-21.4c-2.9-3.2-6.9-4.8-12-4.8-4.1 0-7.4 1.2-9.9 3.5v-2.5h-10.1v41H574v-22.6c0-3.1.7-5.6 2.2-7.3 1.5-1.8 3.4-2.6 6.1-2.6 2.3 0 4.1.8 5.4 2.3 1.3 1.6 2 3.7 2 6.4v23.7H600v-23.8c0-5.7-1.5-10.2-4.3-13.3Zm-253.6-.9c3.1 2.7 4.7 6.6 4.7 11.6v26.3h-10.1v-3.4c-3.3 2.7-7 4.3-10.9 4.3-3.9 0-7.3-1.1-10-3.4s-4-5.4-4-9.3c0-4.4 1.6-7.8 4.7-10.2 3.1-2.4 7.3-3.6 12.4-3.6 2.5 0 5 .4 7.6 1.2v-2c0-1.8-.7-3.3-2-4.4-1.4-1.1-3.2-1.7-5.3-1.7-4 0-7 1.5-9.7 5.8l-6.6-6.3-.1-.1c1.7-2.9 4.3-5.2 7-6.6 2.9-1.5 6.1-2.2 9.5-2.2 5.3 0 9.6 1.4 12.8 4Zm-18.3 22.3c-1.1.8-1.7 1.8-1.7 3.3 0 1.2.5 2.2 1.4 3 1 .8 2.3 1.2 4.1 1.2 3.7 0 6.7-1.1 8.9-3.1v-4c-2.7-1-5.3-1.5-7.8-1.5-2.1-.1-3.8.3-4.9 1.1Zm78.9 16.5c16.5 0 30-13.4 30-30 0-16.5-13.4-30-30-30s-30 13.4-30 30 13.5 30 30 30Zm0-49.4c10.7 0 19.4 8.7 19.4 19.4s-8.7 19.4-19.4 19.4-19.4-8.7-19.4-19.4 8.7-19.4 19.4-19.4Z" fill="#fff"/>
</svg>
