<svg class="h-[2rem]" viewBox="0 0 665 158" fill="none" xmlns="http://www.w3.org/2000/svg"><title>logo</title><path d="M196.844 54.1541H206.811V61.3885C210.419 55.774 215.922 53.0149 222.466 53.0149C233.385 53.0149 239.641 60.1532 239.641 72.5213V101.733H229.202V74.3262C229.202 66.8107 225.594 62.72 218.859 62.72C211.171 62.72 207.091 68.4307 207.091 79.2749V101.733H196.844V54.1541Z" fill="currentColor"></path><path d="M268.664 53.0074C281.951 53.0074 288.495 59.1915 288.495 71.5596V101.725H278.248V95.1566C275.024 100.009 269.704 102.865 263.161 102.865C253.577 102.865 247.122 96.6805 247.122 87.9222C247.122 79.7409 252.913 74.0302 262.305 73.1722L275.496 71.8407C277.488 71.6483 278.248 70.9826 278.248 69.6511V68.6007C278.248 64.6062 274.832 62.2243 268.856 62.2243C262.312 62.2243 257.945 64.9835 256.809 69.6511L248.553 64.4213C251.017 56.9945 258.041 53 268.672 53L268.664 53.0074ZM264.584 81.457C260.217 81.9304 257.745 84.2162 257.745 87.6411C257.745 91.4432 260.689 93.8251 265.529 93.8251C272.744 93.8251 278.248 88.7802 278.248 82.5V79.7409L264.584 81.4496V81.457Z" fill="currentColor"></path><path d="M354.052 53.0073C365.435 53.0073 372.178 60.0495 372.178 73.5641V101.725H361.835V74.3187C361.835 66.7069 358.419 62.7124 351.964 62.7124C343.709 62.7124 339.725 68.4231 339.725 79.2674V101.725H329.477V74.3187C329.477 66.7069 325.966 62.7124 319.51 62.7124C311.343 62.7124 307.359 68.4231 307.359 79.2674V101.725H297.112V54.1539H307.079V61.5733C310.023 56.055 314.951 53.0073 321.982 53.0073C329.013 53.0073 334.413 56.055 337.165 62.1429C340.868 56.1511 346.372 53.0073 354.059 53.0073H354.052Z" fill="currentColor"></path><path d="M402.515 53.0073C417.218 53.0073 425.57 63.4744 425.57 78.1282V81.0797H389.125V81.1759C390.076 89.2684 396.524 93.2629 403.363 93.2629C409.627 93.2629 414.275 90.5037 417.594 87.0788L422.434 95.3563C418.546 99.1658 412.371 102.872 403.452 102.872C388.269 102.872 378.685 92.7895 378.685 78.1282C378.685 63.467 387.892 53.0073 402.507 53.0073H402.515ZM402.323 62.1429C394.827 62.1429 390.46 66.3297 389.228 73.2756H414.378C413.714 66.7069 409.73 62.1429 402.323 62.1429Z" fill="currentColor"></path><path d="M449.561 53.0073C458.104 53.0073 464.272 56.055 468.352 61.7656L461.424 68.3269C458.864 64.4286 454.121 62.4314 448.801 62.4314C444.058 62.4314 441.114 64.1475 441.114 67.1878C441.114 70.4203 444.25 71.1822 452.313 73.0833C461.808 75.3691 468.448 78.1282 468.448 87.7372C468.448 97.3461 461.424 102.864 449.185 102.864C439.506 102.864 431.818 99.3434 428.115 93.2555L435.138 86.5018C437.89 90.7848 442.826 93.544 449.938 93.544C454.969 93.544 458.009 91.8352 458.009 88.3142C458.009 84.7931 455.065 84.0312 447.474 82.3224C439.314 80.5175 430.675 77.6622 430.675 67.5724C430.675 58.533 437.89 53.0147 449.554 53.0147L449.561 53.0073Z" fill="currentColor"></path><path d="M474.217 54.1539H484.464V60.9075C488.256 55.7665 493.952 53.0073 500.791 53.0073C513.886 53.0073 522.997 63.1859 522.997 77.9359C522.997 92.6859 513.886 102.864 500.887 102.864C494.151 102.864 488.552 100.105 484.472 94.8755V124.827H474.224V54.1539H474.217ZM512.462 77.9433C512.462 68.9039 506.767 62.816 498.231 62.816C489.695 62.816 484 68.8077 484 77.9433C484 87.0788 489.695 93.0706 498.231 93.0706C506.767 93.0706 512.462 86.9827 512.462 77.9433Z" fill="currentColor"></path><path d="M548.509 53.0074C561.796 53.0074 568.34 59.1915 568.34 71.5596V101.725H558.092V95.1566C554.868 100.009 549.549 102.865 543.005 102.865C533.422 102.865 526.966 96.6805 526.966 87.9222C526.966 79.7409 532.758 74.0302 542.149 73.1722L555.34 71.8407C557.332 71.6483 558.092 70.9826 558.092 69.6511V68.6007C558.092 64.6062 554.676 62.2243 548.701 62.2243C542.157 62.2243 537.789 64.9835 536.653 69.6511L528.398 64.4213C530.862 56.9945 537.885 53 548.516 53L548.509 53.0074ZM544.429 81.457C540.061 81.9304 537.59 84.2162 537.59 87.6411C537.59 91.4432 540.534 93.8251 545.373 93.8251C552.588 93.8251 558.092 88.7802 558.092 82.5V79.7409L544.429 81.4496V81.457Z" fill="currentColor"></path><path d="M598.787 53.0073C605.803 53.0073 611.786 55.3892 616.338 59.9533L610.17 68.0384C606.563 64.7097 602.77 62.9935 598.499 62.9935C589.956 62.9935 584.172 69.0814 584.172 77.9359C584.172 86.7903 590.059 92.8782 598.403 92.8782C602.866 92.8782 607.042 91.0733 610.65 87.6484L616.537 95.8297C611.978 100.394 605.618 102.872 598.41 102.872C583.707 102.872 573.644 92.7895 573.644 78.0394C573.644 63.2894 583.987 53.0147 598.794 53.0147L598.787 53.0073Z" fill="currentColor"></path><path d="M641.945 53.0073C656.649 53.0073 665 63.4744 665 78.1282V81.0797H628.555V81.1759C629.507 89.2684 635.955 93.2629 642.794 93.2629C649.057 93.2629 653.705 90.5037 657.025 87.0788L661.864 95.3563C657.977 99.1658 651.802 102.872 642.882 102.872C627.699 102.872 618.116 92.7895 618.116 78.1282C618.116 63.467 627.323 53.0073 641.938 53.0073H641.945ZM641.753 62.1429C634.258 62.1429 629.89 66.3297 628.658 73.2756H653.808C653.144 66.7069 649.16 62.1429 641.753 62.1429Z" fill="currentColor"></path><path d="M79 158C122.63 158 158 122.63 158 79C158 35.3695 122.63 0 79 0C35.3695 0 0 35.3695 0 79C0 122.63 35.3695 158 79 158Z" fill="#1C32FF"></path><path d="M120.148 122.806V110.969H80.4884V122.806H120.148Z" fill="white"></path><path d="M90.2708 102.533H80.5597L52.6669 63.193V102.533H40.8293V43.4873H52.3834L78.4332 80.8076V43.4873H90.2708V102.533Z" fill="white"></path></svg>