<svg fill="none" xmlns="http://www.w3.org/2000/svg" viewBox="0 0 499 141">
  <path d="M264.509 34.464c0 8.839.083 17.689-.042 26.528-.042 2.267.385 3.276 2.932 3.078 2.298-.166 5.574-.863 5.48 2.922-.094 3.775-3.421 2.704-5.678 2.745-9.38.187-8.517.198-8.496-8.455.01-5.002 0-10.014 0-15.027 0-6.385.083-12.781-.031-19.176-.052-2.964 1.04-4.368 4.108-4.232 2.454.125 4.908.03 7.373.042 1.83 0 2.818.967 2.787 2.745-.021 1.768-.998 2.6-2.839 2.725-5.594.406-5.594.458-5.594 6.105ZM308.914 46.34c0 6.385.021 12.781-.01 19.166-.021 3.62-.666 4.222-4.368 4.253-2.236.021-4.482.01-6.728 0-1.862 0-3.172-.832-3.182-2.766-.021-2.08 1.3-2.912 3.328-3.005 5.075-.229 5.075-.28 5.075-5.252 0-9.058-.104-18.116.062-27.163.052-2.724-.811-3.64-3.411-3.255-.842.125-1.716.062-2.569-.01-1.653-.135-2.496-1.175-2.496-2.745 0-1.445.853-2.537 2.309-2.589 3.203-.125 6.416-.177 9.599.021 1.997.135 2.402 1.768 2.392 3.536-.022 6.602-.012 13.206-.001 19.81Z" fill="#077E8A"/>
  <path d="M285.88.012C259.3-.56 237.96 19.23 237.451 44.937c-.52 26.164 19.478 46.994 45.767 47.68 25.416.666 46.474-19.998 47.015-46.14.498-24.44-20.019-45.945-44.353-46.465Zm-1.987 84.618c-21.298 0-38.56-17.138-38.571-38.3 0-21.173 17.273-38.467 38.456-38.498 21.183-.02 38.529 17.242 38.571 38.383.032 21.163-17.231 38.405-38.456 38.415ZM402.405 37.41c0 9.599-.039 19.198.015 28.796.031 5.48 1.343 10.575 6.715 13.18 5.925 2.874 12.116 2.798 17.755-.76 4.872-3.075 5.659-8.3 5.676-13.543.062-18.77.024-37.541.025-56.311 0-4.284.001-4.284 4.169-4.285 5.506-.001 5.506-.001 5.506 5.499 0 18.344.018 36.687-.011 55.03-.009 5.503-.949 10.799-3.875 15.606-2.309 3.793-5.584 6.464-9.676 8.026-5.951 2.27-12.178 2.54-18.314 1.194-11.318-2.484-17.309-10.172-17.553-22.677-.25-12.793-.09-25.594-.103-38.392-.007-7.252.053-14.505-.037-21.756-.023-1.865.378-2.57 2.45-2.588 7.247-.063 7.246-.155 7.246 7.065V37.41a.038.038 0 0 0 .012 0Z" fill="#077E8A"/>
  <path d="M148.82 51.618c2.7-5.507 5.224-10.625 7.723-15.756 4.801-9.856 9.707-19.665 14.3-29.617 1.237-2.68 3.105-2.143 5.005-1.958 2.301.225 1.224 2.162 1.227 3.276.066 26.55.031 53.1.089 79.648.005 2.137-.179 3.251-2.843 3.202-2.517-.046-3.205-.707-3.193-3.222.099-21.218.056-42.436.056-63.655v-3.089l-.671-.232-21.731 43.805-21.686-43.742-.614.154v3.665c0 21.005-.034 42.01.047 63.015.009 2.37-.43 3.278-3.093 3.312-2.83.036-3.007-1.18-3.002-3.405.054-26.443.021-52.886.08-79.329.003-1.163-.98-3.06 1.182-3.388 2.103-.319 4.003-.339 5.241 2.28 6.782 14.334 13.765 28.575 20.684 42.846.273.563.6 1.1 1.199 2.19Z" fill="#E2533D"/>
  <path d="M472.515 90.509c-7.243.007-13.98-1.504-19.794-6.115-2.308-1.83-2.935-3.513-.122-5.378.262-.174.494-.418.687-.67 1.96-2.552 3.529-3.066 6.449-.534 5.084 4.407 16.405 4.566 22.226 1.083 8.252-4.936 8.082-19.714-.292-25.603-3.722-2.618-8.064-3.838-12.253-5.401-3.9-1.455-7.811-2.875-11.213-5.37-7.415-5.435-8.751-13.09-7.454-21.415 1.292-8.293 6.503-13.542 14.454-15.83 8.367-2.407 16.726-1.733 24.857 1.28 3.996 1.48 4.064 1.956 1.736 5.558-2.771 4.288-2.795 4.354-7.516 2.692-4.562-1.606-9.235-1.756-13.934-1.16-5.553.707-9.381 4.124-10.169 8.753-1.061 6.23.91 10.569 6.15 13.468 4.508 2.494 9.508 3.773 14.259 5.67 15.868 6.333 22.042 23.303 13.691 38.198-4.744 8.459-12.753 10.705-21.762 10.774Z" fill="#077E8A"/>
  <path d="M337.044 47.163c0-5.332.171-10.67-.031-15.994-.886-23.38 16.481-30.162 33.159-26.036 8.319 2.058 13.915 7.212 15.82 15.788.956 4.306.659 4.59-3.568 4.617-.535.004-1.078-.047-1.603.028-2.784.401-4.554-.193-4.86-3.534-.229-2.492-1.842-4.596-3.992-5.944-5.69-3.567-11.8-3.53-17.843-1.237-5.422 2.058-7.262 6.928-7.36 12.103-.26 13.643-.255 27.297.01 40.94.098 5.077 1.997 9.861 7.271 11.836 6.121 2.292 12.387 2.52 18.143-1.234 2.55-1.664 3.588-4.448 3.979-7.387.254-1.913 1.069-2.895 3.12-2.532.518.092 1.067.014 1.602.014 5.887 0 6.575.848 4.763 6.606-2.454 7.796-8 12.413-15.797 14.328-6.79 1.668-13.614 1.632-20.097-1.272-8.71-3.902-12.131-11.364-12.583-20.302-.349-6.913-.07-13.858-.07-20.789l-.063.001Z" fill="#077E8B"/>
  <path d="M40.04 73.382c0-22.07-.022-43.605.04-65.139.005-1.783-1.314-4.426 2.605-4.395 2.769.022 3.577.633 3.564 3.517-.123 26.559-.058 53.119-.124 79.679-.003 1.106 1.075 2.989-1.318 3.243-1.784.19-3.022-.05-4.008-2.084C30.166 66.253 19.377 44.38 8.627 22.487c-.561-1.143-1.164-2.267-1.923-3.743-.785 1.39-.481 2.639-.48 3.789.032 21.332.095 42.664.15 63.997.01 4.159-.114 4.21-4.355 3.812C.799 90.227.3 89.837.317 88.634c.018-1.385-.092-2.771-.092-4.157C.219 58.984.199 33.49.28 7.997.285 6.68-.916 4.555 1.62 4.066c2.306-.444 3.848.244 5.034 2.652C17.15 28.025 27.805 49.256 38.42 70.505c.42.839.92 1.639 1.619 2.877Z" fill="#E2533D"/>
  <path d="M195.401 46.983c0-13.33.048-26.66-.046-39.99-.016-2.275.444-3.132 2.971-3.105 12.942.137 25.886.107 38.828.02 2.1-.015 2.986.32 2.958 2.72-.081 6.818.04 6.82-6.811 6.82-8.344 0-16.688.071-25.03-.047-2.239-.032-3.196.337-3.136 2.902.182 7.781.132 15.57.022 23.353-.029 2.056.515 2.767 2.66 2.7 4.916-.153 9.841.013 14.759-.08 1.68-.033 2.145.517 2.208 2.174.262 6.945.321 6.942-6.692 6.942-3.423 0-6.852.126-10.267-.045-2.183-.11-2.684.698-2.668 2.745.088 11.09-.033 22.182.1 33.272.029 2.427-.659 3.045-3.05 3.005-6.807-.112-6.809.001-6.809-6.915.003-12.157.003-24.314.003-36.47Z" fill="#077E8B"/>
  <path d="M106.136 38.881c0 9.701.055 19.402-.012 29.102-.126 18.11-13.327 24.42-28.368 21.921-10.821-1.798-17.16-9.18-17.306-20.226-.28-21.106-.06-42.218-.15-63.327-.013-3.033 2.086-1.945 3.512-2.213 2.045-.384 2.478.674 2.472 2.544-.055 18.87-.041 37.741-.022 56.611.002 1.916.128 3.833.255 5.746.892 13.369 10.958 17.092 21.39 15.047 8.01-1.57 12.199-7.317 12.261-16.349.097-14.179.03-28.359.032-42.538.001-6.077.139-12.159-.065-18.229-.088-2.63 1.035-2.911 3.208-2.923 2.158-.011 2.986.525 2.961 2.849-.115 10.66-.05 21.322-.05 31.983a2.322 2.322 0 0 1-.118.002Z" fill="#E2533D"/>
  <path d="M243.867 125.561c2.985-2.537 3.796-5.054 2.839-8.288-.978-3.349-3.733-4.149-6.687-4.461-1.903-.198-3.848.062-5.751-.094-1.945-.156-2.329.738-2.309 2.434.073 5.74.031 11.491.031 17.231 0 8.008 0 8.008 8.174 7.685 4.191-.166 6.447-1.799 7.352-5.324 1.01-3.9-.134-6.905-3.649-9.183Zm-7.571-8.652c.083-1.747 1.549-.936 2.329-1.154 1.778-.021 3.411.114 4.201 1.862.801 1.768.676 3.619-.447 5.168-1.227 1.695-3.203 1.414-5.012 1.404-.801 0-1.113-.458-1.102-1.206 0-2.028-.063-4.046.031-6.074Zm7.103 17.804c-.666 2.163-2.454 2.371-4.316 2.537-5.064.437-1.841-3.525-2.829-4.96 0-.717-.073-1.154.01-1.56.239-1.154-.749-2.943.79-3.338 1.768-.468 3.9-.593 5.356 1.04 1.644 1.84 1.696 4.024.989 6.281Z" fill="#0A7F8C"/>
  <path d="M171.259 126.653c0-12.718-1.425-14.112-13.093-13.966-2.277.031-2.631.884-2.6 2.808.083 5.647.031 11.294.031 16.94 0 8.226 1.175 9.089 9.505 7.404 3.401-.686 5.158-2.673 5.844-5.927.542-2.537.157-5.096.313-7.259Zm-4.409 6.167c-.01 2.257-.863 3.858-3.359 4.305-2.61.478-4.045.042-3.692-3.109.27-2.537.052-5.116.052-7.674 0-2.454-.125-4.908.052-7.352.094-1.113-1.113-3.047 1.3-3.203 2.028-.135 4.191-.302 5.231 2.069.281.666.406 1.446.406 2.173.041 4.253.041 8.527.01 12.791Z" fill="#097F8C"/>
  <path d="M92.438 129.34c0-4.619-.016-9.237.01-13.856.007-1.288-.507-2.848 1.865-2.778 2.106.062 1.746 1.416 1.75 2.64.013 7.356.028 14.712-.02 22.068-.006.935.578 2.255-1.026 2.617-1.481.335-2.045-.588-2.581-1.754-2.353-5.11-4.77-10.191-7.739-15.229 0 4.791-.005 9.582.004 14.374.002 1.394.266 2.761-1.993 2.7-2.112-.057-1.761-1.376-1.763-2.609-.008-7.463-.021-14.926.02-22.388.004-.842-.516-2.048.944-2.339 1.323-.264 2.195.224 2.787 1.497 2.358 5.067 4.785 10.102 7.186 15.149l.555-.092Z" fill="#0A7F8C"/>
  <path d="M38.42 119.779c-.302-4.409-2.652-6.832-6.676-7.113-5.824-.406-8.725 1.289-9.474 6.115a50.206 50.206 0 0 0 0 15.235c.728 4.805 3.525 6.562 9.068 6.25 4.285-.239 6.728-2.61 7.072-7.113.166-2.215.03-4.451.03-6.687.01-2.225.136-4.472-.02-6.687Zm-4.358 13.935c-.083 2.257-1.29 3.473-3.64 3.536-2.433.062-3.983-1.092-4.066-3.473a244.462 244.462 0 0 1-.01-14.632c.073-2.361 1.508-3.536 4.014-3.494 2.402.031 3.598 1.165 3.692 3.432.104 2.537.02 5.085.03 7.633 0 2.329.064 4.669-.02 6.998ZM431.919 129.295v-14.261c0-1.173-.198-2.325 1.685-2.324 1.864.001 1.706 1.125 1.705 2.314-.003 7.564.018 15.128-.028 22.691-.005.822.553 2.045-.925 2.322-1.455.273-1.989-.59-2.528-1.808-1.806-4.083-3.759-8.101-5.671-12.137-.435-.918-.932-1.806-1.969-2.608 0 4.722-.016 9.443.01 14.165.007 1.359.072 2.453-1.913 2.475-2.06.023-1.855-1.169-1.853-2.473.012-7.351-.031-14.702.048-22.051.01-.957-.852-2.459 1.021-2.828 1.614-.319 2.207.691 2.793 1.958 2.274 4.912 4.634 9.785 6.963 14.672l.662-.107ZM335.182 137.001c-.78-2.756-1.758-5.449-2.6-8.195-.406-1.289-.634-2.246.936-3.369 2.381-1.705 2.454-4.576 1.945-7.3-.499-2.683-2.236-4.212-4.867-4.898-2.423-.634-4.877-.354-7.321-.52-1.924-.135-2.641.478-2.569 2.486.146 3.712.042 7.446.042 11.169 0 3.931.052 7.872-.021 11.803-.031 1.633.728 1.903 2.142 1.934 1.508.021 2.09-.458 2.049-2.007a129.738 129.738 0 0 1 0-8.299c.031-.884-.655-2.215 1.144-2.444 1.601-.198 2.246.499 2.631 1.976.759 2.87 1.83 5.668 2.537 8.548.499 2.049 1.778 2.569 3.505 2.132 2.205-.562.718-2.029.447-3.016Zm-8.257-12.407c-2.049.031-2.049.031-2.049-4.752.853-1.154-1.778-4.17 2.121-4.17 3.203-.01 4.378 1.133 4.368 4.42-.01 3.078-1.372 4.461-4.44 4.502ZM149.587 126.622c0-2.454.177-4.919-.042-7.352-.406-4.596-3.016-6.624-8.111-6.624-5.064.01-7.727 2.059-7.987 6.718-.25 4.68-.26 9.39.01 14.07.26 4.711 2.933 6.811 7.914 6.832 5.168.031 7.779-2.101 8.195-6.936.188-2.215.032-4.472.021-6.708Zm-4.159 6.697c-.135 2.402-1.269 4.014-3.983 3.973-2.496-.031-3.816-1.466-3.889-3.744-.146-4.773-.166-9.557.01-14.32.083-2.257 1.394-3.598 3.973-3.598 2.631 0 3.702 1.435 3.858 3.681.166 2.329.042 4.669.042 6.999h.01c-.001 2.34.103 4.68-.021 7.009Z" fill="#087E8B"/>
  <path d="M116.692 126.436c.002 2.447-.069 4.897.023 7.341.086 2.301 1.401 3.482 3.719 3.458 2.366-.025 3.443-1.225 3.454-3.609.006-1.197-.612-2.732.595-3.525.672-.442 1.895-.26 2.81-.072 1.224.251.704 1.369.703 2.127-.003 5.51-2.221 7.999-7.167 8.117-5.545.133-8.363-2.422-8.514-7.976-.116-4.252-.212-8.525.076-12.762.352-5.172 3.512-7.307 9.476-6.867 4.03.297 6.208 3.095 6.214 7.783.002 1.555-.343 2.3-2.125 2.315-1.804.015-2.159-.755-2.094-2.295.104-2.446.098-4.845-3.444-4.804-2.363.027-3.62 1.14-3.707 3.43-.093 2.442-.021 4.891-.019 7.339ZM375.411 126.44c0 2.344-.017 4.688.006 7.032.024 2.428 1.156 3.801 3.717 3.771 2.677-.031 3.536-1.686 3.439-4-.089-2.104-.078-3.896 2.896-3.327.783.15.992.486 1.138 1.209.889 4.387-1.511 8.378-5.505 9.053-5.464.924-9.705-1.562-9.98-6.285-.291-4.992-.304-10.03.016-15.019.304-4.739 4.339-7.021 10.057-6.167 3.785.565 5.961 4.092 5.441 8.474-.189 1.597-1.107 1.51-2.211 1.536-1.105.026-1.899-.176-1.828-1.539.044-.849.026-1.709-.06-2.555-.208-2.032-1.344-2.97-3.424-2.959-1.985.01-3.457.696-3.582 2.791-.158 2.653-.039 5.323-.039 7.985a1.094 1.094 0 0 0-.081 0Z" fill="#097E8B"/>
  <path d="M445.599 126.672c0 2.128-.107 4.263.029 6.383.147 2.304.949 4.161 3.781 4.198 2.942.038 3.501-1.835 3.593-4.194.062-1.6-.437-3.561 2.45-3.183 1.241.163 1.535.531 1.624 1.711.377 5.019-1.949 8.29-6.313 8.67-5.739.501-8.777-1.755-9.265-7.112-.425-4.666-.474-9.36.071-14.02.588-5.034 3.903-7.146 9.786-6.437 3.892.469 6.244 4.089 5.726 8.519-.156 1.339-.761 1.545-1.86 1.509-1.088-.036-2.224.126-2.157-1.532.03-.741-.038-1.489-.106-2.23-.172-1.885-.845-3.198-3.089-3.299-2.312-.104-3.863.779-4.058 3.054-.226 2.636-.052 5.306-.052 7.962l-.16.001Z" fill="#087E8B"/>
  <path d="M52.23 112.76c-1.924-.083-3.858.083-5.772-.042-1.768-.114-2.173.666-2.142 2.257.083 3.733.03 7.467.03 11.19 0 3.733.043 7.467-.02 11.2-.031 1.643-.01 2.818 2.277 2.787 2.142-.031 2.132-1.134 2.1-2.631-.051-2.132.136-4.285-.051-6.396-.24-2.693.322-3.962 3.515-3.817 4.68.218 7.248-2.527 7.269-6.988.02-4.783-2.391-7.342-7.206-7.56Zm2.412 10.441c-1.05 1.674-3.161 1.945-4.596 1.342-3.057-1.3-.728-4.233-1.29-6.375-.25-.905-.634-2.517 1.373-2.475.322.01.645 0 1.747 0 .738-.01 2.423-.031 3.026 1.653.697 1.913.884 4.024-.26 5.855Z" fill="#0B808C"/>
  <path d="M358.366 112.651c4.21-.027 6.498 1.671 7.288 5.205.294 1.317.023 2.028-1.316 2.332-1.22.277-2.016.15-2.269-1.347-.307-1.809-1.203-3.165-3.361-3.169-1.357-.003-2.576.205-3.305 1.483-.793 1.391-.522 2.809.528 3.822 1.833 1.769 3.886 3.31 5.803 4.996 1.034.908 2.12 1.812 2.934 2.903 1.914 2.564 2.578 5.363.853 8.325-1.476 2.535-4.893 3.718-8.506 2.937-3.177-.687-4.866-2.797-5.6-5.872-.304-1.271-.157-2.089 1.259-2.339 1.181-.208 2.363-.509 2.491 1.34.042.611.349 1.234.644 1.794 1.144 2.168 3.029 2.788 5.11 1.742 2.222-1.116 1.949-3.189.929-4.968-1.41-2.458-3.982-3.802-6.067-5.605-1.208-1.044-2.62-1.903-3.445-3.286-1.401-2.347-1.653-4.891-.264-7.296 1.356-2.345 3.646-3.14 6.294-2.997Z" fill="#097E8B"/>
  <path d="M303.654 126.276c.001-3.831.047-7.664-.022-11.494-.027-1.475.42-2.12 1.994-2.064 2.665.095 5.337.046 8.005.02.99-.01 1.605.215 1.644 1.385.042 1.275-.51 1.619-1.711 1.66-1.78.061-4.131-.846-5.203.434-1.229 1.467-.196 3.885-.456 5.862-.294 2.234.76 2.838 2.748 2.59.525-.066 1.066.001 1.6-.009.916-.017 1.662.053 1.683 1.305.02 1.162-.515 1.344-1.536 1.451-4.479.472-4.475.511-4.475 4.892 0 .319.046.646-.007.957-.532 3.102.517 4.626 3.881 4 .721-.134 1.491-.004 2.238-.013.877-.011 1.427.316 1.458 1.273.033 1.037-.375 1.568-1.493 1.556-2.882-.032-5.766-.066-8.646.014-1.837.051-1.709-1.125-1.707-2.324.009-3.832.005-7.663.005-11.495Z" fill="#0D818D"/>
  <path d="M462.819 126.184c0-3.73.054-7.461-.026-11.189-.033-1.541.257-2.369 2.074-2.277 2.666.135 5.343.051 8.015.029.983-.008 1.625.22 1.668 1.383.048 1.291-.57 1.596-1.746 1.647-1.779.076-4.147-.857-5.193.448-1.187 1.482-.178 3.899-.434 5.882-.289 2.247.779 2.818 2.753 2.569.526-.066 1.068.005 1.602-.007.936-.022 1.641.102 1.664 1.336.023 1.222-.622 1.305-1.591 1.402-4.408.443-4.405.474-4.405 4.964 0 .426.062.863-.01 1.277-.503 2.904.656 4.13 3.599 3.612.207-.036.441-.054.638.003 1.144.332 3.189-.946 3.209 1.389.021 2.36-2.036 1.353-3.173 1.363-2.753.025-6.296 1.19-8.053-.436-1.791-1.658-.438-5.232-.577-7.962-.09-1.806-.015-3.622-.014-5.433Z" fill="#097F8C"/>
  <path d="M177.087 126.137c.001-3.732.061-7.464-.028-11.194-.038-1.604.383-2.32 2.137-2.226 2.452.131 4.917.02 7.377.039 1.021.008 2.195-.291 2.237 1.43.04 1.661-1.004 1.522-2.109 1.576-5.287.254-5.153.273-5.307 5.763-.07 2.511.641 3.551 3.196 3.162.726-.111 1.524-.089 2.229.097.805.212.607 1.022.571 1.624-.082 1.375-1.23 1.064-1.93.943-3.488-.607-4.546.98-4.011 4.163.035.207.005.426.005.639 0 4.922 0 4.908 5.001 5.116.967.04 2.295-.432 2.365 1.301.08 1.988-1.42 1.511-2.472 1.479-2.967-.092-6.737 1.232-8.675-.515-1.828-1.648-.429-5.435-.57-8.277-.085-1.705-.016-3.414-.016-5.12Z" fill="#0A7F8C"/>
  <path d="M64.144 126.416c0-3.831.062-7.664-.03-11.493-.038-1.641.472-2.287 2.179-2.208 2.556.118 5.123.056 7.684.023 1.105-.014 1.82.185 1.81 1.545-.01 1.406-.835 1.41-1.874 1.487-5.492.409-5.317.436-5.512 5.868-.098 2.727.966 3.246 3.319 3.075 1.032-.075 2.844-.813 2.688 1.482-.138 2.023-1.793 1.236-2.682 1.13-2.718-.325-3.727.704-3.257 3.334.037.206.005.425.005.638-.005 5.547-.005 5.555 5.416 5.945.967.07 1.974-.065 2.004 1.383.029 1.413-.871 1.461-1.905 1.455-2.562-.017-5.128-.091-7.684.025-1.694.077-2.231-.54-2.191-2.196.094-3.829.03-7.662.03-11.493Z" fill="#0C808D"/>
  <path d="M403.642 126.106c0-3.732.066-7.467-.03-11.197-.043-1.659.494-2.272 2.19-2.189 2.454.121 4.919.039 7.379.027 1.113-.005 2.146-.081 2.1 1.58-.04 1.455-.931 1.365-1.933 1.433-5.795.395-5.722.409-5.684 6.351.012 1.862.402 2.858 2.473 2.571.734-.102 1.495.002 2.244-.012 1.026-.02 1.584.335 1.541 1.489-.039 1.035-.617 1.172-1.451 1.231-1.473.103-3.42-.68-4.31.36-1.164 1.36-.42 3.47-.429 5.248-.025 4.782-.599 4.203 4.256 4.258.642.007 1.284.02 1.925.005.889-.021 1.374.291 1.4 1.279.028 1.068-.334 1.554-1.459 1.538-2.888-.04-5.777-.06-8.664.003-1.674.036-1.549-1.056-1.549-2.138.002-3.946.001-7.892.001-11.837Z" fill="#097E8B"/>
  <path d="M253.341 126.195c0-3.622.079-7.246-.033-10.865-.057-1.834.316-2.774 2.437-2.621 2.445.176 4.912.056 7.37.035 1.059-.009 1.88.095 1.885 1.491.004 1.375-.784 1.448-1.853 1.534-5.819.471-5.719.496-5.768 6.228-.017 2.064.51 2.994 2.66 2.682.628-.091 1.28-.004 1.921-.012.95-.012 1.651.172 1.665 1.377.014 1.245-.745 1.26-1.662 1.355-4.534.473-4.532.493-4.532 5.16 0 .639.081 1.291-.014 1.915-.346 2.271.632 3.075 2.843 2.803 1.052-.129 2.134-.005 3.202-.011 1.008-.006 1.585.335 1.566 1.483-.02 1.235-.773 1.344-1.701 1.32a3.792 3.792 0 0 0-.32.002c-9.665.597-9.665.597-9.665-9.082-.002-1.598-.002-3.196-.001-4.794Z" fill="#097F8C"/>
  <path d="M273.422 127.979c0-3.085-.148-6.179.048-9.252.147-2.302-.408-3.339-2.925-3.028-1.044.129-2.79.761-2.79-1.449 0-2.207 1.704-1.452 2.796-1.478 3.413-.081 6.828-.016 10.243-.036 1.159-.007 2.148.043 2.088 1.63-.054 1.432-1.034 1.547-1.995 1.362-3.242-.624-3.321 1.248-3.276 3.657.112 6.062.01 12.127.055 18.19.012 1.573-.145 2.541-2.187 2.573-2.173.034-2.092-1.115-2.071-2.596.045-3.19.014-6.382.014-9.573Z" fill="#0D818D"/>
  <path d="M290.012 127.842c0-3.093-.137-6.194.046-9.276.132-2.221-.543-3.096-2.828-2.858-1.131.118-2.803.573-2.686-1.601.104-1.945 1.628-1.315 2.658-1.334 3.529-.064 7.06-.011 10.59-.032 1.068-.006 1.873.112 1.876 1.503.002 1.385-.808 1.677-1.861 1.485-3.335-.608-3.814 1.036-3.708 3.917.215 5.858.058 11.73.068 17.596.003 1.508.275 2.914-2.154 2.898-2.572-.016-1.968-1.652-1.987-3.02-.043-3.091-.014-6.185-.014-9.278Z" fill="#0A7F8C"/>
  <path d="M392.73 126.417c0-3.718.034-7.437-.017-11.155-.021-1.523.005-2.616 2.121-2.575 1.918.038 1.977.985 1.971 2.401-.032 7.543-.03 15.086-.001 22.629.005 1.399-.019 2.378-1.955 2.415-2.099.041-2.16-1.02-2.137-2.56.056-3.717.018-7.436.018-11.155Z" fill="#087E8B"/>
  <path d="M209.788 122.067c1.491.002 2.983-.001 4.474.003.899.002 1.33.405 1.329 1.355-.001.93-.372 1.382-1.303 1.382-2.983 0-5.965-.006-8.948.01-.956.005-1.291-.452-1.296-1.371-.005-.91.308-1.395 1.269-1.385 1.492.014 2.984.004 4.475.006Z" fill="#0F818E"/>
  <path d="M209.928 130.671c-1.491.001-2.983-.01-4.474.005-.861.009-1.384-.234-1.41-1.239-.028-1.091.394-1.515 1.485-1.5 2.875.039 5.752.019 8.628.014.849-.002 1.39.229 1.431 1.238.046 1.129-.449 1.514-1.506 1.488-1.384-.032-2.769-.007-4.154-.006Z" fill="#0B808C"/>
  <path d="M264.509 34.464c0 8.839.083 17.689-.042 26.528-.042 2.267.385 3.276 2.932 3.078 2.298-.166 5.574-.863 5.48 2.922-.094 3.775-3.421 2.704-5.678 2.745-9.38.187-8.517.198-8.496-8.455.01-5.002 0-10.014 0-15.027 0-6.385.083-12.781-.031-19.176-.052-2.964 1.04-4.368 4.108-4.232 2.454.125 4.908.03 7.373.042 1.83 0 2.818.967 2.787 2.745-.021 1.768-.998 2.6-2.839 2.725-5.594.406-5.594.458-5.594 6.105ZM308.903 65.506c-.021 3.62-.666 4.222-4.368 4.253-2.236.021-4.482.01-6.728 0-1.862 0-3.172-.832-3.182-2.766-.021-2.08 1.3-2.912 3.328-3.005 5.075-.229 5.075-.28 5.075-5.252 0-9.058-.104-18.116.062-27.163.052-2.724-.811-3.64-3.411-3.255-.842.125-1.716.062-2.569-.01-1.653-.135-2.496-1.175-2.496-2.745 0-1.445.853-2.537 2.309-2.589 3.203-.125 6.416-.177 9.599.021 1.997.135 2.402 1.768 2.392 3.536-.021 6.603-.01 13.207 0 19.81 0 6.384.021 12.78-.011 19.165Z" fill="#FEFEFE"/>
  <path d="M272.881 66.993c-.094 3.775-3.421 2.704-5.678 2.745-9.38.187-8.517.198-8.496-8.455.01-5.002 0-10.014 0-15.027 0-6.385.083-12.781-.031-19.176-.052-2.964 1.04-4.368 4.108-4.232 2.454.125 4.908.03 7.373.042 1.83 0 2.818.967 2.787 2.745-.021 1.768-.998 2.6-2.839 2.725-5.595.405-5.595.458-5.595 6.104 0 8.839.083 17.689-.042 26.528-.042 2.267.385 3.276 2.932 3.078 2.298-.166 5.574-.862 5.481 2.923ZM308.903 65.506c-.021 3.62-.666 4.222-4.368 4.253-2.236.021-4.482.01-6.728 0-1.862 0-3.172-.832-3.182-2.766-.021-2.08 1.3-2.912 3.328-3.005 5.075-.229 5.075-.28 5.075-5.252 0-9.058-.104-18.116.062-27.163.052-2.724-.811-3.64-3.411-3.255-.842.125-1.716.062-2.569-.01-1.653-.135-2.496-1.175-2.496-2.745 0-1.445.853-2.537 2.309-2.589 3.203-.125 6.416-.177 9.599.021 1.997.135 2.402 1.768 2.392 3.536-.021 6.603-.01 13.207 0 19.81 0 6.384.021 12.78-.011 19.165Z" fill="#E2533D"/>
</svg>
