<svg fill="none" xmlns="http://www.w3.org/2000/svg" viewBox="0 0 203 67">
  <path d="M87.428 17.074h13.328l-7.04-11.368-12.942 20.533h-5.886L90.63 1.604a3.751 3.751 0 0 1 6.122-.044l15.784 24.679h-5.885l-2.772-4.591H90.393l-2.938-4.574m61.154 4.574V.248h-5.003v23.507a2.408 2.408 0 0 0 .744 1.75 2.514 2.514 0 0 0 1.819.76h22.737l2.964-4.591h-23.288m-82.675-3.848a8.789 8.789 0 0 0 0-17.577H44.045v25.99h4.993V4.849h16.563a4.206 4.206 0 1 1 0 8.412H51.513L66.432 26.24h7.25L63.66 17.826h2.247ZM13.332 26.24h15.103a12.995 12.995 0 0 0 0-25.982H13.332a12.995 12.995 0 1 0 0 25.982Zm14.762-4.574h-14.43a8.413 8.413 0 0 1 0-16.816h14.43a8.412 8.412 0 1 1 0 16.816Zm94.874 4.574h15.418l2.92-4.574h-17.997a8.405 8.405 0 0 1-6.123-2.364 8.416 8.416 0 0 1 0-12.088 8.413 8.413 0 0 1 6.123-2.364h14.648l2.956-4.592h-17.945a12.992 12.992 0 0 0-12.31 7.94 12.983 12.983 0 0 0 0 10.102 12.998 12.998 0 0 0 12.31 7.94Zm61.101-4.574a8.413 8.413 0 0 1-8.097-6.121h21.355l2.938-4.583h-24.293a8.399 8.399 0 0 1 8.097-6.121h14.657l2.93-4.591h-17.928a12.995 12.995 0 0 0 0 25.981h15.418l2.929-4.573h-18.014" fill="#C74634"/>
  <path d="M11.143 60.342c-3.078 0-5.462-.94-7.153-2.822-1.672-1.9-2.508-4.598-2.508-8.094 0-2.184.39-4.056 1.169-5.614.798-1.558 1.928-2.755 3.391-3.591 1.463-.855 3.201-1.282 5.216-1.282.893 0 1.795.114 2.707.342.931.227 1.691.541 2.28.94v2.28c-.988-.437-1.853-.75-2.594-.94a8.92 8.92 0 0 0-2.223-.285c-2.28 0-4.056.712-5.329 2.137-1.273 1.406-1.91 3.41-1.91 6.014 0 2.755.627 4.873 1.881 6.355 1.273 1.482 3.06 2.223 5.358 2.223.893 0 1.786-.105 2.68-.314a17.697 17.697 0 0 0 2.878-.969v2.28c-.76.418-1.663.751-2.708.998a14.408 14.408 0 0 1-3.135.342ZM20.367 60V40.592l-1.482-.941v-1.055h4.047V60h-2.564Zm12.975.313c-2.242 0-3.98-.684-5.216-2.052-1.235-1.387-1.852-3.287-1.852-5.7 0-2.431.617-4.331 1.852-5.7 1.235-1.367 2.974-2.051 5.216-2.051 2.26 0 4.009.683 5.244 2.051 1.235 1.369 1.852 3.269 1.852 5.7 0 2.413-.617 4.313-1.852 5.7-1.235 1.368-2.983 2.052-5.244 2.052Zm0-2.108c1.463 0 2.574-.475 3.334-1.425.76-.97 1.14-2.376 1.14-4.218 0-1.843-.38-3.24-1.14-4.19-.76-.969-1.871-1.453-3.334-1.453-1.444 0-2.546.484-3.306 1.453-.76.95-1.14 2.346-1.14 4.19 0 1.843.38 3.248 1.14 4.218.76.95 1.862 1.425 3.306 1.425Zm15.477 2.108c-1.653 0-2.936-.513-3.848-1.538-.893-1.026-1.34-2.508-1.34-4.447v-9.205h2.566v9.12c0 1.273.275 2.252.826 2.935.551.684 1.359 1.027 2.423 1.027.893 0 1.729-.304 2.508-.913.798-.627 1.396-1.453 1.795-2.479v-9.69h2.565V60h-1.738l-.599-3.334 1.083-1.112c-.494 1.482-1.31 2.65-2.45 3.505a6.182 6.182 0 0 1-3.791 1.255Zm17.095 0c-1.957 0-3.496-.684-4.617-2.052-1.102-1.367-1.653-3.258-1.653-5.671 0-2.451.551-4.36 1.653-5.729 1.121-1.367 2.68-2.051 4.674-2.051.912 0 1.805.199 2.68.598.873.38 1.633.922 2.28 1.624v2.338c-.59-.817-1.264-1.435-2.024-1.853a5.061 5.061 0 0 0-2.48-.627c-1.33 0-2.356.484-3.078 1.453-.722.97-1.083 2.375-1.083 4.218 0 1.806.352 3.202 1.055 4.19.703.988 1.7 1.482 2.992 1.482.703 0 1.359-.142 1.967-.427a5.078 5.078 0 0 0 1.596-1.255 5.403 5.403 0 0 0 1.054-1.88l-.37 1.453V38.596h2.565V60h-1.739l-.57-3.192.485.257a6.276 6.276 0 0 1-2.28 2.394c-.95.57-1.986.854-3.107.854Z" fill="#fff"/>
</svg>
