<svg fill="none" xmlns="http://www.w3.org/2000/svg" viewBox="0 0 246 88">
  <mask id="a" fill="#fff">
    <rect width="77" height="69" rx="10.572"/>
  </mask>
  <rect width="77" height="69" rx="10.572" stroke="#F26222" stroke-width="26.43" mask="url(#a)"/>
  <path d="M102.984 12.519c-4.325 0-6.487 2.431-6.487 7.294v1.281c0 2.563.534 4.436 1.603 5.619 1.07 1.117 2.697 1.676 4.884 1.676h46.58c2.429 0 4.616.295 6.56.887 1.944.591 3.572 1.577 4.884 2.957 1.361 1.38 2.405 3.187 3.134 5.421.729 2.169 1.094 4.863 1.094 8.083v5.816c0 3.22-.365 5.947-1.094 8.181-.729 2.234-1.773 4.042-3.134 5.422-1.312 1.38-2.94 2.365-4.884 2.957-1.944.591-4.131.887-6.56.887h-62.47V56.481h61.085c2.235 0 3.863-.558 4.883-1.675 1.069-1.183 1.604-3.056 1.604-5.619v-1.281c0-2.563-.535-4.403-1.604-5.52-1.02-1.183-2.648-1.775-4.883-1.775h-46.58c-2.43 0-4.616-.295-6.56-.887-1.895-.591-3.523-1.577-4.884-2.957-1.312-1.38-2.333-3.154-3.062-5.323C86.365 29.21 86 26.483 86 23.263v-5.816c0-3.22.365-5.947 1.093-8.181.73-2.235 1.75-4.042 3.062-5.422 1.36-1.38 2.989-2.365 4.884-2.957C96.983.296 99.169 0 101.599 0h61.814v12.519h-60.429ZM190.887 46.722c0 3.154.746 5.586 2.238 7.294 1.551 1.643 3.758 2.465 6.622 2.465H246v12.518h-49.654c-5.966 0-10.53-1.741-13.692-5.224-3.103-3.549-4.654-8.576-4.654-15.081V0h13l-.113 46.722Z" fill="#F26222"/>
  <path d="M9.362 88c-2.802 0-5.064-.585-6.789-1.754C.858 85.07 0 83.54 0 81.658c0-2.006.876-3.617 2.628-4.833C4.38 75.608 6.729 75 9.676 75c2.756 0 4.978.588 6.666 1.763 1.697 1.17 2.545 2.708 2.545 4.614 0 2.018-.871 3.626-2.614 4.825C14.53 87.4 12.227 88 9.362 88Zm.04-1.868c1.844 0 3.299-.401 4.367-1.202 1.076-.807 1.614-1.933 1.614-3.377 0-1.486-.52-2.635-1.56-3.448-1.04-.819-2.468-1.228-4.284-1.228-1.815 0-3.275.427-4.38 1.28-1.103.849-1.655 1.969-1.655 3.36 0 1.404.543 2.524 1.628 3.36 1.086.836 2.51 1.255 4.27 1.255Zm16.657-2.72v4.377h-3.34V75.21h6.146c2.28 0 4.015.34 5.2 1.018 1.196.673 1.794 1.655 1.794 2.947 0 1.252-.676 2.272-2.026 3.062-1.341.784-3.148 1.175-5.42 1.175H26.06Zm0-6.456v4.728h2.08c1.387 0 2.437-.207 3.148-.623.721-.415 1.081-1.014 1.081-1.798 0-.772-.342-1.348-1.026-1.728-.675-.386-1.692-.579-3.052-.579h-2.231ZM50.517 87.79H39.444V75.21h10.621v1.808h-7.281v3.508h6.76v1.799h-6.76v3.657h7.733v1.808Zm20.461 0h-3.627l-9.115-8.992a12.45 12.45 0 0 1-.48-.5 8.992 8.992 0 0 1-.328-.412h-.068c.036.175.064.421.082.737.018.31.027.69.027 1.14v8.026h-3.216V75.21h3.86L66.94 84c.192.187.36.36.507.517.155.153.283.293.383.422h.055a3.696 3.696 0 0 1-.096-.702 18.461 18.461 0 0 1-.027-1.097v-7.93h3.216v12.58Zm11.237-.922 1.491-1.649c.885.363 1.711.617 2.478.764.775.146 1.628.219 2.559.219 1.122 0 2.003-.155 2.641-.465.648-.31.972-.752.972-1.325 0-.526-.269-.938-.807-1.237-.53-.304-1.437-.581-2.724-.833-2.016-.38-3.495-.85-4.434-1.412-.94-.562-1.41-1.325-1.41-2.29 0-1.046.607-1.915 1.82-2.605 1.223-.69 2.884-1.035 4.982-1.035.922 0 1.83.067 2.724.202.894.134 1.77.342 2.627.623l-1.286 1.692a13.067 13.067 0 0 0-2.149-.552 12.963 12.963 0 0 0-2.08-.167c-1.031 0-1.843.144-2.436.43-.593.287-.89.693-.89 1.22 0 .467.27.836.808 1.105.547.269 1.482.529 2.805.78 2.053.386 3.527.875 4.421 1.465.903.585 1.355 1.395 1.355 2.43 0 1.1-.616 2.003-1.848 2.71-1.222.708-2.97 1.062-5.242 1.062-1.14 0-2.253-.094-3.34-.28a15.912 15.912 0 0 1-3.037-.852ZM107.548 88c-2.801 0-5.064-.585-6.788-1.754-1.716-1.176-2.573-2.705-2.573-4.588 0-2.006.876-3.617 2.628-4.833 1.751-1.217 4.101-1.825 7.048-1.825 2.756 0 4.977.588 6.665 1.763 1.697 1.17 2.546 2.708 2.546 4.614 0 2.018-.871 3.626-2.614 4.825C112.717 87.4 110.413 88 107.548 88Zm.041-1.868c1.843 0 3.299-.401 4.366-1.202 1.077-.807 1.615-1.933 1.615-3.377 0-1.486-.52-2.635-1.56-3.448-1.04-.819-2.468-1.228-4.284-1.228-1.816 0-3.275.427-4.38 1.28-1.104.849-1.656 1.969-1.656 3.36 0 1.404.543 2.524 1.629 3.36 1.086.836 2.509 1.255 4.27 1.255Zm28.482-3.606c0 1.825-.657 3.193-1.971 4.106-1.305.912-3.262 1.368-5.872 1.368-2.518 0-4.407-.442-5.666-1.325-1.259-.883-1.888-2.213-1.888-3.99V75.21h3.339v7.457c0 1.152.37 2.017 1.109 2.596.739.58 1.843.869 3.312.869 1.432 0 2.504-.278 3.216-.834.721-.561 1.081-1.4 1.081-2.517v-7.57h3.34v7.315Zm19.777 5.264h-3.832l-2.998-3.343c-.53-.584-1.013-.988-1.45-1.21-.439-.222-.954-.342-1.548-.36h-1.738v4.913h-3.325V75.21h6.419c2.034 0 3.631.293 4.79.878 1.169.585 1.752 1.456 1.752 2.614 0 .865-.375 1.6-1.123 2.201-.739.603-1.756 1.044-3.051 1.325v.035c.492.135.939.342 1.341.623.411.275.789.605 1.135.991l3.628 3.913Zm-11.566-10.86v4.22h2.533c1.05 0 1.912-.211 2.587-.633.674-.426 1.012-.964 1.012-1.614 0-.625-.301-1.11-.903-1.456-.602-.345-1.482-.517-2.641-.517h-2.588Zm28.304 10.202c-.986.31-1.953.532-2.902.666-.939.135-1.956.202-3.052.202-3.001 0-5.355-.561-7.062-1.684-1.697-1.123-2.545-2.661-2.545-4.614 0-1.989.935-3.603 2.806-4.842 1.879-1.24 4.343-1.86 7.39-1.86.995 0 1.907.056 2.738.167.83.105 1.674.272 2.531.5l-1.094 1.745a13.623 13.623 0 0 0-2.013-.412 17.155 17.155 0 0 0-2.12-.123c-1.962 0-3.577.418-4.845 1.255-1.26.836-1.889 1.976-1.889 3.42 0 1.416.578 2.53 1.737 3.343 1.169.813 2.743 1.219 4.722 1.219.657 0 1.351-.053 2.081-.158.73-.111 1.477-.29 2.244-.535l1.273 1.71Zm14.576.657h-11.073V75.21h10.622v1.808h-7.282v3.508h6.762v1.799h-6.762v3.657h7.733v1.808Zm23.539 0h-12.083V75.21h3.34v10.773h8.743v1.806Zm.563 0 7.349-12.579h3.765l7.281 12.58h-3.654l-1.671-3.01h-7.814l-1.615 3.01h-3.641Zm6.105-4.754h6.089l-2.695-4.965a3.552 3.552 0 0 1-.165-.386 5.512 5.512 0 0 1-.136-.491h-.083c-.045.175-.095.33-.15.465a2.316 2.316 0 0 1-.178.395l-2.682 4.982Zm15.247 4.755V75.21h6.35c1.942 0 3.453.264 4.53.79 1.076.52 1.615 1.246 1.615 2.175 0 .696-.311 1.302-.932 1.816-.611.515-1.422.877-2.435 1.088v.035c1.286.1 2.318.421 3.093.965.776.538 1.163 1.216 1.163 2.035 0 1.111-.625 2.003-1.875 2.675-1.241.667-2.873 1-4.9 1h-6.609Zm3.338-10.878v3.58h2.15c1.085 0 1.938-.168 2.559-.5.629-.34.945-.81.945-1.413 0-.561-.293-.98-.876-1.254-.585-.275-1.456-.413-2.615-.413h-2.163Zm0 5.281v3.895h2.765c1.186 0 2.112-.179 2.778-.535.667-.363.999-.854.999-1.474 0-.614-.342-1.082-1.026-1.404-.684-.321-1.679-.482-2.983-.482h-2.533Z" fill="#000"/>
</svg>
