<svg fill="none" xmlns="http://www.w3.org/2000/svg" viewBox="0 0 299 48">
  <g clip-path="url(#a)" fill="#000E9C">
    <path fill-rule="evenodd" clip-rule="evenodd" d="M73.14 2.69a40.1 40.1 0 0 1-3.74 44.49H47.96l6.6-11.67h-8.73l10.29-18.13h8.78l8.24-14.67v-.02ZM30.8 47.18H8.94A39.59 39.59 0 0 1 5.15 2.59l14.18 24.63L34.96 0h23L30.81 47.16l-.01.02Z"/>
    <path d="M91.21 25.28c0-12.59 6.27-18.64 16.57-18.64s16.56 6.05 16.56 18.64-6.31 18.57-16.56 18.57-16.57-6.1-16.57-18.57Zm3.72 0c0 10.35 4.72 15.28 12.85 15.28 8.13 0 12.84-4.93 12.84-15.28S115.9 9.93 107.78 9.93c-8.12 0-12.85 4.94-12.85 15.35ZM151.41 8.13a1.826 1.826 0 0 1 2.393-1.035 1.788 1.788 0 0 1 1.107 1.675c-.009.27-.063.537-.16.79l-12.42 32.75a1.777 1.777 0 0 1-1.695 1.236 1.78 1.78 0 0 1-1.695-1.236L126.52 9.56a2.429 2.429 0 0 1-.16-.79 1.79 1.79 0 0 1 1.8-1.81 1.82 1.82 0 0 1 1.7 1.17l10.77 28.56 10.78-28.56ZM162.45 26.44v15.29a1.807 1.807 0 0 1-1.081 1.794 1.814 1.814 0 0 1-2.051-.428 1.81 1.81 0 0 1-.478-1.366v-33a1.81 1.81 0 1 1 3.61 0v14.42h18.48V8.77a1.81 1.81 0 1 1 3.61 0v33a1.807 1.807 0 0 1-1.081 1.793 1.814 1.814 0 0 1-2.051-.427 1.81 1.81 0 0 1-.478-1.366V26.44h-18.48ZM201.58 18.27a9.997 9.997 0 0 1 8.17 3.66c.237.28.368.634.37 1a1.51 1.51 0 0 1-1.54 1.54 1.562 1.562 0 0 1-1.27-.64 6.802 6.802 0 0 0-5.73-2.45c-4.89 0-7.49 3.13-7.49 9.66s2.6 9.71 7.49 9.71a9.68 9.68 0 0 0 6.15-2.28 1.541 1.541 0 0 1 2.54 1.17 1.631 1.631 0 0 1-.69 1.32 12.06 12.06 0 0 1-8 2.87c-6.85 0-10.94-4.09-10.94-12.79s4.09-12.77 10.94-12.77ZM218.51 7.01v30.37c0 2.12.69 3 2.12 3a1.603 1.603 0 0 1 1.592.954 1.591 1.591 0 0 1 0 1.282 1.594 1.594 0 0 1-.942.87 1.6 1.6 0 0 1-.65.084c-3.55 0-5.52-2.13-5.52-6.21V7.01a1.739 1.739 0 0 1 1.7-1.69 1.702 1.702 0 0 1 1.7 1.69ZM247.44 31.01c0 8.7-4.25 12.79-11.15 12.79s-11.14-4.09-11.14-12.79 4.3-12.74 11.14-12.74c6.84 0 11.15 4.03 11.15 12.74Zm-3.45 0c0-6.69-2.81-9.66-7.7-9.66-4.89 0-7.69 3-7.69 9.66s2.81 9.71 7.69 9.71c4.88 0 7.74-2.92 7.74-9.71h-.04ZM255.62 20.29v13.85c0 3.45 1.11 6.42 6.47 6.42 5.36 0 6.48-3 6.48-6.42V20.29a1.719 1.719 0 0 1 1.75-1.7 1.67 1.67 0 0 1 1.65 1.7v13.85c0 5-1.65 9.66-9.88 9.66s-9.87-4.62-9.87-9.66V20.29a1.67 1.67 0 0 1 1.7-1.7 1.71 1.71 0 0 1 1.7 1.7ZM294.63 21.72V7.01a1.7 1.7 0 1 1 3.4 0v26.37c0 7-4.35 10.46-10.4 10.46-6.85 0-10.89-4.09-10.89-12.79s3.83-12.74 10.67-12.74a8.999 8.999 0 0 1 7.22 3.41Zm0 4.3s-2-4.67-7-4.67-7.49 3.13-7.49 9.66 2.6 9.71 7.49 9.71c4.08 0 7-2.33 7-7.38v-7.32Z"/>
  </g>
  <defs>
    <clipPath id="a">
      <path fill="#fff" d="M0 0h298.03v47.18H0z"/>
    </clipPath>
  </defs>
</svg>
