<svg fill="none" xmlns="http://www.w3.org/2000/svg" viewBox="0 0 324 38">
  <path d="M82.7 9.1H15.1V11h67.6V9.1Z" fill="#fff"/>
  <path d="M54.7 31.6v-1.9H57c2 0 4.8 0 6-.1 1.4-.2 2.7-.8 3.7-1.7 1.5-1.3 2.4-3.3 2.3-5.3V17c0-4.2 3.5-7.7 7.7-7.7h5.9v1.9h-5.8c-3.2 0-5.8 2.6-5.8 5.8v5.6c.1 2.6-1 5-2.9 6.7-1.3 1.3-3 2.1-4.8 2.3-1.3.1-4 .1-6.2.1l-2.4-.1ZM42.5 31.6h-1.7c-1.4 0-2.8 0-4.2-.1-1.8-.2-3.5-1-4.8-2.3-1.9-1.7-3-4.2-2.9-6.7v-5.6c0-3.2-2.6-5.8-5.8-5.8h-8V9.2h8c4.2 0 7.6 3.4 7.7 7.6v5.6c0 2 .8 4 2.3 5.3 1 1 2.3 1.6 3.7 1.7 1.3.1 2.7.2 4 .1h1.7v2.1Z" fill="#fff"/>
  <path d="M48.8 36.9c-3.5 0-6.4-2.8-6.4-6.2v-.1c0-3.5 2.8-6.3 6.2-6.3h.2c3.5 0 6.3 2.8 6.3 6.3.1 3.4-2.8 6.2-6.3 6.3Z" fill="#99C941"/>
  <path d="M89.1 3.6c3.5 0 6.3 2.8 6.2 6.3 0 3.5-2.9 6.3-6.4 6.3-3.5 0-6.3-2.8-6.3-6.3-.1-3.4 2.7-6.2 6.1-6.3h.4Z" fill="#452391"/>
  <path d="M8.3 3c3.8 0 6.9 3.1 6.9 6.8-.1 3.8-3.1 6.8-6.9 6.9-3.8.1-7-2.8-7.1-6.6v-.2c0-3.8 3.1-6.8 6.9-6.9h.2Z" fill="#973896"/>
  <path d="M48.8 37.7c-4-.2-7-3.6-6.8-7.6.2-3.7 3.1-6.6 6.8-6.8 1.9 0 3.7.8 5 2.2 1.4 1.3 2.1 3.1 2.2 5-.1 3.9-3.3 7.1-7.2 7.2Zm0-12.7c-3 0-5.5 2.4-5.5 5.4 0 1.5.6 2.9 1.6 3.9s2.4 1.6 3.9 1.6c3 0 5.5-2.5 5.5-5.5 0-1.4-.5-2.8-1.6-3.9-1-.9-2.4-1.5-3.9-1.5ZM89 17.1c-1.9 0-3.7-.7-5.1-2.1-1.3-1.4-2.1-3.2-2.1-5.1 0-3.9 3.2-7.1 7.1-7.1h.1c3.9 0 7.1 3.2 7.2 7.1-.1 3.9-3.3 7.1-7.2 7.2Zm0-12.7c-3 0-5.5 2.5-5.5 5.5 0 1.5.6 2.9 1.6 3.9s2.4 1.6 3.9 1.6c3 0 5.5-2.5 5.5-5.5S92 4.4 89 4.4ZM8.1 17.6c-2.1 0-4-.8-5.5-2.3C1.1 13.8.3 11.8.3 9.7.3 5.5 3.7 2.1 8 2h.1c2 0 4 .8 5.4 2.3 1.5 1.4 2.3 3.4 2.3 5.4 0 4.4-3.4 7.9-7.7 7.9Zm0-13.7c-3.3 0-6 2.7-6 6 0 1.6.6 3.2 1.8 4.4C5 15.4 6.6 16.1 8.2 16c3.4 0 6.1-2.8 6.1-6.1s-2.7-6-6-6.1l-.2.1ZM124.3 26.2c-1.9.6-3.8 1.4-5.5 2.4h1.5c1.9-1.1 4-2.1 6.2-2.7h.7l-2.9.3Z" fill="#fff"/>
  <path d="M115.3 31.6c2.5-1.7 5.4-2.7 8.4-2.9 5.3 0 10.2 8 16.5 8 4.5 0 8.5-3 9.7-7.4l-.2-.1c-1.7 3-4.9 4.8-8.4 4.6-6.6 0-8.8-6.5-17.5-6.5-3.4 0-6.5 1.6-8.5 4.3ZM133.5 21.7l.2-.2c1.8-2.3 2.7-5.2 2.7-8.1 0-.7-.1-1.3-.2-2-.2-1.7-.8-3.3-1.6-4.8v.1c-2-3.7-5.8-6.1-10-6.2h-.6c-4.2.2-8 2.5-10 6.2v-.1c-.9 1.6-1.5 3.3-1.7 5.1 0 .6 0 1.1-.1 1.7-.2 6.8 5.2 12.5 12 12.8 3.6-.1 7-1.7 9.2-4.6l.1.1ZM123.1 2.2h2.8c5.1.9 7.1 6.6 7.1 11.2.1 2.8-.7 5.6-2.3 8l-.1.2c-1.4 1.9-3.7 3-6.1 3h-2c-.8-.2-1.6-.6-2.3-1.1-3-2.5-4.6-6.2-4.4-10.1 0-4.6 2-10.2 7.1-11.1l.2-.1ZM155.7 24.7c0 .2-.2.3-.6.3h-3.6c-.3 0-.5-.2-.6-.4l-.6-1.3c0-.2-.2-.2-.4 0a5.46 5.46 0 0 1-4.6 2.1c-1.4.1-2.7-.5-3.7-1.5-1-1.2-1.5-2.7-1.4-4.2v-7.3c.1-.8-.4-1.4-1.2-1.6l-.8-.2c-.4-.1-.6-.3-.6-.4 0-.1.2-.3.6-.3h5c.3 0 .5 0 .5.2s-.2.2-.5.5c-.4.6-.5 1.4-.4 2.1v7.5c-.2 1.6.9 3 2.5 3.3.3.1.6.1.8 0 .9 0 1.8-.3 2.5-.8.8-.4 1.4-1.2 1.4-2.1v-8.2c.1-.8-.4-1.5-1.2-1.6l-.8-.2c-.4-.1-.6-.3-.6-.4 0-.1.2-.3.7-.3h4.2c.3 0 .5.2.5.4l-.1 2.3v9.8c-.1.8.4 1.5 1.2 1.6l1 .2c.6.2.8.3.8.5ZM171.4 24.7c0 .2-.2.3-.6.3h-3.6c-.3 0-.5-.1-.6-.4l-.3-.5c0-.1-.1-.2-.2-.2-.2 0-.3.1-.5.2-1.3.9-2.9 1.4-4.6 1.3-1.1 0-2.2-.3-3.1-1-.9-.7-1.3-1.8-1.3-2.9-.1-1.6.9-3.1 2.5-3.7.7-.3 1.5-.5 2.3-.7 1.3-.3 2.3-.5 2.6-.6 1.3-.4 1.9-1 1.9-1.8v-1.4c0-.8-.4-1.5-1.2-1.9-.7-.3-1.4-.5-2.1-.5-1.1-.1-2.1.2-2.9.9-.8.8-1.2 1.8-1.4 2.9 0 .1-.1.2-.2.2s-.2-.1-.2-.2v-4.4c0-.2 0-.3.4-.3l2.3-.2c.8-.1 1.5-.2 2.3-.2 1.5-.1 3 .3 4.2 1.1 1.1 1.1 1.7 2.7 1.6 4.3v7.6c0 .9.4 1.5 1.1 1.6l1.1.2c.3 0 .5.1.5.3Zm-5.3-3.4v-3.6c0-.3-.1-.4-.4-.3l-4.6 1.4c-1 .2-1.8 1.1-1.8 2.1 0 2.1.9 3.1 2.8 3.1 1 0 2-.2 2.9-.8.7-.4 1.1-1.1 1.1-1.9ZM189 24.7c0 .2-.2.3-.6.3h-4.9c-.3 0-.5 0-.5-.3l.5-.5c.4-.6.5-1.4.4-2.1v-7.5c0-2.2-1.1-3.2-3.3-3.2-.9 0-1.7.3-2.5.8-.8.4-1.4 1.2-1.4 2.1v8.2c-.1.8.4 1.5 1.2 1.6l.8.2c.4.1.6.2.6.4s-.3.3-.7.3h-6.4c-.4 0-.6 0-.6-.3s.2-.3.6-.4l.8-.2c.7-.2 1.2-.9 1.1-1.6V12.4c0-.9-.4-1.5-1.2-1.6l-1.5-.2c-.4 0-.6-.2-.6-.4s.2-.3.6-.3h4.1c.3 0 .5.2.6.4l.6 1.3c0 .2.2.2.4 0 1.1-1.4 2.8-2.1 4.6-2 1.4-.1 2.8.5 3.7 1.5 1 1.2 1.5 2.7 1.4 4.2v7.2c-.1.8.4 1.5 1.2 1.6l.8.2c.1.1.2.2.2.4ZM201.7 20.8c0 3-1.9 4.6-5.6 4.6-1.7 0-3.4-.3-5.1-.7-.3 0-.5-.4-.6-1v-1.3c0-.6 0-1.3-.2-1.9 0-.3 0-.4.2-.4s.3.1.4.4c.3 1.2 1.1 2.3 2.1 3 1.1.5 2.3.8 3.5.7.7 0 1.4-.2 2-.6.6-.4 1-1 1.1-1.8 0-1-.8-1.9-2.3-2.5l-4.3-1.9c-1.4-.6-2.3-2-2.3-3.5 0-2.8 1.7-4.2 5-4.2 1.6 0 3.2.1 4.7.3.2 0 .3.1.4.3v3.6c0 .3 0 .4-.2.4s-.2-.1-.3-.3c-.3-1.1-.9-2-1.8-2.6-1-.4-2.1-.6-3.2-.6-1.9 0-2.8.7-2.8 2.2 0 .8.8 1.6 2.3 2.3l4.4 1.9c1.5.6 2.5 2 2.6 3.6ZM212 24.7c0 .2-.2.3-.6.3h-7.6c-.4 0-.6 0-.6-.3s.2-.3.6-.4l1.1-.2c.8-.1 1.2-.7 1.2-1.6V12.4c.1-.8-.4-1.5-1.2-1.6l-1.2-.2c-.4 0-.6-.2-.6-.4s.2-.3.6-.3h4.6c.4 0 .5.2.5.4l-.2 2.3v9.9c0 1 .4 1.5 1.2 1.6l1.5.2c.4 0 .7.2.7.4Zm-3.1-20.8c0 .5-.2 1-.6 1.4-.4.4-.9.6-1.4.6-.4 0-.8-.1-1.1-.4-.3-.3-.4-.6-.4-1 0-.5.2-1 .6-1.4.4-.4.9-.6 1.4-.6.7-.1 1.4.4 1.5 1.2v.2ZM228.9 11.1c0 .2-.1.4-.4.4l-3.9.1c1.8 2.2 1.5 5.4-.6 7.2-1.3 1-2.9 1.6-4.6 1.5h-1c-1.4 0-2.2.5-2.2 1.4 0 .9.5 1.2 1.5 1.2h4.3c1.4-.1 2.7.2 3.9.8 1 .8 1.6 2.1 1.5 3.4 0 2-1.2 3.7-3 4.4-1.7.8-3.6 1.3-5.6 1.2-1.4 0-2.8-.3-4-1-1.2-.7-1.9-2-1.9-3.5 0-1.6.8-3.1 2.3-3.8-.5-.4-.9-1.1-.9-1.7-.1-1.1.6-2.2 1.6-2.6.1 0 .2-.1.2-.2s0-.2-.2-.2c-1.9-.7-3.2-2.5-3.2-4.6 0-1.5.7-3 1.9-3.9 1.3-1 2.9-1.5 4.6-1.5 1.1 0 2.1.2 3.1.6l6-.2c.2 0 .4.1.4.3l.2.7Zm-3.6 16.4c0-.8-.3-1.5-.9-2-1-.5-2.1-.6-3.2-.6h-5.3c-.7.2-1.1 1-1.1 2.3 0 1.2.8 2.2 1.9 2.6 1.1.5 2.3.7 3.5.7 3.4 0 5.1-1 5.1-3Zm-2.1-12.2c0-2.9-1.4-4.4-4.1-4.4-1.7-.2-3.3.9-3.5 2.7v.9c-.1 1.2.3 2.3 1.1 3.2.8.9 1.9 1.3 3.1 1.2 1 .1 1.9-.3 2.6-1 .5-.7.8-1.7.8-2.6Z" fill="#fff"/>
  <path d="M245.8 24.7c0 .2-.2.3-.6.3h-5c-.3 0-.5 0-.5-.3l.5-.5c.4-.5.5-1.2.4-1.8v-7.7c0-2.2-1.1-3.2-3.4-3.2-.9 0-1.7.3-2.4.7-.8.4-1.3 1.2-1.4 2.1v8.3c-.1.8.4 1.5 1.2 1.6l.8.2c.4.1.6.2.6.4s-.2.3-.6.3h-6.5c-.4 0-.6 0-.6-.3s.2-.3.6-.4l.8-.2c.7-.2 1.2-.9 1.1-1.6V4.1c0-.9-.4-1.5-1.2-1.6l-1.5-.2c-.4 0-.6-.2-.6-.4s.2-.3.6-.3h4.9c.4 0 .5.2.5.4l-.1 2.3v7.2h.1c1.1-1.4 2.8-2.1 4.6-2 1.4-.1 2.8.4 3.8 1.5 1 1.2 1.5 2.7 1.4 4.2v7.2c-.1.8.4 1.5 1.2 1.6l.8.2c.3.3.5.4.5.5ZM256.3 24.1c.1.1.1.2 0 .3-.9.6-1.9.9-2.9.8-3 0-4.4-1.1-4.4-3.2V11.7h-2.8c-.2 0-.3-.1-.3-.2V10.3c0-.2 0-.4.3-.4h2.1c.4 0 .7-.3 1-.8l1.7-4c0-.2.2-.3.4-.3s.3.2.3.4v4.7h3.9c.2 0 .3.1.3.3v1.2c0 .2 0 .3-.3.3h-4.1v9.6c0 1.9.8 2.9 2.3 2.9.7 0 1.4-.1 2.1-.5.1-.1.2-.1.4 0v.4ZM279.4 19.3l-.9 5.3c0 .2-.3.4-.5.4h-14c-.4 0-.6 0-.6-.3s.2-.3.6-.4c.7-.2 1.2-.9 1.1-1.6V5.9c0-.9-.4-1.5-1.2-1.6l-1.5-.2c-.4 0-.6-.2-.6-.4s.2-.3.6-.3h8.1c.4 0 .6 0 .6.2s-.2.4-.6.4l-1.2.2c-.8.1-1.3.8-1.2 1.6v17c0 .4.3.6.8.6h4.6c1.4.1 2.7-.3 3.7-1.3.7-1 1.2-2.1 1.5-3.3 0-.3.2-.5.5-.5.2.2.3.5.2 1ZM294.9 24.7c0 .2-.2.3-.6.3h-3.6c-.3 0-.5-.2-.6-.4l-.3-.5c-.1-.2-.2-.2-.4-.2s-.3.1-.5.2c-1.3.9-2.9 1.4-4.6 1.3-1.1 0-2.2-.3-3.1-1-.9-.7-1.4-1.8-1.3-2.9-.1-1.6 1-3.1 2.5-3.7.7-.3 1.5-.5 2.3-.7 1.4-.3 2.3-.5 2.6-.6 1.3-.4 1.9-1 1.9-1.8v-1.4c0-.8-.4-1.5-1.1-1.9-.7-.3-1.4-.5-2.1-.5-1.1-.1-2.1.2-2.9.9-.8.8-1.2 1.8-1.4 2.9 0 .1-.1.2-.2.2s-.2 0-.2-.2v-4.3c0-.2 0-.3.4-.3l2.3-.2c.8-.1 1.5-.2 2.3-.2 1.5-.1 3 .3 4.3 1.1 1.1 1.1 1.7 2.7 1.5 4.3v7.6c0 .9.4 1.5 1.2 1.6l1.1.2c.3-.1.5 0 .5.2Zm-5.4-3.4v-3.6c0-.3-.1-.4-.4-.3l-4.7 1.4c-1 .2-1.8 1.1-1.8 2.1 0 2.1.9 3.1 2.8 3.1 1 0 2-.2 2.9-.8.7-.4 1.2-1.1 1.2-1.9ZM310 17.5c.1 2.1-.6 4.1-1.9 5.7-1.1 1.3-2.8 2.1-4.6 2.2-1 0-2-.1-3-.4-.5-.2-1.1-.3-1.6-.4-.4 0-.8.1-1.1.2l-.7.3c-.3 0-.4-.1-.4-.4 0-.1.1-.3.2-.4.1-.2.2-.5.2-.7V4.1c0-.9-.4-1.5-1.2-1.6l-1.5-.2c-.4 0-.6-.2-.6-.4s.2-.3.6-.3h4.9c.4 0 .5.2.5.4l-.1 2.3v6.8c0 .1 0 .2.1.2.1.1.2.1.2 0 1-1.1 2.4-1.8 3.8-1.8 1.6-.1 3.2.6 4.3 1.8 1.4 1.8 2.1 4 1.9 6.2Zm-2.7 0c0-4.1-1.4-6.2-4.1-6.2-1.4 0-2.7.8-3.4 2-.1.2-.2.5-.2.8v6.2c-.1 1 .2 2 .8 2.8.8.7 1.8 1 2.9.9 1.2 0 2.4-.7 2.9-1.7.8-1.5 1.2-3.1 1.1-4.8ZM323.4 20.8c0 3-1.9 4.6-5.6 4.6-1.7 0-3.4-.3-5.1-.7-.3 0-.5-.4-.6-1-.1-.4-.1-.9 0-1.3 0-.6 0-1.3-.2-1.9 0-.3 0-.4.2-.4s.4.1.4.4c.3 1.2 1.1 2.3 2.1 3 1.1.5 2.3.8 3.5.7.7 0 1.4-.2 2-.6.6-.4 1-1 1-1.8 0-1-.8-1.9-2.3-2.5l-4.3-1.9c-1.4-.6-2.3-2-2.3-3.5 0-2.8 1.7-4.2 5-4.2 1.6 0 3.3.2 4.9.4.2 0 .3.1.4.3V14c0 .3 0 .4-.2.4s-.2-.1-.3-.3c-.3-1.1-.9-2-1.8-2.6-1-.4-2.1-.6-3.2-.6-1.9 0-2.8.7-2.8 2.2 0 .8.8 1.6 2.3 2.3 2.7 1.2 4.2 1.8 4.4 1.9 1.5.6 2.4 2 2.5 3.5Z" fill="#fff"/>
</svg>
