<svg xmlns="http://www.w3.org/2000/svg" width="389" height="355" fill="none" viewBox="0 0 389 355"><path fill="#ffffff" d="M124.339 104.227L132.152 88.5471L153.645 100.519L146.818 114.201L124.339 104.227Z"/><path fill="#ffffff" d="M141.352 73.655L151.849 59.6357L170.845 75.2654L161.671 87.4995L141.352 73.655Z"/><path fill="#ffffff" d="M163.556 46.6275L176.399 34.7305L192.288 53.5061L181.079 63.905L163.556 46.6275Z"/><path fill="#ffffff" d="M190.253 24.018L205.031 14.6052L217.287 35.94L204.394 44.1543L190.253 24.018Z"/><path fill="#ffffff" d="M236.347 38.0378L249.727 32.6199L256.479 51.7325L244.822 56.4638L236.347 38.0378Z"/><path fill="#ffffff" d="M211.346 52.4206L223.516 44.6558L233.625 62.2454L223.004 69.0116L211.346 52.4206Z"/><path fill="#ffffff" d="M150.837 231.412L147.105 217.468L166.913 213.124L170.158 225.295L150.837 231.412Z"/><path fill="#ffffff" d="M144.659 203.235L143.486 188.867L163.755 188.13L164.779 200.701L144.659 203.235Z"/><path fill="#ffffff" d="M143.611 174.436L145.034 160.067L165.104 162.976L163.855 175.51L143.611 174.436Z"/><path fill="#ffffff" d="M147.754 145.874L151.76 131.992L170.969 138.483L167.474 150.605L147.754 145.874Z"/><path fill="#ffffff" d="M157.003 118.534L163.456 105.613L181.167 115.475L175.55 126.748L157.003 118.534Z"/><path fill="#ffffff" d="M249.84 67.1373L260.524 62.8054L265.916 78.0731L256.605 81.8432L249.84 67.1373Z"/><path fill="#ffffff" d="M189.342 71.0588L199.926 61.2466L213.032 76.714L203.783 85.2903L189.342 71.0588Z"/><path fill="#ffffff" d="M230.855 28.9374L220.583 6.57894L236.821 0L245.009 23.1948L230.855 28.9374Z"/><path fill="#ffffff" d="M229.869 78.6116L239.592 72.4197L247.667 86.4639L239.18 91.8694L229.869 78.6116Z"/><path fill="#ffffff" d="M212.307 93.4916L220.757 85.6643L231.216 98.0107L223.84 104.864L212.307 93.4916Z"/><path fill="#ffffff" d="M171.031 93.3287L179.681 81.7812L195.345 94.652L187.794 104.751L171.031 93.3287Z"/><path fill="#ffffff" d="M197.692 111.282L204.594 102.056L217.1 112.343L211.072 120.395L197.692 111.282Z"/><path fill="#ffffff" d="M186.496 131.393L191.638 121.081L205.78 128.959L201.286 137.959L186.496 131.393Z"/><path fill="#ffffff" d="M179.107 153.226L182.303 142.141L197.642 147.334L194.846 156.996L179.107 153.226Z"/><path fill="#ffffff" d="M175.799 176.033L176.935 164.548L192.949 166.883L191.963 176.895L175.799 176.033Z"/><path fill="#ffffff" d="M176.636 199.03L175.7 187.557L191.876 186.958L192.7 197.008L176.636 199.03Z"/><path fill="#ffffff" d="M178.583 210.39L194.397 206.919L196.993 216.632L181.566 221.525L178.583 210.39Z"/><path fill="#ffffff" d="M116.838 241.174L112.32 224.246L136.346 218.978L140.29 233.746L116.838 241.174Z"/><path fill="#ffffff" d="M109.349 206.993L107.939 189.554L132.527 188.655L133.763 203.91L109.349 206.993Z"/><path fill="#ffffff" d="M108.088 172.04L109.811 154.613L134.149 158.146L132.652 173.351L108.088 172.04Z"/><path fill="#ffffff" d="M113.106 137.397L117.974 120.544L141.264 128.434L137.033 143.127L113.106 137.397Z"/><path fill="#ffffff" d="M347.106 206.719L357.278 220.987L336.622 234.345L327.747 221.899L347.106 206.719Z"/><path fill="#ffffff" d="M366.115 236.105L373.554 251.959L350.825 261.397L344.335 247.553L366.115 236.105Z"/><path fill="#ffffff" d="M379.533 268.414L384.013 285.33L359.974 290.56L356.055 275.767L379.533 268.414Z"/><path fill="#ffffff" d="M386.946 302.595L388.319 320.06L363.731 320.871L362.545 305.629L386.946 302.595Z"/><path fill="#ffffff" d="M352.934 336.725L351.437 351.081L331.379 348.072L332.69 335.539L352.934 336.725Z"/><path fill="#ffffff" d="M351.986 307.887L353.109 322.281L332.84 322.955L331.854 310.384L351.986 307.887Z"/><path fill="#ffffff" d="M222.393 170.392L236.46 173.65L230.993 193.187L218.724 190.341L222.393 170.392Z"/><path fill="#ffffff" d="M250.164 178.168L263.407 183.898L254.532 202.137L242.962 197.131L250.164 178.168Z"/><path fill="#ffffff" d="M276.087 190.777L288.106 198.779L276.112 215.133L265.615 208.155L276.087 190.777Z"/><path fill="#ffffff" d="M299.352 207.842L309.724 217.903L294.971 231.81L285.91 223.034L299.352 207.842Z"/><path fill="#ffffff" d="M319.135 228.852L327.523 240.611L310.486 251.622L303.172 241.361L319.135 228.852Z"/><path fill="#ffffff" d="M320.908 334.965L319.722 346.438L303.709 344.028L304.757 334.029L320.908 334.965Z"/><path fill="#ffffff" d="M345.858 279.699L349.552 293.656L329.745 297.963L326.512 285.779L345.858 279.699Z"/><path fill="#ffffff" d="M363.545 336.149L388.108 337.573L386.285 355L361.959 351.342L363.545 336.149Z"/><path fill="#ffffff" d="M320.158 311.944L321.057 323.442L304.881 323.979L304.095 313.942L320.158 311.944Z"/><path fill="#ffffff" d="M315.266 289.449L318.224 300.584L302.398 304.017L299.827 294.292L315.266 289.449Z"/><path fill="#ffffff" d="M334.799 253.083L340.927 266.141L322.205 273.931L316.851 262.508L334.799 253.083Z"/><path fill="#ffffff" d="M306.442 268.188L311.335 278.624L296.382 284.829L292.113 275.716L306.442 268.188Z"/><path fill="#ffffff" d="M293.936 248.852L300.626 258.24L287.033 267.029L281.192 258.839L293.936 248.852Z"/><path fill="#ffffff" d="M278.134 232.075L286.422 240.114L274.639 251.212L267.413 244.209L278.134 232.075Z"/><path fill="#ffffff" d="M259.561 218.453L269.16 224.845L259.586 237.903L251.211 232.323L259.561 218.453Z"/><path fill="#ffffff" d="M238.868 208.391L249.439 212.947L242.362 227.516L233.114 223.521L238.868 208.391Z"/><path fill="#ffffff" d="M227.922 204.783L223.553 220.375L213.768 218.103L216.701 202.174L227.922 204.783Z"/><path fill="#ffffff" d="M229.744 135.799L246.806 139.756L240.166 163.438L225.289 159.993L229.744 135.799Z"/><path fill="#ffffff" d="M263.432 145.237L279.495 152.178L268.736 174.299L254.695 168.232L263.432 145.237Z"/><path fill="#ffffff" d="M294.871 160.528L309.462 170.24L294.909 190.077L282.178 181.601L294.871 160.528Z"/><path fill="#ffffff" d="M323.104 181.24L335.685 193.436L317.787 210.314L306.804 199.666L323.104 181.24Z"/><path fill="#ffffff" d="M147.355 351.144L129.894 352.555L129.02 327.974L144.26 326.738L147.355 351.144Z"/><path fill="#ffffff" d="M112.382 352.391L94.9707 350.643L98.5154 326.288L113.73 327.823L112.382 352.391Z"/><path fill="#ffffff" d="M77.7836 347.337L60.9462 342.505L68.797 319.186L83.5 323.405L77.7836 347.337Z"/><path fill="#ffffff" d="M44.6208 336.175L28.9318 328.386L40.8514 306.864L54.5435 313.655L44.6208 336.175Z"/><path fill="#ffffff" d="M32.8008 289.462L21.2306 280.811L34.1114 265.144L44.1963 272.684L32.8008 289.462Z"/><path fill="#ffffff" d="M58.0259 303.43L45.0952 297.013L54.918 279.273L66.2012 284.866L58.0259 303.43Z"/><path fill="#ffffff" d="M242.499 262.708L232.489 273.107L218.535 258.389L227.272 249.313L242.499 262.708Z"/><path fill="#ffffff" d="M221.581 282.558L209.886 290.985L198.778 274.019L209.013 266.641L221.581 282.558Z"/><path fill="#ffffff" d="M197.467 298.349L184.436 304.554L176.548 285.866L187.931 280.448L197.467 298.349Z"/><path fill="#ffffff" d="M170.882 309.56L156.928 313.318L152.56 293.506L164.741 290.236L170.882 309.56Z"/><path fill="#ffffff" d="M142.699 315.777L128.308 316.938L127.597 296.677L140.153 295.653L142.699 315.777Z"/><path fill="#ffffff" d="M50.724 262.87L41.5003 255.966L51.7724 243.445L59.8229 249.474L50.724 262.87Z"/><path fill="#ffffff" d="M85.3468 312.644L71.4801 308.649L77.9579 289.436L90.0648 292.907L85.3468 312.644Z"/><path fill="#ffffff" d="M27.8458 298.862L14.0165 319.21L0 308.724L15.6141 289.711L27.8458 298.862Z"/><path fill="#ffffff" d="M70.8687 274.03L60.5467 268.9L68.3849 254.743L77.3965 259.212L70.8687 274.03Z"/><path fill="#ffffff" d="M92.6864 281.371L81.6154 278.187L86.7827 262.845L96.4557 265.629L92.6864 281.371Z"/><path fill="#ffffff" d="M113.879 316.8L99.5257 315.364L102.446 295.29L114.99 296.551L113.879 316.8Z"/><path fill="#ffffff" d="M115.465 284.692L103.995 283.543L106.329 267.527L116.351 268.525L115.465 284.692Z"/><path fill="#ffffff" d="M138.468 283.88L126.986 284.804L126.411 268.625L136.434 267.813L138.468 283.88Z"/><path fill="#ffffff" d="M160.972 278.926L149.826 281.91L146.344 266.105L156.067 263.496L160.972 278.926Z"/><path fill="#ffffff" d="M182.19 269.961L171.793 274.929L165.49 259.999L174.576 255.679L182.19 269.961Z"/><path fill="#ffffff" d="M201.448 257.366L192.1 264.095L183.238 250.538L191.413 244.658L201.448 257.366Z"/><path fill="#ffffff" d="M210.16 249.813L199.014 238.066L205.992 230.825L218.148 241.511L210.16 249.813Z"/><path fill="#ffffff" d="M268.424 286.766L256.28 299.387L239.355 281.535L249.952 270.524L268.424 286.766Z"/><path fill="#ffffff" d="M243.049 310.845L228.858 321.069L215.378 300.483L227.797 291.545L243.049 310.845Z"/><path fill="#ffffff" d="M213.793 329.996L197.979 337.537L188.418 314.866L202.21 308.287L213.793 329.996Z"/><path fill="#ffffff" d="M181.541 343.604L164.604 348.16L159.312 324.129L174.078 320.159L181.541 343.604Z"/></svg>
