<svg xmlns="http://www.w3.org/2000/svg" xmlns:xlink="http://www.w3.org/1999/xlink" version="1.1" id="Layer_1" x="0px" y="0px" style="enable-background:new 0 0 612 792;" xml:space="preserve" viewBox="53.45 337.93 512.03 137.55">
<style type="text/css">
	.st0{fill:#FFFFFF;}
</style>
<g>
	<path class="st0" d="M86.03,457.48c-0.41-0.37-0.61-0.87-0.61-1.49v-19.33c-3.07,4.03-7.53,6.05-13.38,6.05   c-5.79,0-10.27-1.83-13.42-5.49c-3.16-3.66-4.85-8.47-5.08-14.44l-0.09-3.07l0.09-3.07c0.23-6.07,1.91-10.91,5.04-14.52   c3.13-3.61,7.62-5.41,13.47-5.41c6.08,0,10.71,2.1,13.9,6.3v-3.41c0-0.62,0.2-1.12,0.61-1.49c0.4-0.37,0.9-0.55,1.48-0.55h7.04   c0.64,0,1.14,0.19,1.52,0.55c0.38,0.37,0.56,0.87,0.56,1.49v56.38c0,0.62-0.19,1.12-0.56,1.49c-0.38,0.37-0.88,0.55-1.52,0.55   h-7.56C86.93,458.04,86.43,457.85,86.03,457.48z M82.68,430.53c1.71-1.99,2.62-4.4,2.74-7.24c0.06-0.74,0.09-1.84,0.09-3.32   c0-1.48-0.03-2.56-0.09-3.24c-0.17-3.07-1.07-5.63-2.69-7.71c-1.62-2.07-4.08-3.11-7.39-3.11c-6.14,0-9.41,3.75-9.82,11.24   c-0.06,0.57-0.09,1.42-0.09,2.56c0,1.14,0.03,1.99,0.09,2.56c0.4,7.5,3.68,11.24,9.82,11.24   C78.53,433.51,80.97,432.51,82.68,430.53z"/>
	<path class="st0" d="M114.96,437.59c-3.07-3.41-4.6-8.09-4.6-14.05v-23.93c0-0.62,0.2-1.12,0.61-1.49c0.4-0.37,0.9-0.55,1.48-0.55   h7.82c0.58,0,1.07,0.2,1.48,0.6c0.4,0.4,0.61,0.88,0.61,1.45v23.42c0,6.98,3.1,10.48,9.3,10.48c3.01,0,5.4-0.94,7.17-2.81   c1.77-1.87,2.65-4.43,2.65-7.67v-23.42c0-0.62,0.2-1.12,0.61-1.49c0.4-0.37,0.9-0.55,1.48-0.55h7.73c0.64,0,1.14,0.19,1.52,0.55   c0.38,0.37,0.56,0.87,0.56,1.49v40.2c0,0.57-0.19,1.05-0.56,1.45c-0.38,0.4-0.88,0.6-1.52,0.6h-7.21c-0.58,0-1.07-0.2-1.48-0.6   c-0.41-0.4-0.61-0.88-0.61-1.45v-3.49c-3.19,4.26-7.99,6.39-14.42,6.39C122.23,442.71,118.03,441,114.96,437.59z"/>
	<path class="st0" d="M172,440.96c-2.46-1.16-4.4-2.74-5.82-4.73c-1.42-1.99-2.13-4.17-2.13-6.56c0-3.86,1.59-6.98,4.78-9.37   c3.18-2.38,7.56-4,13.12-4.85l11.9-1.7v-1.79c0-2.44-0.64-4.29-1.91-5.54c-1.27-1.25-3.3-1.87-6.08-1.87   c-1.91,0-3.45,0.34-4.61,1.02c-1.16,0.68-2.1,1.38-2.82,2.09c-0.72,0.71-1.2,1.18-1.43,1.41c-0.23,0.68-0.67,1.02-1.3,1.02h-6.78   c-0.52,0-0.97-0.17-1.35-0.51c-0.38-0.34-0.56-0.79-0.56-1.36c0.06-1.42,0.77-3.02,2.13-4.81c1.36-1.79,3.46-3.35,6.3-4.68   c2.84-1.33,6.34-2,10.51-2c6.83,0,11.82,1.51,14.94,4.51c3.13,3.01,4.69,6.96,4.69,11.84v26.74c0,0.57-0.19,1.05-0.56,1.45   c-0.38,0.4-0.88,0.6-1.52,0.6h-7.21c-0.58,0-1.07-0.2-1.48-0.6c-0.41-0.4-0.61-0.88-0.61-1.45v-3.32   c-1.27,1.82-3.07,3.31-5.39,4.47c-2.32,1.16-5.21,1.75-8.69,1.75C177.17,442.71,174.46,442.12,172,440.96z M190.89,431.46   c2.03-2.04,3.04-5,3.04-8.86v-1.7l-8.69,1.36c-6.66,1.02-9.99,3.21-9.99,6.56c0,1.82,0.77,3.22,2.3,4.22   c1.53,0.99,3.37,1.49,5.52,1.49C186.26,434.53,188.87,433.51,190.89,431.46z"/>
	<path class="st0" d="M219.48,441.26c-0.41-0.4-0.61-0.88-0.61-1.45v-40.2c0-0.62,0.2-1.12,0.61-1.49c0.4-0.37,0.9-0.55,1.48-0.55   h7.21c0.64,0,1.14,0.19,1.52,0.55c0.38,0.37,0.56,0.87,0.56,1.49v3.49c3.53-4.26,8.37-6.39,14.51-6.39c5.33,0,9.56,1.7,12.68,5.11   c3.13,3.41,4.69,8.09,4.69,14.05v23.93c0,0.57-0.19,1.05-0.57,1.45c-0.38,0.4-0.88,0.6-1.52,0.6h-7.82c-0.58,0-1.07-0.2-1.48-0.6   c-0.41-0.4-0.61-0.88-0.61-1.45v-23.42c0-3.29-0.83-5.86-2.48-7.71c-1.65-1.84-4.01-2.77-7.08-2.77c-2.95,0-5.33,0.94-7.12,2.81   c-1.8,1.87-2.69,4.43-2.69,7.66v23.42c0,0.57-0.19,1.05-0.56,1.45c-0.38,0.4-0.88,0.6-1.52,0.6h-7.73   C220.38,441.85,219.88,441.66,219.48,441.26z"/>
	<path class="st0" d="M283.42,437.81c-2.66-2.7-4-6.66-4-11.88v-19.25h-6.86c-0.58,0-1.07-0.2-1.48-0.6   c-0.41-0.4-0.61-0.88-0.61-1.45v-5.02c0-0.57,0.2-1.05,0.61-1.45c0.4-0.4,0.9-0.6,1.48-0.6h6.86v-14.14c0-0.62,0.2-1.12,0.61-1.49   c0.4-0.37,0.9-0.55,1.48-0.55h7.21c0.64,0,1.14,0.18,1.52,0.55c0.38,0.37,0.57,0.87,0.57,1.49v14.14h10.86   c0.58,0,1.07,0.2,1.48,0.6c0.4,0.4,0.61,0.88,0.61,1.45v5.02c0,0.57-0.2,1.05-0.61,1.45c-0.41,0.4-0.9,0.6-1.48,0.6h-10.86v18.31   c0,2.44,0.43,4.29,1.3,5.54c0.87,1.25,2.29,1.87,4.26,1.87h6.08c0.64,0,1.14,0.18,1.52,0.55c0.38,0.37,0.56,0.87,0.56,1.49v5.37   c0,0.57-0.19,1.05-0.56,1.45c-0.38,0.4-0.88,0.6-1.52,0.6h-7.12C290.05,441.85,286.09,440.51,283.42,437.81z"/>
	<path class="st0" d="M318.74,437.51c-3.79-3.46-5.81-8.26-6.04-14.39l-0.09-3.41l0.09-3.41c0.23-6.13,2.24-10.93,6.04-14.39   c3.79-3.46,8.88-5.2,15.25-5.2c4.58,0,8.44,0.8,11.6,2.38c3.16,1.59,5.5,3.53,7.04,5.83c1.53,2.3,2.36,4.5,2.48,6.6   c0.06,0.57-0.13,1.05-0.56,1.45c-0.43,0.4-0.94,0.6-1.52,0.6h-7.73c-0.64,0-1.1-0.13-1.39-0.38c-0.29-0.26-0.58-0.72-0.87-1.41   c-0.87-2.16-2.01-3.72-3.43-4.68c-1.42-0.97-3.23-1.45-5.43-1.45c-2.95,0-5.26,0.91-6.91,2.72c-1.65,1.82-2.53,4.6-2.65,8.35   l-0.09,3.15l0.09,2.81c0.35,7.38,3.53,11.07,9.56,11.07c2.26,0,4.08-0.47,5.47-1.41c1.39-0.94,2.52-2.51,3.39-4.73   c0.23-0.62,0.51-1.08,0.83-1.36c0.32-0.28,0.8-0.43,1.43-0.43h7.73c0.58,0,1.09,0.2,1.52,0.6c0.43,0.4,0.62,0.88,0.56,1.45   c-0.12,1.99-0.93,4.13-2.43,6.43c-1.51,2.3-3.82,4.27-6.95,5.92c-3.13,1.65-7.04,2.47-11.73,2.47   C327.62,442.71,322.53,440.97,318.74,437.51z"/>
	<path class="st0" d="M370.57,437.59c-3.71-3.41-5.71-8.12-5.99-14.14l-0.09-3.75l0.09-3.75c0.29-5.96,2.32-10.66,6.08-14.09   c3.76-3.43,9.01-5.15,15.73-5.15c6.66,0,11.87,1.72,15.64,5.15c3.76,3.44,5.79,8.13,6.08,14.09c0.06,0.68,0.09,1.93,0.09,3.75   c0,1.82-0.03,3.07-0.09,3.75c-0.29,6.02-2.29,10.73-5.99,14.14c-3.71,3.41-8.95,5.11-15.73,5.11   C379.54,442.71,374.27,441,370.57,437.59z M393.46,431.29c1.65-1.87,2.53-4.63,2.65-8.26c0.06-0.57,0.09-1.67,0.09-3.32   c0-1.65-0.03-2.75-0.09-3.32c-0.12-3.63-1.01-6.4-2.69-8.3c-1.68-1.9-4.03-2.85-7.04-2.85c-3.07,0-5.44,0.95-7.12,2.85   c-1.68,1.9-2.58,4.67-2.69,8.3l-0.09,3.32l0.09,3.32c0.12,3.63,1.01,6.39,2.69,8.26c1.68,1.87,4.05,2.81,7.12,2.81   C389.45,434.1,391.81,433.17,393.46,431.29z"/>
</g>
<path class="st0" d="M548.79,460.35c-1.75-2.21-3.44-4.35-5.13-6.49c-3.09-3.91-6.17-7.82-9.26-11.72c-0.26-0.33-0.4-0.56-0.12-1  c2.91-4.52,4.42-9.56,5.35-14.8c0.91-5.15,1.26-10.34,1.24-15.56c-0.02-5.41-0.06-10.84-0.35-16.24  c-0.35-6.33-1.43-12.56-4.14-18.37c-4.28-9.18-11.65-14.35-21.49-15.88c-9.23-1.44-17.42,1.12-24.35,7.41  c-3.86,3.51-6.17,8.01-7.71,12.94c-1.78,5.71-2.52,11.59-2.64,17.53c-0.12,6.03-0.16,12.07,0.04,18.1  c0.22,6.83,1.13,13.57,3.83,19.94c4.13,9.72,11.61,15.18,21.88,16.97c4.25,0.74,8.47,0.48,12.62-0.78c0.35-0.11,0.58-0.09,0.85,0.24  c4.7,5.99,9.41,11.96,14.11,17.94c0.03,0.04,0.05,0.09,0.11,0.22c-0.25,0.11-0.49,0.23-0.73,0.34c-6.94,2.89-14.19,4.25-21.69,4.33  c-8.34,0.09-16.38-1.32-23.99-4.78c-14.15-6.45-23.34-17.3-28.06-32.02c-1.77-5.5-2.74-11.17-3.09-16.92  c-0.33-5.45-0.55-10.92-0.58-16.38c-0.03-7.07,0.33-14.12,1.48-21.12c1.63-9.91,5.05-19.05,11.42-26.94  c7.2-8.92,16.37-14.76,27.47-17.5c12.94-3.2,25.64-2.39,37.9,2.99c10.73,4.71,18.7,12.46,24.22,22.76  c3.25,6.07,5.06,12.6,6.12,19.36c0.89,5.69,1.22,11.43,1.33,17.18c0.13,6.76,0.05,13.51-0.56,20.25  c-0.78,8.63-2.54,17.02-6.49,24.83C555.89,452.03,552.7,456.39,548.79,460.35z"/>
</svg>