<svg xmlns="http://www.w3.org/2000/svg" width="37" height="34" fill="none" viewBox="0 0 37 34"><path fill="#452392" d="M11.6629 9.7764L12.3958 8.30566L14.4118 9.42863L13.7714 10.712L11.6629 9.7764Z"/><path fill="#452392" d="M13.2587 6.90875L14.2433 5.59375L16.0251 7.05981L15.1646 8.20736L13.2587 6.90875Z"/><path fill="#452392" d="M15.3414 4.37375L16.5461 3.25781L18.0365 5.01895L16.9851 5.99437L15.3414 4.37375Z"/><path fill="#452392" d="M17.8456 2.25278L19.2318 1.36987L20.3815 3.37106L19.1721 4.14156L17.8456 2.25278Z"/><path fill="#452392" d="M22.1692 3.56802L23.4242 3.05981L24.0576 4.85257L22.9641 5.29637L22.1692 3.56802Z"/><path fill="#452392" d="M19.8242 4.91706L20.9656 4.18872L21.9139 5.83862L20.9176 6.47329L19.8242 4.91706Z"/><path fill="#452392" d="M14.1484 21.7064L13.7984 20.3985L15.6563 19.991L15.9607 21.1327L14.1484 21.7064Z"/><path fill="#452392" d="M13.5689 19.0634L13.4589 17.7156L15.3602 17.6465L15.4562 18.8256L13.5689 19.0634Z"/><path fill="#452392" d="M13.4705 16.3621L13.604 15.0143L15.4866 15.2871L15.3695 16.4628L13.4705 16.3621Z"/><path fill="#452392" d="M13.8593 13.6829L14.2351 12.3807L16.0368 12.9896L15.709 14.1267L13.8593 13.6829Z"/><path fill="#452392" d="M14.7268 11.1185L15.332 9.90649L16.9933 10.8316L16.4665 11.8889L14.7268 11.1185Z"/><path fill="#452392" d="M23.4348 6.29744L24.4369 5.89111L24.9427 7.32321L24.0693 7.67684L23.4348 6.29744Z"/><path fill="#452392" d="M17.7602 6.66526L18.753 5.74487L19.9822 7.19571L19.1147 8.00016L17.7602 6.66526Z"/><path fill="#452392" d="M21.6541 2.71431L20.6905 0.617102L22.2137 0L22.9817 2.17567L21.6541 2.71431Z"/><path fill="#452392" d="M21.5616 7.37377L22.4736 6.79297L23.231 8.11031L22.4349 8.61734L21.5616 7.37377Z"/><path fill="#452392" d="M19.9143 8.76936L20.7069 8.03516L21.688 9.19325L20.9961 9.83611L19.9143 8.76936Z"/><path fill="#452392" d="M16.0427 8.75429L16.854 7.67114L18.3233 8.87841L17.615 9.82573L16.0427 8.75429Z"/><path fill="#452392" d="M18.5434 10.4381L19.1908 9.57275L20.3639 10.5376L19.7984 11.2929L18.5434 10.4381Z"/><path fill="#452392" d="M17.4932 12.3245L17.9756 11.3573L19.302 12.0962L18.8806 12.9405L17.4932 12.3245Z"/><path fill="#452392" d="M16.8001 14.3726L17.0999 13.3328L18.5387 13.8199L18.2764 14.7262L16.8001 14.3726Z"/><path fill="#452392" d="M16.4899 16.5119L16.5965 15.4346L18.0985 15.6535L18.006 16.5927L16.4899 16.5119Z"/><path fill="#452392" d="M16.5683 18.6689L16.4805 17.5928L17.9978 17.5366L18.0751 18.4793L16.5683 18.6689Z"/><path fill="#452392" d="M16.751 19.7345L18.2343 19.4089L18.4778 20.32L17.0308 20.779L16.751 19.7345Z"/><path fill="#452392" d="M10.9593 22.622L10.5355 21.0342L12.7892 20.54L13.1591 21.9253L10.9593 22.622Z"/><path fill="#452392" d="M10.2569 19.4158L10.1246 17.78L12.4309 17.6957L12.5468 19.1266L10.2569 19.4158Z"/><path fill="#452392" d="M10.1386 16.1372L10.3002 14.5026L12.5831 14.8339L12.4426 16.2602L10.1386 16.1372Z"/><path fill="#452392" d="M10.6092 12.8878L11.0658 11.307L13.2504 12.0471L12.8536 13.4253L10.6092 12.8878Z"/><path fill="#99C941" d="M32.5584 19.3903L33.5125 20.7287L31.575 21.9816L30.7426 20.8142L32.5584 19.3903Z"/><path fill="#99C941" d="M34.3414 22.1467L35.0392 23.6339L32.9073 24.5191L32.2985 23.2205L34.3414 22.1467Z"/><path fill="#99C941" d="M35.6 25.1772L36.0203 26.7639L33.7654 27.2545L33.3978 25.8669L35.6 25.1772Z"/><path fill="#99C941" d="M36.2954 28.3833L36.4242 30.0215L34.1178 30.0976L34.0066 28.6678L36.2954 28.3833Z"/><path fill="#99C941" d="M33.1051 31.5848L32.9646 32.9314L31.0832 32.6492L31.2062 31.4735L33.1051 31.5848Z"/><path fill="#99C941" d="M33.0161 28.8799L33.1215 30.23L31.2202 30.2932L31.1277 29.1141L33.0161 28.8799Z"/><path fill="#99C941" d="M20.8603 15.9828L22.1798 16.2884L21.667 18.121L20.5161 17.854L20.8603 15.9828Z"/><path fill="#99C941" d="M23.4652 16.7122L24.7074 17.2496L23.875 18.9604L22.7897 18.4909L23.4652 16.7122Z"/><path fill="#99C941" d="M25.8968 17.895L27.0243 18.6456L25.8992 20.1796L24.9146 19.525L25.8968 17.895Z"/><path fill="#99C941" d="M28.0791 19.4956L29.052 20.4394L27.6682 21.7439L26.8182 20.9207L28.0791 19.4956Z"/><path fill="#99C941" d="M29.9348 21.4663L30.7215 22.5694L29.1234 23.6022L28.4374 22.6396L29.9348 21.4663Z"/><path fill="#99C941" d="M30.101 31.4197L29.9898 32.4959L28.4877 32.2699L28.5861 31.3319L30.101 31.4197Z"/><path fill="#99C941" d="M32.4413 26.2357L32.7878 27.5449L30.9299 27.9488L30.6267 26.806L32.4413 26.2357Z"/><path fill="#99C941" d="M34.1003 31.5309L36.4043 31.6644L36.2334 33.2991L33.9516 32.956L34.1003 31.5309Z"/><path fill="#99C941" d="M30.0307 29.2604L30.115 30.3388L28.5978 30.3892L28.524 29.4477L30.0307 29.2604Z"/><path fill="#99C941" d="M29.5718 27.1503L29.8493 28.1948L28.3648 28.5168L28.1236 27.6046L29.5718 27.1503Z"/><path fill="#99C941" d="M31.404 23.7393L31.9789 24.9641L30.2228 25.6948L29.7205 24.6233L31.404 23.7393Z"/><path fill="#99C941" d="M28.7441 25.1561L29.203 26.1351L27.8005 26.717L27.4001 25.8622L28.7441 25.1561Z"/><path fill="#99C941" d="M27.571 23.3423L28.1985 24.2229L26.9236 25.0472L26.3757 24.2791L27.571 23.3423Z"/><path fill="#99C941" d="M26.0888 21.7687L26.8662 22.5228L25.761 23.5638L25.0832 22.9069L26.0888 21.7687Z"/><path fill="#99C941" d="M24.3468 20.491L25.2471 21.0905L24.3491 22.3153L23.5636 21.7919L24.3468 20.491Z"/><path fill="#99C941" d="M22.4057 19.5471L23.3973 19.9745L22.7335 21.341L21.866 20.9663L22.4057 19.5471Z"/><path fill="#99C941" d="M21.379 19.2087L20.9692 20.6713L20.0513 20.4581L20.3265 18.964L21.379 19.2087Z"/><path fill="#99C941" d="M21.5499 12.738L23.1503 13.1092L22.5275 15.3306L21.1319 15.0074L21.5499 12.738Z"/><path fill="#99C941" d="M24.7097 13.6233L26.2165 14.2744L25.2073 16.3493L23.8902 15.7802L24.7097 13.6233Z"/><path fill="#99C941" d="M27.6588 15.0576L29.0274 15.9686L27.6623 17.8293L26.4682 17.0342L27.6588 15.0576Z"/><path fill="#99C941" d="M30.3071 17.0002L31.4872 18.1443L29.8083 19.7274L28.7781 18.7286L30.3071 17.0002Z"/><path fill="#A43A8F" d="M13.8218 32.937L12.1839 33.0693L12.102 30.7636L13.5314 30.6477L13.8218 32.937Z"/><path fill="#A43A8F" d="M10.5414 33.0541L8.90816 32.8902L9.24066 30.6056L10.6678 30.7496L10.5414 33.0541Z"/><path fill="#A43A8F" d="M7.29606 32.5798L5.71673 32.1266L6.45313 29.9392L7.83226 30.335L7.29606 32.5798Z"/><path fill="#A43A8F" d="M4.18541 31.533L2.71378 30.8023L3.83184 28.7836L5.11615 29.4206L4.18541 31.533Z"/><path fill="#A43A8F" d="M3.07673 27.1513L1.99145 26.3398L3.19965 24.8702L4.14561 25.5775L3.07673 27.1513Z"/><path fill="#A43A8F" d="M5.44278 28.4615L4.22989 27.8596L5.15126 26.1957L6.20962 26.7203L5.44278 28.4615Z"/><path fill="#A43A8F" d="M22.7464 24.6418L21.8074 25.6172L20.4986 24.2367L21.3181 23.3854L22.7464 24.6418Z"/><path fill="#A43A8F" d="M20.7842 26.5037L19.6872 27.2941L18.6452 25.7028L19.6053 25.0107L20.7842 26.5037Z"/><path fill="#A43A8F" d="M18.5223 27.985L17.3001 28.5669L16.5602 26.814L17.6279 26.3058L18.5223 27.985Z"/><path fill="#A43A8F" d="M16.0287 29.0365L14.7198 29.389L14.31 27.5307L15.4527 27.2239L16.0287 29.0365Z"/><path fill="#A43A8F" d="M13.3851 29.6197L12.0352 29.7286L11.9685 27.8281L13.1463 27.7321L13.3851 29.6197Z"/><path fill="#A43A8F" d="M4.75791 24.6569L3.89273 24.0093L4.85625 22.8348L5.61138 23.4004L4.75791 24.6569Z"/><path fill="#A43A8F" d="M8.00555 29.3258L6.70485 28.951L7.31247 27.1489L8.44809 27.4745L8.00555 29.3258Z"/><path fill="#A43A8F" d="M2.61193 28.033L1.31474 29.9417L0 28.9581L1.4646 27.1747L2.61193 28.033Z"/><path fill="#A43A8F" d="M6.64748 25.7038L5.67928 25.2225L6.4145 23.8947L7.25978 24.3139L6.64748 25.7038Z"/><path fill="#A43A8F" d="M8.69397 26.3923L7.65552 26.0937L8.14021 24.6545L9.04753 24.9157L8.69397 26.3923Z"/><path fill="#A43A8F" d="M10.6819 29.7157L9.33551 29.581L9.60946 27.6981L10.7861 27.8164L10.6819 29.7157Z"/><path fill="#A43A8F" d="M10.8306 26.7038L9.75464 26.5961L9.97357 25.0938L10.9137 25.1874L10.8306 26.7038Z"/><path fill="#A43A8F" d="M12.9883 26.6276L11.9112 26.7143L11.8573 25.1967L12.7974 25.1206L12.9883 26.6276Z"/><path fill="#A43A8F" d="M15.0991 26.163L14.0536 26.4429L13.727 24.9604L14.639 24.7157L15.0991 26.163Z"/><path fill="#A43A8F" d="M17.0893 25.3221L16.1141 25.7882L15.5229 24.3877L16.3752 23.9825L17.0893 25.3221Z"/><path fill="#A43A8F" d="M18.8958 24.1407L18.0189 24.7718L17.1877 23.5001L17.9545 22.9486L18.8958 24.1407Z"/><path fill="#A43A8F" d="M19.713 23.4322L18.6675 22.3303L19.322 21.6511L20.4623 22.6535L19.713 23.4322Z"/><path fill="#A43A8F" d="M25.178 26.8983L24.0389 28.0822L22.4513 26.4077L23.4453 25.3749L25.178 26.8983Z"/><path fill="#A43A8F" d="M22.7979 29.1571L21.4668 30.1161L20.2024 28.1852L21.3672 27.3468L22.7979 29.1571Z"/><path fill="#A43A8F" d="M20.0537 30.9534L18.5703 31.6607L17.6736 29.5342L18.9672 28.9171L20.0537 30.9534Z"/><path fill="#A43A8F" d="M17.0285 32.2297L15.4398 32.6571L14.9434 30.403L16.3284 30.0306L17.0285 32.2297Z"/></svg>
