<svg fill="none" xmlns="http://www.w3.org/2000/svg" viewBox="0 0 409 105">
  <g clip-path="url(#a)">
    <path d="M202.7 48.6c-2.1-1.5-3.7-2.8-4.4-3.7-1.6-1.9-2.5-4-2.6-4.1-1-2.3-1.4-4.7-1.2-7.3V20h-10.4l-1.6-3.1h12V6h3.3v10.8h12.1l-1.6 3.1h-10.4v14.5c0 1.8.3 3.5 1 5 0 0 .8 1.7 2 3.2.6.6 1.8 1.7 3.4 2.9l-1.6 3.1ZM100 47.8c0-10.2 9.7-12.6 29.5-13.4-.6-9.3-3.7-15.2-14.6-15.2-3 0-5.8.5-8.6 1.8l-1.5-2.9c3.3-1.7 6.7-2.1 10.1-2.1 13 0 18.1 7 18.1 22.1 0 15-5.1 22.1-18.1 22.1h-.7c-11-.1-14.2-5.1-14.2-12.4Zm3.5.1c0 2.8.5 4.9 1.9 6.4.4.5 1 .9 1.7 1.2 2.6 1.1 5.2 1.5 7.9 1.5 12.2 0 14.7-7.4 14.7-18.9v-.7c-16.7.8-26.2 2.2-26.2 10.5Zm59.1-32h-1.9c-12.5 0-14.2 10.5-14.2 19.7v22.2c1 .9 2.2 1.6 3.4 2.2V36.7c0-10.4 1.5-17.7 11.4-17.7h.9c9.8 0 11.4 7.3 11.4 17.7v23.4c1.2-.6 2.4-1.3 3.4-2.2V35.7c-.2-9.3-2-19.8-14.4-19.8Zm91.5 19.8c-2.5-2.9-7.4-4.4-16-7.5-1.9-.7-3.6-1.3-5.3-2.1-5.1-2.1-8.7-4.8-8.7-10.8 0-9.2 6.4-12.1 14.5-12.1 3.8 0 7.5.4 11.2 1.7l1.5-2.9c-4-1.5-8.3-2-12.8-2-9.4 0-17.7 4.1-17.7 15.4 0 6.7 3.4 10.4 8.6 12.9.8.3 1.4.6 2.1.9 1.9.8 3.3 1.4 5.1 2 8.4 3 12.3 3.5 15.1 6.6.2.2 4.1 4.8 3.1 10.4-.5 2.9-2.2 5.5-4.9 7.8-6.2 5.1-15.9 4-25.2.9l-1.6 3.1c5.1 1.8 10.4 3 15.4 3 5.1 0 9.7-1.2 13.5-4.3 4.2-3.5 5.7-7.2 6.1-9.8 1.1-7-3.5-12.6-4-13.2ZM57.2 82.2c-.9.9-1.8 1.7-2.9 2.3-9.3-4.8-16-13.1-19.4-23.9-3.2 1.6-7.1 2.4-11.8 2.4C6.5 63 0 53.3 0 32.3 0 11.4 6.5 1.6 23.1 1.6s23.1 9.7 23.1 30.7c0 13-2.5 21.6-8.4 26.4 3.2 10.9 10 19 19.4 23.5ZM42.7 32.3c0-16.4-3.3-27.5-19.7-27.5S3.3 15.8 3.3 32.3c0 16.4 3.3 27.5 19.7 27.5s19.7-11 19.7-27.5ZM360.6 57c-12.2 0-14.7-7.4-14.7-18.9 0-11.5 2.5-18.9 14.7-18.9 3.1 0 6 .5 8.8 1.9l1.5-2.9c-3.4-1.7-6.9-2.1-10.2-2.1-13 0-18.1 7-18.1 22.1 0 15 5.1 22.1 18.1 22.1 3.4 0 6.9-.4 10.3-2.1l-1.5-2.9c-3 1.2-5.9 1.7-8.9 1.7Zm-79.3-3.9c-1.3-1.5-2-3.2-2-3.2-.7-1.6-1-3.3-1-5V20.2h12l-1.6-3.1h-10.4V6.2H275V17h-10.5l-1.6 3.1H275v23.7c-.1 2.6.3 5.1 1.2 7.3 0 .1 1 2.2 2.6 4.1.8.9 2.4 2.3 4.6 3.8l1.5-3.1c-1.8-1.1-3-2.1-3.6-2.8Zm127.4-31.2c-.7-.9-1.5-1.7-2.4-2.4L388 37.7v-22h-.4c-1.1.2-2 .5-3 .8v42.6c1.1.4 2.2.6 3.4.9V38.7l17.8 17.8c.9-.7 1.7-1.4 2.5-2.3l-16-16 16.4-16.3Zm-320-3.7c-1-.9-2.2-1.6-3.4-2.2v23.4c0 10.4-1.5 17.7-11.4 17.7H73c-9.8 0-11.4-7.3-11.4-17.7V15.9c-1.2.6-2.4 1.3-3.4 2.2v22.2C58.2 49.5 60 60 72.4 60h2.1C87 60 88.7 49.5 88.7 40.3V18.2Zm209.6 29.6c0-10.2 9.7-12.6 29.5-13.4-.6-9.3-3.7-15.2-14.6-15.2-3 0-5.8.5-8.6 1.8l-1.5-2.9c3.3-1.7 6.7-2.1 10.1-2.1 13 0 18.1 7 18.1 22.1 0 15-5.1 22.1-18.1 22.1h-.7c-11-.1-14.2-5.1-14.2-12.4Zm3.5.1c0 2.8.5 4.9 1.9 6.4.4.5 1 .9 1.7 1.2 2.6 1.1 5.2 1.5 7.9 1.5 12.2 0 14.7-7.4 14.7-18.9v-.7c-16.7.8-26.2 2.2-26.2 10.5Zm-226 42.6c-2.2-.7-4-1.2-4-3.3 0-2.3 1.6-3 3.8-3 1.5 0 3 .3 4.3 1l.7-1.7c-1.5-.8-3.3-1-5.1-1-3.1 0-5.6 1.4-5.6 4.9 0 3.3 2.7 4.3 5.2 5 2.3.7 4.5 1.1 4.5 3.3 0 2.6-1.7 3.4-3.9 3.4-2 0-4-.6-5.6-1.5l-.7 1.7c1.6 1 3.9 1.6 6.3 1.6 3.5 0 5.9-1.6 5.9-5.1 0-3.7-3.2-4.6-5.8-5.3ZM92 88.7c.9 0 1.9.2 2.8.6l.7-1.5c-1-.6-2.2-.8-3.5-.8-3.8 0-5.5 2.1-5.5 6.8 0 4.7 1.7 6.8 5.5 6.8 1.3 0 2.5-.2 3.5-.8l-.7-1.5c-.9.5-1.8.6-2.8.6-2.6 0-3.6-1.2-3.6-5.2s.9-5 3.6-5Zm9.7-3.7c.8 0 1.2-.3 1.2-1.1s-.5-1.1-1.2-1.1c-.8 0-1.2.3-1.2 1.1s.4 1.1 1.2 1.1Zm.9 2.3-1.9.3v8.3c0 1.7.1 3.2.5 4.5h1.8c-.4-1.4-.4-2.9-.4-4.4v-8.7Zm16.3 6.9v.2l-8.7.7c.1 3.1 1.4 4 3.8 4 1.3 0 2.5-.3 3.7-1l.7 1.4c-1.3.9-2.8 1.2-4.4 1.2-3.4 0-5.7-1.4-5.7-6.8 0-5.7 2.6-6.8 5.4-6.8 3.3-.1 5.2 1.5 5.2 7.1Zm-1.8-1.2c-.1-3.3-1.3-4.4-3.3-4.4-2.2 0-3.6 1.2-3.6 4.7v.3l6.9-.6Zm13.2-6c-2.2 0-3.5.7-4.3 2.1-.1-.7-.3-1.3-.5-1.9l-1.6.4c.4 1.4.5 3 .5 4.5v8.3h1.9v-9.2c.8-1.7 1.8-2.6 3.7-2.6 2.7 0 2.9 1.8 2.9 4.7v7.1h1.9v-7.5c-.1-3-.7-5.9-4.5-5.9Zm13.1-3.9-1.9.3v4h-2.2V89h2.2v5.2c0 2.9.2 5 2.3 6.6l1.3-1.1c-1.6-1.5-1.6-2.8-1.6-5V89h2.7l.2-1.6h-2.9v-4.3h-.1ZM152 85c.8 0 1.2-.3 1.2-1.1s-.5-1.1-1.2-1.1c-.8 0-1.2.3-1.2 1.1s.5 1.1 1.2 1.1Zm1 2.3-1.9.3v8.3c0 1.7.1 3.2.5 4.5h1.8c-.4-1.4-.4-2.9-.4-4.4v-8.7Zm10.8-3.7c.3 0 .7.1 1.1.2l.3-1.6c-.5-.1-1-.2-1.5-.2-2.8 0-3.7 1.6-3.7 3.8 0 .6.1 1.2.2 1.8H158v1.6h2.2v11.2h1.9V89.2h2.8l.2-1.6h-3c-.2-.5-.2-1.2-.2-1.7-.2-1.6.2-2.3 1.9-2.3ZM171 85c.8 0 1.2-.3 1.2-1.1s-.5-1.1-1.2-1.1c-.8 0-1.2.3-1.2 1.1s.4 1.1 1.2 1.1Zm.9 2.3-1.9.3v8.3c0 1.7.1 3.2.5 4.5h1.8c-.4-1.4-.4-2.9-.4-4.4v-8.7Zm11.3 1.4c.9 0 1.9.2 2.8.6l.7-1.5c-1-.6-2.2-.8-3.5-.8-3.8 0-5.5 2.1-5.5 6.8 0 4.7 1.7 6.8 5.5 6.8 1.3 0 2.5-.2 3.5-.8l-.7-1.5c-.9.5-1.8.6-2.8.6-2.6 0-3.6-1.2-3.6-5.2s.9-5 3.6-5Zm22.9-4.5c1.4 0 2.8.3 4.1 1l.8-1.6c-1.4-.9-3.2-1.1-5-1.1-4.1 0-6.9 2.1-6.9 9.2s2.9 9.2 6.9 9.2c1.8 0 3.6-.2 5-1.1l-.8-1.6c-1.3.8-2.7 1-4.1 1-3.1 0-5.1-1.2-5.1-7.4s2.1-7.6 5.1-7.6Zm20.5 9.7c0 4.7-1.6 6.8-5.7 6.8s-5.7-2.2-5.7-6.8c0-4.7 1.6-6.8 5.7-6.8 4.1-.1 5.7 2.1 5.7 6.8Zm-1.9 0c0-3.3-.6-5.2-3.8-5.2-3.2 0-3.8 2-3.8 5.2s.6 5.2 3.8 5.2c3.2 0 3.8-2 3.8-5.2Zm21.4-6.9c-2.2 0-3.5.7-4.5 2.3-.6-1.4-1.7-2.3-3.7-2.3-2.1 0-3.4.7-4.2 2.1-.1-.7-.3-1.3-.5-1.9l-1.6.4c.4 1.4.5 3 .5 4.5v8.3h1.9v-9.2c.8-1.7 1.7-2.6 3.5-2.6 2.3 0 2.8 1.4 2.8 3.3v8.5h1.9v-9.2c.8-1.7 1.7-2.6 3.5-2.6 2.6 0 2.8 1.8 2.8 4.7v7.1h1.9v-7.5c0-3-.6-5.9-4.3-5.9Zm20.7 6.9c0 5.7-2.7 6.8-5.3 6.8-1.3 0-2.4-.2-3.4-.8.1.9.1 1.7.1 2.5v1.9h-1.9V92.1c0-1.6-.1-3.1-.5-4.5l1.6-.4c.2.6.4 1.3.5 1.9.8-1.4 2.1-2.1 4.2-2.1 3.3 0 4.7 2.3 4.7 6.9Zm-1.9 0c0-3.2-.6-5.3-3.1-5.3-1.9 0-2.8 1-3.7 2.6v7.1c1 .6 2.1.8 3.2.8 2.3 0 3.6-.9 3.6-5.2Zm17.6-6.6-1.9.3v8.9c-.8 1.7-1.8 2.6-3.7 2.6-2.7 0-2.9-1.8-2.9-4.7v-7.1l-1.9.3v7.2c0 3.1.6 5.9 4.4 5.9 2.2 0 3.5-.7 4.3-2.1.1.7.3 1.3.5 1.9l1.6-.4c-.4-1.4-.5-3-.5-4.5v-8.3h.1Zm8.9-4.2-1.9.3v4h-2.2V89h2.2v5.2c0 2.9.2 5 2.3 6.6l1.3-1.1c-1.6-1.5-1.6-2.8-1.6-5V89h2.7l.2-1.6h-2.9v-4.3h-.1ZM300 85c.8 0 1.2-.3 1.2-1.1s-.5-1.1-1.2-1.1c-.8 0-1.2.3-1.2 1.1s.4 1.1 1.2 1.1Zm.9 2.3-1.9.3v8.3c0 1.7.1 3.2.5 4.5h1.8c-.4-1.4-.4-2.9-.4-4.4v-8.7ZM313 87c-2.2 0-3.5.7-4.3 2.1-.1-.7-.3-1.3-.5-1.9l-1.6.4c.4 1.4.5 3 .5 4.5v8.3h1.9v-9.2c.8-1.7 1.8-2.6 3.7-2.6 2.7 0 2.9 1.8 2.9 4.7v7.1h1.9v-7.5c-.1-3-.7-5.9-4.5-5.9Zm15.2 0c1.8 0 3.5.2 5.1.8v11.6c0 3.6-1.9 5.1-5 5.1-1.2 0-2.5-.2-3.6-.7l.5-1.5c.9.5 2 .7 3.2.7 1.9 0 3.1-.9 3.1-3.6v-.9c-.7 1.3-2 1.8-4 1.8-3.3 0-4.7-2.2-4.7-6.7 0-5.3 2.4-6.6 5.4-6.6Zm3.3 2.1c-1-.4-2.2-.5-3.3-.5-2.2 0-3.5 1-3.5 5.1 0 3.1.6 5.1 3.1 5.1 1.9 0 2.8-.9 3.7-2.5v-7.2Z" fill="#000"/>
  </g>
  <defs>
    <clipPath id="a">
      <path fill="#fff" d="M0 0h408.7v104.5H0z"/>
    </clipPath>
  </defs>
</svg>
