<svg version="1.1" id="Layer_1" xmlns="http://www.w3.org/2000/svg" xmlns:xlink="http://www.w3.org/1999/xlink" x="0px" y="0px" style="enable-background:new 0 0 1076.2 519.6;" xml:space="preserve" viewBox="100.3 133.2 875.6 253.2"> <style type="text/css"> 	.st0{fill:#FFFFFF;} </style> <g> 	<g> 		<path class="st0" d="M494.4,298c0.2-0.3,0.4-0.5,0.6-0.8c6.8-8.7,10.9-19.9,10.9-32c0-2.8-0.3-5.3-0.7-7.7 			c-1-6.8-3.2-13.2-6.5-18.8c0.1,0.1,0.2,0.3,0.4,0.4c-8.1-14.4-22.7-24.2-39.4-24.6c-0.1,0-0.2,0-0.2,0c-0.3,0-0.5,0-0.8,0 			c0,0-0.1,0-0.1,0c0,0-0.1,0-0.1,0c-0.3,0-0.5,0-0.8,0c-0.1,0-0.2,0-0.2,0c-16.7,0.4-31.3,10.2-39.4,24.6c0.1-0.2,0.2-0.3,0.4-0.4 			c-3.5,6-5.8,12.8-6.6,20.1c-0.3,2.1-0.5,4.3-0.5,6.6c0.1,27.6,21.4,50.3,47.2,50.3c14.3,0,27.2-6.9,35.8-17.6 			C494.3,298.1,494.4,298.1,494.4,298L494.4,298z M453.4,221.1c0.2,0,0.4-0.1,0.7-0.1c0.2,0,0.5-0.1,0.7-0.1 			c0.4-0.1,0.8-0.1,1.2-0.1c0.2,0,0.4,0,0.6-0.1c0.3,0,0.5,0,0.8,0c0.3,0,0.5,0,0.8,0c0.2,0,0.3,0,0.5,0c0.2,0,0.3,0,0.5,0 			c0.3,0,0.5,0,0.8,0c0.3,0,0.5,0,0.8,0c0.2,0,0.4,0,0.6,0.1c0.4,0,0.8,0.1,1.2,0.1c0.2,0,0.5,0.1,0.7,0.1c0.2,0,0.4,0.1,0.7,0.1 			c0.3,0,0.5,0.1,0.8,0.1c20,3.7,27.8,25.8,27.8,43.8c0,10.7-2.7,22.8-9.1,31.6c0,0,0,0,0,0c-0.2,0.3-0.4,0.5-0.6,0.8 			c-5.4,6.9-13.2,11.6-23.9,11.7c-1.6,0-3.2-0.1-4.8-0.3c-1.1-0.1-2.2-0.2-3.2-0.4c-3.5-0.9-6.6-2.3-9.3-4.2c0.1,0,0.2,0.1,0.2,0.1 			c-11.9-8.2-16.8-24.9-16.8-39.2c0-18.1,7.8-40.1,27.8-43.8C452.9,221.2,453.2,221.2,453.4,221.1L453.4,221.1z"></path> 		<path class="st0" d="M581.6,312c0,0.8-0.8,1.2-2.3,1.2h-14.8c-1.1,0-1.9-0.5-2.3-1.6l-2.3-5.1c-0.5-1-1-1-1.5-0.2 			c-4.2,5.6-10.3,8.3-18.3,8.3c-6.2,0-11.3-2-15-6.1c-3.8-4-5.6-9.8-5.6-17.2v-29.4c0-3.5-1.6-5.7-4.8-6.6l-3.1-0.9 			c-1.6-0.5-2.3-1-2.3-1.6c0-0.8,0.8-1.2,2.3-1.2h20.2c1.3,0,1.9,0.3,1.9,1c0,0.1-0.6,0.8-1.8,2c-1.2,1.2-1.8,4.1-1.8,8.7v30.3 			c0,8.8,4.5,13.2,13.6,13.2c3.4,0,6.8-1,10.3-3.1c3.8-2.3,5.7-5.1,5.7-8.3v-33.5c0-3.5-1.6-5.7-4.8-6.6l-3.1-0.9 			c-1.6-0.5-2.3-1-2.3-1.6c0-0.8,0.8-1.2,2.3-1.2h17.1c1.4,0,2,0.6,1.9,1.8l-0.6,9.7v40c0,3.6,1.7,5.8,5,6.4l4.1,0.9 			C580.8,310.7,581.6,311.3,581.6,312L581.6,312z"></path> 		<path class="st0" d="M642.4,312c0,0.8-0.8,1.2-2.3,1.2h-14.5c-1.1,0-1.9-0.5-2.5-1.6l-1.2-2.1c-0.4-0.7-0.9-1-1.5-1 			c-0.6,0-1.2,0.2-1.9,0.7c-5.2,3.6-11.3,5.4-18.3,5.4c-5.3,0-9.5-1.3-12.7-4c-3.5-2.9-5.3-6.9-5.3-11.9c0-7,3.4-12,10.1-14.9 			c2.1-0.9,5.3-1.8,9.7-2.8c5.5-1.3,9-2.1,10.7-2.6c5.2-1.6,7.8-4,7.8-7.5v-5.7c0-3.2-1.6-5.7-4.7-7.5c-2.5-1.4-5.4-2.1-8.6-2.1 			c-5.4,0-9.4,1.2-11.9,3.5c-2.6,2.3-4.5,6.3-5.6,11.9c-0.2,0.5-0.5,0.7-1,0.7c-0.6,0-0.9-0.3-0.9-0.9l-0.2-17.6 			c0-0.9,0.5-1.4,1.5-1.5c1.6-0.1,4.6-0.4,9.2-1c3.8-0.5,6.9-0.7,9.2-0.7c7.8,0,13.6,1.5,17.3,4.5c4.2,3.5,6.3,9.3,6.3,17.3v30.9 			c0,3.8,1.6,6,4.7,6.6l4.4,0.9C641.6,310.7,642.4,311.2,642.4,312L642.4,312z M620.4,297.9v-14.5c0-1.3-0.5-1.7-1.6-1.2l-19.2,5.6 			c-4.8,1.4-7.2,4.2-7.2,8.5c0,8.5,3.8,12.7,11.4,12.7c4.6,0,8.5-1.1,11.7-3.1C618.8,303.8,620.4,301.2,620.4,297.9L620.4,297.9z"></path> 		<path class="st0" d="M765.7,296c0,12.4-7.6,18.6-22.7,18.6c-6.6,0-13.5-1-20.6-2.9c-1.3-0.4-2.1-1.8-2.3-4.2 			c0-1.8-0.1-3.6-0.2-5.5c-0.1-1.9-0.3-4.5-0.7-7.7c-0.2-1.2,0.2-1.8,1-1.8c0.9,0,1.4,0.5,1.6,1.6c2.1,5.9,4.9,9.9,8.6,12 			c3.2,2,8,2.9,14.3,2.9c3,0,5.8-0.8,8.2-2.3c2.8-1.9,4.2-4.2,4.2-7.2c0-4.2-3.2-7.7-9.5-10.4c-5.8-2.4-11.6-4.9-17.4-7.5 			c-6.3-3.5-9.5-8.2-9.5-14.2c0-11.5,6.8-17.3,20.4-17.3c4.8,0,11.4,0.6,19.9,1.8c1,0.1,1.5,0.6,1.5,1.5l0.3,14.5 			c0,1.2-0.3,1.8-0.9,1.8c-0.5,0-0.9-0.4-1.2-1.3c-1.8-5.3-4.2-8.8-7.3-10.5c-2.7-1.6-7.1-2.3-13.2-2.3c-7.6,0-11.4,2.9-11.4,8.8 			c0,3.3,3.2,6.3,9.5,9.1c11.2,4.8,17.2,7.4,17.9,7.8C762.5,284.9,765.7,289.9,765.7,296L765.7,296z"></path> 		<path class="st0" d="M801.1,310.1l-5-0.9c-3.2-0.6-4.8-2.7-4.8-6.4v-16l0,0v-23.7l0.6-9.7c0.1-1.2-0.6-1.8-2.1-1.8H771 			c-1.6,0-2.3,0.4-2.3,1.2s0.8,1.3,2.3,1.6l5,0.9c3.2,0.6,4.8,2.7,4.8,6.4v14.6l0,0v25.1l-0.6,9.7c-0.1,1.2,0.6,1.8,2.1,1.8h18.9 			c1.6,0,2.3-0.4,2.3-1.2C803.5,310.9,802.7,310.4,801.1,310.1z"></path> 		<path class="st0" d="M714.6,310.4l-3.1-0.9c-3.2-0.9-4.8-3.1-4.8-6.6v-29.4c0-7.4-1.9-13.2-5.6-17.2c-3.8-4-8.8-6.1-15-6.1 			c-8,0-14.1,2.8-18.3,8.3c-0.5,0.9-1,0.8-1.5-0.2l-2.3-5.1c-0.5-1.1-1.3-1.6-2.3-1.6h-16.5c-1.6,0-2.3,0.4-2.3,1.2 			c0,0.9,0.8,1.4,2.3,1.6l6,0.9c3.3,0.5,5,2.6,5,6.4V291c0,0,0,0,0,0.1v10.7l-0.6,9.7c-0.1,1.2,0.6,1.8,2.1,1.8h17 			c1.6,0,2.3-0.4,2.3-1.2c0-0.6-0.8-1.1-2.3-1.6l-3.1-0.9c-3.2-0.9-4.8-3.1-4.8-6.6v-33.5c0-3.1,2-5.9,5.9-8.3 			c3.5-2.1,6.9-3.1,10.1-3.1c9.1,0,13.6,4.4,13.6,13.2v30.3c0,4.6-0.6,7.5-1.8,8.7c-1.2,1.2-1.8,1.9-1.8,2c0,0.7,0.6,1,1.9,1h20.2 			c1.6,0,2.3-0.4,2.3-1.2C717,311.4,716.2,310.9,714.6,310.4L714.6,310.4z"></path> 		<path class="st0" d="M791.9,227.5c0,2.1-0.9,3.9-2.5,5.5c-1.7,1.6-3.6,2.4-5.7,2.4c-1.6,0-3.1-0.6-4.3-1.7 			c-1.2-1.1-1.8-2.5-1.8-4.2c0-2.1,0.8-4,2.5-5.6c1.6-1.6,3.5-2.3,5.7-2.3C789.9,221.6,791.9,223.6,791.9,227.5L791.9,227.5z"></path> 		<path class="st0" d="M870.3,256.5c0,1-0.5,1.5-1.6,1.5l-16,0.4c3.3,3.6,5,8.2,5,13.7c0,6.5-2.5,11.7-7.5,15.8 			c-5,4.1-11.2,6.1-18.6,6.1h-4.2c-5.9,0-8.8,1.9-8.8,5.6c0,3.3,2.1,4.9,6.1,4.9c0.6,0,3-0.1,7.2-0.3c4.2-0.2,7.6-0.3,10.1-0.3 			c7.1,0,12.4,1.1,15.8,3.4c4,2.7,6,7.4,6,13.9c0,8-4,14.1-12,18.2c-6.2,3.2-13.8,4.8-22.7,4.8c-6.5,0-12-1.3-16.2-4 			c-5.2-3.2-7.8-7.9-7.8-14.1c0-6.8,3.2-12,9.7-15.5c-2.3-1.9-3.5-4.2-3.5-7c0-5.2,2.2-8.7,6.7-10.5c0.7-0.3,1-0.6,1-1 			s-0.3-0.7-0.9-1c-8.7-3.8-13-10.2-13-19c0-6.4,2.5-11.7,7.6-15.7c5-4,11.3-6.1,18.8-6.1c4.6,0,8.9,0.8,12.8,2.5l24.4-1 			c1.1,0,1.6,0.4,1.6,1.2L870.3,256.5L870.3,256.5z M855.6,323.6c0-3.8-1.3-6.5-3.8-8c-2.5-1.6-6.9-2.3-13-2.3 			c-2.8,0-6.9,0.1-12.2,0.2c-5.3,0.2-8.3,0.2-8.9,0.2c-3,1-4.5,4-4.5,8.9c0,4.6,2.6,8.1,7.8,10.5c4,1.9,8.7,2.8,14.1,2.8 			C848.7,335.9,855.6,331.8,855.6,323.6L855.6,323.6z M847.1,273.6c0-11.8-5.5-17.7-16.6-17.7c-9.6,0-14.4,4.8-14.4,14.5 			c0,5.6,1.4,10,4.3,13.3c2.8,3.3,7,5,12.5,5c4.6,0,8.1-1.4,10.6-4.1C845.9,281.9,847.1,278.2,847.1,273.6L847.1,273.6z"></path> 		<path class="st0" d="M934.5,310.4l-3.2-0.9c-3.2-0.9-4.8-3.1-4.8-6.6v-29.4c0-7.4-1.9-13.2-5.6-17.2c-3.8-4-8.8-6.1-15-6.1 			c-8,0-14.1,2.8-18.3,8.3c-0.2,0.2-0.4,0.2-0.7,0.2c-0.3-0.1-0.4-0.3-0.4-0.7v-28.6l0.6-9.7c0.1-1.2-0.6-1.8-2.1-1.8H865 			c-1.6,0-2.3,0.4-2.3,1.2c0,0.9,0.8,1.4,2.3,1.6l6,0.9c3.2,0.5,4.8,2.6,4.8,6.4v67.8l0,0v5.8l-0.6,9.7c-0.1,1.2,0.6,1.8,2.1,1.8h17 			c1.6,0,2.3-0.4,2.3-1.2c0-0.6-0.8-1.1-2.3-1.6l-3.1-0.9c-3.2-0.9-4.8-3.1-4.8-6.6v-33.5c0-3.2,1.9-6,5.7-8.3 			c3.3-2.1,6.7-3.1,10.3-3.1c9.1,0,13.6,4.4,13.6,13.2v31.5c0,3.8-0.6,6.3-1.8,7.5s-1.8,1.9-1.8,2c0,0.7,0.6,1,1.9,1h20.2 			c1.6,0,2.3-0.4,2.3-1.2C936.7,311.5,936,311,934.5,310.4L934.5,310.4z"></path> 		<path class="st0" d="M975.8,309.5c0.2,0.5,0.1,0.9-0.3,1.2c-3,2.2-7,3.3-12,3.3c-12,0-18-4.4-18-13.2V259H934 			c-1,0-1.5-0.5-1.5-1.4v-4.4c0-1,0.5-1.5,1.5-1.5h8.5c1.7,0,3-1.1,4-3.4l6.9-16.4c0.4-0.9,0.9-1.3,1.5-1.3c0.9,0,1.3,0.6,1.3,1.8 			v19.3h16.7c1,0,1.5,0.4,1.5,1.2v5c0,0.8-0.4,1.2-1.3,1.2h-16.8v38.9c0,7.7,3,11.6,9.1,11.6c3.3,0,6.1-0.7,8.5-2.1 			c0.6-0.6,1.1-0.5,1.5,0.1L975.8,309.5L975.8,309.5z"></path> 		<path class="st0" d="M458.7,315.3c-4,0.9-12.8,4.6-21.4,9.5h5.9c8.6-4.7,17.2-8.6,24.1-10.2c1-0.2,2-0.5,2.8-0.8L458.7,315.3 			L458.7,315.3z"></path> 		<path class="st0" d="M423.8,336.5c0,0,16.8-11.3,32.7-11.5c20.7-0.2,39.9,31.3,64.4,31.3c22.9,0,33-15.8,37.8-28.8l-1-0.5 			c-8.9,13.2-18.1,17.7-32.7,17.7c-25.6,0-34.2-25.6-68.5-25.2C438.4,319.7,423.6,333.8,423.8,336.5"></path> 	</g> 	<g> 		<g> 			<polygon class="st0" points="189,207.5 194.5,196.4 209.9,204.9 205,214.7 			"></polygon> 			<polygon class="st0" points="201.1,185.7 208.6,175.7 222.2,186.9 215.6,195.6 			"></polygon> 			<polygon class="st0" points="217,166.5 226.1,158 237.5,171.4 229.5,178.8 			"></polygon> 			<polygon class="st0" points="236,150.3 246.5,143.6 255.3,158.8 246.1,164.7 			"></polygon> 			<polygon class="st0" points="268.9,160.3 278.4,156.5 283.3,170.1 274.9,173.5 			"></polygon> 			<polygon class="st0" points="251.1,170.6 259.7,165 267,177.6 259.4,182.4 			"></polygon> 			<polygon class="st0" points="207.9,298.3 205.2,288.3 219.3,285.2 221.7,293.9 			"></polygon> 			<polygon class="st0" points="203.5,278.2 202.6,267.9 217.1,267.4 217.8,276.4 			"></polygon> 			<polygon class="st0" points="202.7,257.6 203.7,247.4 218.1,249.5 217.2,258.4 			"></polygon> 			<polygon class="st0" points="205.7,237.3 208.5,227.4 222.2,232 219.7,240.6 			"></polygon> 			<polygon class="st0" points="212.3,217.8 216.9,208.5 229.5,215.6 225.5,223.6 			"></polygon> 			<polygon class="st0" points="278.5,181.1 286.1,178 290,188.9 283.3,191.6 			"></polygon> 			<polygon class="st0" points="235.4,183.9 242.9,176.9 252.3,187.9 245.7,194 			"></polygon> 			<polygon class="st0" points="265,153.8 257.6,137.9 269.2,133.2 275.1,149.7 			"></polygon> 			<polygon class="st0" points="264.3,189.3 271.2,184.9 277,194.9 270.9,198.7 			"></polygon> 			<polygon class="st0" points="251.7,199.9 257.8,194.3 265.2,203.1 260,208 			"></polygon> 			<polygon class="st0" points="222.3,199.8 228.5,191.5 239.6,200.7 234.2,207.9 			"></polygon> 			<polygon class="st0" points="241.3,212.6 246.2,206 255.2,213.3 250.9,219.1 			"></polygon> 			<polygon class="st0" points="233.3,226.9 237,219.6 247.1,225.2 243.9,231.6 			"></polygon> 			<polygon class="st0" points="228.1,242.5 230.3,234.6 241.3,238.3 239.3,245.2 			"></polygon> 			<polygon class="st0" points="225.7,258.8 226.5,250.6 237.9,252.2 237.2,259.4 			"></polygon> 			<polygon class="st0" points="226.3,275.2 225.6,267 237.2,266.6 237.7,273.7 			"></polygon> 			<polygon class="st0" points="227.7,283.3 239,280.8 240.8,287.7 229.8,291.2 			"></polygon> 			<polygon class="st0" points="183.6,305.2 180.4,293.2 197.5,289.4 200.4,299.9 			"></polygon> 			<polygon class="st0" points="178.3,280.9 177.3,268.4 194.8,267.8 195.7,278.7 			"></polygon> 			<polygon class="st0" points="177.4,255.9 178.6,243.5 196,246 194.9,256.9 			"></polygon> 			<polygon class="st0" points="181,231.2 184.4,219.2 201,224.8 198,235.3 			"></polygon> 		</g> 		<g> 			<polygon class="st0" points="347.9,280.7 355.2,290.8 340.4,300.4 334.1,291.5 			"></polygon> 			<polygon class="st0" points="361.5,301.6 366.8,312.9 350.6,319.7 345.9,309.8 			"></polygon> 			<polygon class="st0" points="371.1,324.7 374.3,336.7 357.1,340.5 354.3,329.9 			"></polygon> 			<polygon class="st0" points="376.3,349.1 377.3,361.5 359.8,362.1 358.9,351.2 			"></polygon> 			<polygon class="st0" points="352.1,373.4 351,383.7 336.7,381.5 337.6,372.6 			"></polygon> 			<polygon class="st0" points="351.4,352.8 352.2,363.1 337.7,363.6 337,354.6 			"></polygon> 			<polygon class="st0" points="258.9,254.7 269,257.1 265.1,271 256.3,269 			"></polygon> 			<polygon class="st0" points="278.8,260.3 288.2,264.4 281.9,277.4 273.6,273.8 			"></polygon> 			<polygon class="st0" points="297.2,269.3 305.8,275 297.3,286.7 289.8,281.7 			"></polygon> 			<polygon class="st0" points="313.8,281.5 321.2,288.6 310.7,298.6 304.3,292.3 			"></polygon> 			<polygon class="st0" points="328,296.5 333.9,304.8 321.8,312.7 316.6,305.4 			"></polygon> 			<polygon class="st0" points="329.2,372.2 328.4,380.3 317,378.6 317.7,371.5 			"></polygon> 			<polygon class="st0" points="347,332.7 349.7,342.7 335.5,345.8 333.2,337.1 			"></polygon> 			<polygon class="st0" points="359.7,373 377.2,374 375.9,386.4 358.5,383.8 			"></polygon> 			<polygon class="st0" points="328.7,355.7 329.3,363.9 317.8,364.3 317.2,357.2 			"></polygon> 			<polygon class="st0" points="325.2,339.7 327.3,347.6 316,350.1 314.2,343.1 			"></polygon> 			<polygon class="st0" points="339.1,313.7 343.5,323.1 330.2,328.6 326.3,320.5 			"></polygon> 			<polygon class="st0" points="318.9,324.5 322.4,332 311.7,336.4 308.7,329.9 			"></polygon> 			<polygon class="st0" points="310,310.7 314.8,317.4 305.1,323.7 300.9,317.8 			"></polygon> 			<polygon class="st0" points="298.7,298.8 304.6,304.5 296.2,312.4 291.1,307.4 			"></polygon> 			<polygon class="st0" points="285.5,289 292.3,293.6 285.5,302.9 279.5,298.9 			"></polygon> 			<polygon class="st0" points="270.7,281.9 278.2,285.1 273.2,295.5 266.6,292.7 			"></polygon> 			<polygon class="st0" points="262.9,279.3 259.8,290.4 252.8,288.8 254.9,277.4 			"></polygon> 			<polygon class="st0" points="264.2,230.1 276.4,232.9 271.6,249.8 261,247.3 			"></polygon> 			<polygon class="st0" points="288.2,236.8 299.7,241.8 292,257.5 282,253.2 			"></polygon> 			<polygon class="st0" points="310.7,247.7 321.1,254.6 310.7,268.8 301.6,262.7 			"></polygon> 			<polygon class="st0" points="330.8,262.5 339.8,271.2 327,283.2 319.2,275.6 			"></polygon> 		</g> 		<g> 			<polygon class="st0" points="205.4,383.7 192.9,384.7 192.3,367.2 203.2,366.3 			"></polygon> 			<polygon class="st0" points="180.4,384.6 168,383.3 170.5,366 181.4,367.1 			"></polygon> 			<polygon class="st0" points="155.8,381 143.7,377.5 149.3,360.9 159.8,363.9 			"></polygon> 			<polygon class="st0" points="132.1,373 120.9,367.5 129.4,352.1 139.2,357 			"></polygon> 			<polygon class="st0" points="123.7,339.7 115.4,333.5 124.6,322.3 131.8,327.7 			"></polygon> 			<polygon class="st0" points="141.7,349.7 132.4,345.1 139.4,332.4 147.5,336.4 			"></polygon> 			<polygon class="st0" points="273.3,320.6 266.1,328 256.2,317.5 262.4,311.1 			"></polygon> 			<polygon class="st0" points="258.4,334.8 250,340.8 242.1,328.7 249.4,323.4 			"></polygon> 			<polygon class="st0" points="241.2,346 231.9,350.5 226.2,337.1 234.3,333.3 			"></polygon> 			<polygon class="st0" points="222.2,354 212.2,356.7 209.1,342.6 217.8,340.2 			"></polygon> 			<polygon class="st0" points="202.1,358.5 191.8,359.3 191.3,344.8 200.3,344.1 			"></polygon> 			<polygon class="st0" points="136.4,320.7 129.9,315.8 137.2,306.9 142.9,311.2 			"></polygon> 			<polygon class="st0" points="161.1,356.2 151.3,353.4 155.9,339.7 164.5,342.1 			"></polygon> 			<polygon class="st0" points="120.1,346.4 110.3,360.9 100.3,353.4 111.4,339.9 			"></polygon> 			<polygon class="st0" points="150.8,328.7 143.5,325 149,314.9 155.5,318.1 			"></polygon> 			<polygon class="st0" points="166.4,333.9 158.5,331.6 162.2,320.7 169.1,322.7 			"></polygon> 			<polygon class="st0" points="181.5,359.2 171.3,358.2 173.4,343.9 182.3,344.8 			"></polygon> 			<polygon class="st0" points="182.6,336.3 174.5,335.5 176.1,324 183.3,324.8 			"></polygon> 			<polygon class="st0" points="199.1,335.7 190.9,336.4 190.4,324.8 197.6,324.2 			"></polygon> 			<polygon class="st0" points="215.1,332.2 207.2,334.3 204.7,323 211.6,321.2 			"></polygon> 			<polygon class="st0" points="230.2,325.8 222.8,329.3 218.3,318.7 224.8,315.6 			"></polygon> 			<polygon class="st0" points="244,316.8 237.3,321.6 231,311.9 236.8,307.7 			"></polygon> 			<polygon class="st0" points="250.2,311.4 242.3,303 247.2,297.9 255.9,305.5 			"></polygon> 			<polygon class="st0" points="291.8,337.8 283.1,346.8 271,334 278.6,326.2 			"></polygon> 			<polygon class="st0" points="273.7,354.9 263.5,362.2 253.9,347.6 262.8,341.2 			"></polygon> 			<polygon class="st0" points="252.8,368.6 241.5,374 234.7,357.8 244.5,353.1 			"></polygon> 			<polygon class="st0" points="229.8,378.3 217.7,381.6 213.9,364.4 224.5,361.6 			"></polygon> 		</g> 	</g> </g> </svg>