<?xml version="1.0" encoding="utf-8"?>
<!-- Generator: Adobe Illustrator 26.0.2, SVG Export Plug-In . SVG Version: 6.00 Build 0)  -->
<svg version="1.1" id="Layer_1" xmlns="http://www.w3.org/2000/svg" xmlns:xlink="http://www.w3.org/1999/xlink" x="0px" y="0px"
	 viewBox="0 0 1920 1080" style="enable-background:new 0 0 1920 1080;" xml:space="preserve">
<style type="text/css">
	.st0{fill:#005050;}
</style>
<g>
	<g>
		<g>
			<path class="st0" d="M960,101.8L960,101.8H807.3H654.7L731,234l76.3,132.2l76.3,132.2L960,630.6l76.3-132.2l76.3-132.2
				L1036.3,234L960,101.8z M1016.2,486.8L960,584.2l-56.2-97.4l-69.6-120.6l69.6-120.6l56.2-97.4l56.2,97.4l69.6,120.6L1016.2,486.8
				z"/>
			<polygon class="st0" points="1098.7,101.8 1112.2,125.3 1224.6,125.3 1168.3,222.9 1181.8,246.4 1265.3,101.8 			"/>
		</g>
	</g>
	<g>
		<g>
			<path class="st0" d="M19.4,860.1c-1-2.1-0.3-3.6,1.7-3.6h14.7c1.2-0.2,2.5,0.1,3.5,0.7c1,0.7,1.8,1.7,2.2,2.8l38.2,78.4h0.3
				l38.3-78.4c0.4-1.2,1.2-2.2,2.2-2.8c1-0.7,2.3-0.9,3.5-0.7h14.7c2.1,0,2.9,1.5,1.7,3.6L83,975.7c-0.7,1.5-1.4,2-2.6,2h-1
				c-1.2,0-1.9-0.5-2.5-2L19.4,860.1z"/>
			<path class="st0" d="M261.6,854.2c16.2,0.3,31.6,7,43,18.6c11.3,11.6,17.7,27.1,17.7,43.4c0,16.2-6.3,31.8-17.7,43.4
				c-11.3,11.6-26.8,18.3-43,18.6c-34.5,0-61.1-27.1-61.1-62C200.4,881.4,227.1,854.2,261.6,854.2z M261.6,960.2
				c24.9,0,41.7-20.6,41.7-44c0-23.4-16.7-44.1-41.7-44.1c-24.9,0-41.5,20.5-41.5,44.1C220.1,939.8,236.8,960.3,261.6,960.2
				L261.6,960.2z"/>
			<path class="st0" d="M470.4,958.6c2.9,0,3.4,0.7,3.4,3.4v10.4c0,2.9-0.7,3.6-3.4,3.6h-70c-2.6,0-3.4-0.9-3.4-3.6V860.1
				c0-2.7,0.8-3.6,3.4-3.6H413c2.5,0,3.4,0.9,3.4,3.6v98.5H470.4z"/>
			<path class="st0" d="M610.1,856.5c2.9,0,3.6,0.9,3.6,3.6V871c0,2.9-0.9,3.6-3.6,3.6h-34.5v97.8c0,2.9-0.7,3.6-3.4,3.6h-12.6
				c-2.6,0-3.4-0.9-3.4-3.6v-97.8h-34.7c-2.5,0-3.4-0.9-3.4-3.6v-10.9c0-2.7,0.9-3.6,3.4-3.6H610.1z"/>
			<path class="st0" d="M702.2,972.5c0,2.9-0.9,3.6-3.4,3.6h-12.6c-2.6,0-3.4-0.9-3.4-3.6V860.1c0-2.7,0.8-3.6,3.4-3.6h44.6
				c20,0,42,9.9,42,37.5c0,21.9-13.8,32.6-29.6,36l28.5,41.5c1.9,2.9,0.7,4.5-2.6,4.5h-13.6c-1.2,0-2.4-0.4-3.5-1
				c-1-0.6-1.9-1.5-2.5-2.6l-28.4-41h-19.1L702.2,972.5z M728.9,913.6c18.4,0,24.2-8.6,24.2-19.8c0-11.2-5.7-19.4-24.2-19.4h-26.6
				v39.3H728.9z"/>
			<path class="st0" d="M901.9,854.2c16.2,0.3,31.6,7,43,18.6c11.3,11.6,17.7,27.1,17.7,43.4c0,16.2-6.3,31.8-17.7,43.4
				c-11.3,11.6-26.8,18.3-43,18.6c-34.5,0-61.1-27.1-61.1-62C840.7,881.4,867.4,854.2,901.9,854.2z M901.9,960.2
				c24.9,0,41.6-20.6,41.6-44c0-23.4-16.7-44.1-41.6-44.1c-24.9,0-41.4,20.6-41.4,44.1C860.4,939.9,877.1,960.3,901.9,960.2
				L901.9,960.2z"/>
			<path class="st0" d="M1057.1,898.2h-0.3v74.2c0,2.9-0.9,3.6-3.4,3.6h-12.5c-2.9,0-3.6-0.9-3.6-3.6V856.5c0-1.2,0.5-1.7,1.9-1.7
				h0.9c0.6,0,1.1,0.1,1.6,0.4c0.5,0.3,0.9,0.7,1.2,1.1l76.1,78h0.3v-74.2c0-2.7,0.7-3.6,3.4-3.6h12.5c2.9,0,3.6,0.9,3.6,3.6v115.8
				c0,1.3-0.5,1.9-1.9,1.9h-0.9c-0.6,0-1.1-0.1-1.6-0.4c-0.5-0.3-0.9-0.6-1.2-1.1L1057.1,898.2z"/>
			<path class="st0" d="M1351.9,856.5c34.5,0,60.3,24.9,60.3,59.8c0,34.8-25.7,59.8-60.3,59.8h-42.8c-2.6,0-3.4-0.9-3.4-3.6V860.1
				c0-2.7,0.8-3.6,3.4-3.6H1351.9z M1325.3,874.3v84h26.6c24.8,0,40.6-18.6,40.6-42c0-23.4-15.9-42.1-40.6-42.1L1325.3,874.3z"/>
			<path class="st0" d="M1593.2,972.5c1,2.1,0.3,3.6-1.7,3.6h-14.7c-1.2,0.1-2.4-0.1-3.5-0.8c-1-0.7-1.8-1.6-2.2-2.8l-10.9-22.5h-55
				l-10.9,22.5c-0.4,1.2-1.1,2.2-2.2,2.9c-1,0.7-2.3,0.9-3.5,0.7h-14.7c-2.1,0-2.9-1.5-1.7-3.6l57.4-115.6c0.7-1.5,1.4-2.1,2.6-2.1
				h1c1.2,0,1.9,0.5,2.6,2.1L1593.2,972.5z M1532.8,891.9L1513,932h39.6l-19.6-40.1H1532.8z"/>
			<path class="st0" d="M1730.6,856.5c2.9,0,3.6,0.9,3.6,3.6V871c0,2.9-0.9,3.6-3.6,3.6h-34.5v97.8c0,2.9-0.7,3.6-3.4,3.6h-12.7
				c-2.5,0-3.4-0.9-3.4-3.6v-97.8h-34.7c-2.6,0-3.4-0.9-3.4-3.6v-10.9c0-2.7,0.9-3.6,3.4-3.6H1730.6z"/>
			<path class="st0" d="M1900.6,972.5c1,2.1,0.3,3.6-1.7,3.6h-14.7c-1.2,0.1-2.4-0.1-3.5-0.8c-1-0.7-1.8-1.6-2.2-2.8l-10.9-22.5
				h-54.9l-10.9,22.5c-0.3,1.2-1.1,2.2-2.2,2.9c-1.1,0.7-2.3,0.9-3.5,0.7h-14.7c-2.1,0-2.9-1.5-1.7-3.6l57.4-115.6
				c0.7-1.5,1.4-2.1,2.6-2.1h1c1.2,0,1.9,0.5,2.6,2.1L1900.6,972.5z M1840.1,891.9l-19.8,40.1h39.6l-19.6-40.1H1840.1z"/>
		</g>
	</g>
</g>
</svg>
