<svg
  version="1.1"
  id="Layer_1"
  xmlns="http://www.w3.org/2000/svg"
  xmlns:xlink="http://www.w3.org/1999/xlink"
  x="0px"
  y="0px"
  style="enable-background:new 0 0 522 265.3;"
  xml:space="preserve"
  viewBox="50.8 69.94 420.3 125.46"
>
  <style type="text/css">
    .st0{fill:url(#SVGID_1_);}
    .st1{fill:url(#SVGID_00000175316482424388275690000012204587865902525862_);}
 	.st2{fill:url(#SVGID_00000071529409112162566840000014940638888662066347_);} 	.st3{fill:#FFFFFF;}
  </style>
  <g>
    <linearGradient
      id="SVGID_1_"
      gradientUnits="userSpaceOnUse"
      x1="49.7336"
      y1="79.6965"
      x2="154.5236"
      y2="191.8565"
      gradientTransform="matrix(1 0 0 -1 0 265.8898)"
    >
      <stop offset="0" style="stop-color:#A354F1"></stop>
      <stop offset="1" style="stop-color:#2746E7"></stop>
    </linearGradient>
    <path
      class="st0"
      d="M167.1,72.3c-2.8-3.6-8.2-2.3-11.6-1.2L90.7,94.6c-3.9,1.4-12.4,4.5-13,4.8c-8.5,3.8-6.9,8.2,0.8,9.1 		c5.4,0.7,3.6,0.2,10.5,1.1l17.4,2.1c0.5,0.1,1,0.1,1.4,0.2l1.8,0.3c10.7,1.7,12.8,4.2,12.8,15.2l0.1,17.5c0,6.9-0.2,5.1-0.1,10.5 		c0.1,7.8,4.2,9.8,9,1.8c4.1-6.9,35.1-73.3,35.1-73.3C167.7,80.7,169.6,75.6,167.1,72.3L167.1,72.3z"
    ></path>
    <linearGradient
      id="SVGID_00000123421086932590398660000015652066178963856771_"
      gradientUnits="userSpaceOnUse"
      x1="56.5842"
      y1="73.3059"
      x2="161.3642"
      y2="185.4659"
      gradientTransform="matrix(1 0 0 -1 0 265.8898)"
    >
      <stop offset="0" style="stop-color:#A354F1"></stop>
      <stop offset="1" style="stop-color:#2746E7"></stop>
    </linearGradient>
    <path
      style="fill:url(#SVGID_00000123421086932590398660000015652066178963856771_);"
      d="M56.4,195.4c1.2-0.7,2.7-1.2,3.8-2.2 		c14.5-13.3,29-26.7,43.4-40.1c2.5-2.3,3.2-5.3,0.3-7.9c-2.7-2.4-5.5-1.7-8.1,0.6c-3.9,3.6-7.8,7.2-11.7,10.8 		C74,166.1,63.8,175.6,53.6,185c-2.2,2-3.6,4.2-2.3,7.3C52.3,194.4,54.2,195,56.4,195.4L56.4,195.4z"
    ></path>
    <linearGradient
      id="SVGID_00000142155869176483935580000015283164351536774075_"
      gradientUnits="userSpaceOnUse"
      x1="40.641"
      y1="88.1989"
      x2="145.421"
      y2="200.3589"
      gradientTransform="matrix(1 0 0 -1 0 265.8898)"
    >
      <stop offset="0" style="stop-color:#A354F1"></stop>
      <stop offset="1" style="stop-color:#2746E7"></stop>
    </linearGradient>
    <path
      style="fill:url(#SVGID_00000142155869176483935580000015283164351536774075_);"
      d="M84.1,125.5c-6.8,6.3-13.7,12.6-20.4,19 		c-1.6,1.5-2,3.3-0.6,5.4c1.1,1.6,2.5,2.4,4.4,2.9c0.6-0.2,1.4-0.3,2-0.7c7.9-6.2,15.5-12.8,22.1-20.4c1.9-2.2,0.3-4.3-1.3-5.9 		C88.3,123.9,86.1,123.6,84.1,125.5L84.1,125.5z"
    ></path>
  </g>
  <g>
    <g>
      <path
        id="Path_2730"
        class="st3"
        d="M399.1,103.8l0,62.6c0,1.2-0.8,2.1-2,2h-15.5c-1.2,0-1.9-0.8-2-2l-0.5-7.2 			c-4,6.5-10.9,10.5-19,11c-14.6,0-24.1-10.9-24.1-28.7v-37.7c0-1.2,0.8-2.1,2-2H353c0.8-0.1,1.7,0.5,2,1.4c0.1,0.2,0.1,0.4,0,0.6 			v33.6c0,10.8,6.4,13.7,11.5,13.7c7,0,12.2-4.9,12.5-11.9v-35.5c0-1.2,0.8-2.1,2-2h16.1c0.8-0.1,1.7,0.5,2,1.4 			C399.1,103.3,399.1,103.5,399.1,103.8"
      ></path>
      <path
        id="Path_2731"
        class="st3"
        d="M253.8,103.6H269c0.8-0.1,1.7,0.5,2,1.4c0.1,0.2,0.1,0.4,0,0.6l0,62.6c0,1.2-0.8,2.1-2,2 			h-15.1c-0.8,0.1-1.7-0.5-2-1.4c-0.1-0.2-0.1-0.4-0.1-0.6l0-62.6C251.8,104.4,252.7,103.5,253.8,103.6"
      ></path>
      <path
        id="Path_2732"
        class="st3"
        d="M232.3,146.2c1.1-0.9,2-0.9,2.9,0l9.6,9.4c0.8,0.9,0.9,2.1,0.2,2.8c0,0,0,0-0.1,0.1 			c-6.1,7.4-15.4,11.7-25.7,11.9c-18.9,0-33.6-15.4-33.6-35c0.1-19.7,14.1-34.3,33.6-35c9.2-0.3,18.7,4.2,25.3,11.8 			c0.8,1,0.7,2.2-0.1,2.9l-9.6,9.5c-0.5,0.8-1.7,0.9-2.6,0.2c-0.1-0.1-0.2-0.2-0.3-0.3c-3.4-3.3-7.8-5.2-12.1-5.2 			c-8.9,0.3-15.1,7.1-14.9,16.1c0,9.1,6.2,16.1,14.9,16.1C224.7,151.2,229.1,149.4,232.3,146.2"
      ></path>
      <path
        id="Path_2737"
        class="st3"
        d="M471.1,130.7v37.4c0,1.2-0.8,2.1-2,2H453c-0.8,0.1-1.7-0.5-2-1.4c-0.1-0.2-0.1-0.4,0-0.6 			v-33.3c0-10.8-5.9-13.9-11.3-13.9c-6.9,0.5-12,5.4-12.7,12.3v35c0,1.2-0.8,2.1-2,2H409c-0.9,0.1-1.7-0.5-2-1.4 			c-0.1-0.2-0.1-0.4,0-0.6l0-62.6c0-1.2,0.8-2.1,2-2h15.5c1.2,0,1.9,0.8,2,2l0.6,8.4c3.9-7.3,11.4-11.8,20.2-12 			C460.6,102,471.1,112.8,471.1,130.7"
      ></path>
      <path
        id="Path_2739"
        class="st3"
        d="M328.8,108.4l-4.4,11.7c-0.4,1.4-1.8,2.1-3.3,1.5c-1.8-0.7-3.7-1.1-5.5-1.1 			c-8,0.1-13.7,6.3-13.3,14.4v33.2c0,1.2-0.8,2.1-2,2h-16.1c-0.9,0.1-1.7-0.5-2-1.4c-0.1-0.2-0.1-0.4,0-0.6l0-62.6 			c0-1.2,0.8-2.1,2-2h15.4c1.2,0,1.9,0.8,2,2l0.5,7.8c2.8-6.7,9.2-11,16.9-11.3c3.2-0.1,6.5,1.1,9.1,3.4 			C329,106.3,329.3,107.5,328.8,108.4"
      ></path>
    </g>
    <circle class="st3" cx="261.9" cy="85.8" r="9.8"></circle>
  </g>
</svg>
