<?xml version="1.0" encoding="UTF-8"?><svg id="Layer_2" xmlns="http://www.w3.org/2000/svg" viewBox="0 0 803.56 250.73"><defs><style>.cls-1{fill:#001627;}.cls-1,.cls-2{stroke-width:0px;}.cls-2{fill:#0097ff;}</style></defs><g id="Layer_1-2"><path class="cls-2" d="M125.87,43.02c-45.48,0-82.35,36.87-82.35,82.34s36.87,82.34,82.35,82.34,82.34-36.86,82.34-82.34-36.87-82.34-82.34-82.34ZM186.72,156.04h-17v-43.84c0-1.64-.92-3.23-2.46-3.78-2.08-.75-4.06.17-4.95,1.75-.3.55-1.49,2.73-1.84,3.38h0l-23.1,42.5h-22.39l-23.1-42.5c-.36-.66-1.54-2.84-1.85-3.38-.83-1.48-2.61-2.37-4.55-1.87-1.75.45-2.86,2.19-2.86,3.99v43.76s-19.12,0-19.12,0v-47.91s.4-20.18,19.53-20.18c15.42,0,21.77,12.31,23.69,15.95l18.4,34.85,18.4-34.85c1.92-3.63,8.26-15.95,23.68-15.95,19.13,0,19.54,20.18,19.54,20.18v47.91ZM223.05,85.55c3.49-18.97,28.69-12.86,28.69-12.86,0,0-45.99-11.87-81.6-39.56-21.85-17,6.93-33.14,6.93-33.14,0,0-66.77,32.14-89.02,28.19C68.34,24.69,73.2.49,73.2.49c0,0-28.41,67.46-37.59,79.13C17.31,102.86,0,74.18,0,74.18c0,0,30.06,65.6,30.66,82.1.93,25.57-22.92,22.45-30.66,21.74,10.37,3.46,54.47,14.09,83.09,40.56,16.63,15.39-7.91,32.15-7.91,32.15,0,0,64.79-32.64,86.55-29.18,21.76,3.46,17.31,28.69,17.31,28.69,0,0,22.26-72.7,46.49-86.05,13.81-7.61,26.21,12.36,26.21,12.36,0,0-33.14-66.76-28.69-91ZM126.86,217.6c-50.94,0-92.24-41.29-92.24-92.23S75.92,33.13,126.86,33.13s92.23,41.29,92.23,92.23-41.29,92.23-92.23,92.23Z"/><path class="cls-1" d="M453.74,110.84c-2.14-2.37-4.75-4.28-7.78-5.65-3.04-1.37-6.57-2.06-10.51-2.06-4.55,0-8.58.79-11.95,2.35-3.38,1.56-6.25,3.71-8.52,6.38-2.29,2.7-4.05,5.91-5.22,9.58-1.19,3.7-1.79,7.73-1.79,11.97s.58,8.35,1.73,11.98c1.12,3.56,2.89,6.67,5.24,9.22,2.34,2.54,5.42,4.58,9.16,6.03,3.79,1.48,8.43,2.22,13.81,2.22,6.85,0,13.12-.99,18.68-2.93l-.94-9.32c-3.13.8-6.45,1.6-8.19,1.76-1.9.16-4.29.39-6.87.39-6.43,0-11.18-1.32-14.53-4.01-4.68-3.78-5.15-9.96-5.18-10.23-.03-.56-.14-2.24-.14-2.24,0,0,1.63.04,2.21.04h36.97c.06-.54.12-1.15.18-1.84.12-1.37.17-2.79.17-4.25,0-3.84-.56-7.48-1.67-10.85-1.08-3.29-2.71-6.17-4.84-8.56ZM445.26,127.88h-21.47c-.61,0-.71-.03-2.36-.07l.33-2.34c.47-3.77,1.77-7.03,3.81-9.21,2.22-2.4,5.46-3.63,9.6-3.63,3.74,0,6.72,1.31,8.85,3.87,1.91,2.3,3.01,5.28,3.27,8.85l.17,2.54s-1.64-.02-2.21-.02Z"/><path class="cls-1" d="M659.24,122.82c-1.52-1.66-3.41-3.08-5.61-4.21-2.38-1.23-5.03-2.42-7.89-3.55l-6.99-2.68c-1.21-.48-2.4-.98-3.59-1.49-1.31-.57-2.51-1.29-3.57-2.13-1.14-.89-2.06-2-2.73-3.29-.68-1.31-1.02-2.92-1.02-4.79,0-2.28.44-4.19,1.3-5.68.87-1.5,2.02-2.65,3.39-3.44,1.27-.72,2.72-1.23,4.3-1.5,3.78-.65,7.46-.41,10.4-.08,1.76.2,3.37.46,4.82.8,1.45.33,2.84.75,4.12,1.24l1.55.6,2.69-9.58c-3.14-1.02-6.1-1.81-8.91-2.38-3.33-.68-6.96-1.01-10.8-1.01-4.16,0-7.95.5-11.27,1.5-3.24.98-6.05,2.43-8.34,4.32-2.26,1.86-4.03,4.21-5.26,6.97-1.25,2.78-1.89,6.06-1.89,9.75,0,3.04.37,5.66,1.12,7.79.73,2.09,1.77,3.91,3.08,5.4,1.34,1.51,2.98,2.82,4.9,3.93,1.99,1.15,4.31,2.23,6.86,3.2l7.12,2.68c1.41.56,2.78,1.12,4.19,1.74,1.46.64,2.81,1.46,3.98,2.43,1.25,1.01,2.27,2.27,3.06,3.73.8,1.52,1.21,3.39,1.21,5.56,0,4.41-1.7,7.75-5.07,9.94-3.09,2.02-7.33,3.05-12.59,3.05-3.4,0-6.65-.34-9.66-1.04-2.35-.54-4.84-1.3-7.43-2.25l-2.6,10.8c1.38.52,2.65.95,3.87,1.32,1.74.53,3.51.96,5.25,1.3,1.75.33,3.62.58,5.57.73,1.95.15,4.23.23,6.75.23,5,0,9.47-.63,13.26-1.89,3.75-1.23,6.94-2.97,9.48-5.14,2.5-2.15,4.43-4.75,5.76-7.75,1.32-3.01,2-6.41,2-10.1s-.44-6.61-1.3-9.01c-.84-2.35-2.02-4.38-3.53-6.02Z"/><path class="cls-1" d="M751.64,108.86c-1.68-1.43-3.77-2.62-6.2-3.53-5.44-2.02-12.55-2.39-20.87-1.07-2.7.43-5.43,1.07-8.15,1.91l2.29,8.52c4.26-1.27,8.25-1.9,11.99-1.9,2.07,0,3.95.13,5.61.37,1.84.27,3.43.8,4.73,1.6,1.39.84,2.48,2,3.26,3.47.77,1.44,1.15,3.27,1.15,5.44,0,0,.16,1.22-.29,1.76-.44.53-1.49.49-2.1.45l-.34-.03c-2.39-.19-4.64-.29-6.68-.29-2.99,0-5.99.33-8.95.95-2.9.62-5.57,1.65-7.9,3.04-2.26,1.37-4.14,3.21-5.57,5.48-1.39,2.21-2.07,6.09-2.07,9.45s.6,6.12,1.78,8.7c2.88,6.34,8.27,9.55,16,9.55,8.52,0,14.91-5.18,14.91-5.18,0,0,1.91-1.32,3.07-1.28,1.22.04,1.62,1.37,1.62,1.37l1.13,4.18h7.75v-35.68c0-7.95-2.08-13.77-6.17-17.27ZM745.12,140.92c0,2.29-.79,6.62-6.02,9.82-1.81,1.1-5.54,1.8-7.97,1.8-4.49,0-7.59-2.33-8.31-6.23-.9-5.02,2.8-9.68,6.79-10.53,1.34-.28,2.86-.55,5-.55h7.42l3.05.02.03,5.66Z"/><path class="cls-1" d="M383.99,82.26c-5.05,0-12.49.43-16.63,10.73l-19.81,50.84-.13.25-.13-.25-19.8-50.84c-4.15-10.3-11.58-10.73-16.63-10.73-9.53,0-14.9,5.95-14.9,15.14v65.44h14.74v-60.33c0-1.12.77-2.07,1.84-2.28,1.06-.2,2.12.4,2.51,1.45l23.38,59.46-.02.04h18.06l-.02-.04,23.38-59.46c.39-1.05,1.45-1.65,2.51-1.45,1.07.22,1.84,1.17,1.84,2.28v60.33h14.74v-65.44c0-9.2-5.37-15.14-14.9-15.14Z"/><path class="cls-1" d="M596.13,111.32c-2.38-2.52-5.3-4.52-8.64-5.92-3.36-1.42-7.13-2.13-11.19-2.13s-7.71.72-11.07,2.13c-3.36,1.42-6.3,3.42-8.71,5.95-2.44,2.53-4.37,5.66-5.76,9.29-1.4,3.65-2.1,7.77-2.1,12.25s.69,8.64,2.05,12.34c1.36,3.67,3.26,6.83,5.65,9.4,2.39,2.56,5.29,4.57,8.63,5.98,3.36,1.41,7.17,2.12,11.3,2.12s8.06-.71,11.43-2.12c3.34-1.41,6.24-3.42,8.63-5.98,2.39-2.56,4.25-5.71,5.52-9.36,1.31-3.72,1.96-7.88,1.96-12.38s-.69-8.6-2.05-12.28c-1.35-3.62-3.25-6.74-5.64-9.29ZM587.44,146.98c-2.57,3.77-6.43,5.77-11.15,5.77s-8.59-1.99-11.18-5.76c-2.45-3.53-3.69-8.28-3.69-14.11s1.25-10.55,3.71-14.02c2.6-3.69,6.46-5.63,11.16-5.63s8.56,1.95,11.13,5.64c2.41,3.46,3.64,8.17,3.64,14s-1.21,10.57-3.62,14.1Z"/><path class="cls-1" d="M526.89,109.19c-.53.49-1.22.56-2.47.63-.71.04-1.34-.48-1.69-1.1l-2.27-3.96h-7.74v35.68"/><path class="cls-1" d="M512.72,162.17v-57.4h7.74l1.4,2.44s.58,1.02,2.42.36c1.85-.66,7.66-5.01,21.46-1.78l-1.33,8.44s-12.79-3.29-18.13,3.69c0,0-1.05,1.65-1.21,4.69v39.64l-12.35-.07Z"/><path class="cls-1" d="M770.53,162.17v-57.4h7.74l1.4,2.44s.57,1.02,2.43.36c1.85-.66,7.65-5.01,21.46-1.78l-1.33,8.44s-12.8-3.29-18.13,3.69c0,0-1.05,1.65-1.22,4.69v39.64l-12.35-.07Z"/><path class="cls-1" d="M500.09,152.98c-2.78.48-6,.39-8.14-.22-1.45-.41-2.69-1.2-3.67-2.34-.91-1.06-1.62-2.49-2.08-4.24-.43-1.64-.65-3.76-.65-6.33v-23.42c0-.6.02-2.17.02-2.17l2.18-.03h11.94v-8.85h-11.94c-1.59-.04-2.2-1.73-2.2-2.94v-14.56l-22.23,26.36h7.44c.61,0,2.15-.01,2.15-.01l.05,2.21v27.04c0,6.89,1.67,11.86,4.97,14.78,3.37,2.98,8.41,4.48,15,4.48,3.05,0,6.05-.28,8.93-.85l-.93-9.05c-.27.05-.56.1-.84.15Z"/><path class="cls-1" d="M703.88,152.98c-2.78.48-6,.39-8.15-.22-1.45-.41-2.68-1.2-3.66-2.34-.92-1.06-1.62-2.49-2.08-4.24-.43-1.64-.64-3.76-.64-6.33v-23.42c0-.6.01-2.17.01-2.17l2.19-.03h11.93v-8.85h-11.93c-1.58-.04-2.2-1.73-2.2-2.94v-14.56l-22.23,26.36h7.44c.6,0,2.14-.01,2.14-.01l.05,2.21v27.04c0,6.89,1.68,11.86,4.98,14.78,3.37,2.98,8.41,4.48,15,4.48,3.06,0,6.05-.28,8.94-.85l-.93-9.05c-.27.05-.56.1-.84.15Z"/></g></svg>