<svg fill="none" xmlns="http://www.w3.org/2000/svg" viewBox="0 0 648 124">
  <path d="M638.923 94.519v-1.784h1.146c.645 0 1.504.05 1.504.81 0 .823-.501.974-1.217.974h-1.433Zm0 1.253h.788l1.719 3.116h1.934l-1.934-3.245c1.003-.071 1.863-.558 1.863-1.927 0-1.697-1.147-2.242-3.152-2.242h-2.866v7.414h1.648v-3.116Zm8.309-.58c0-4.355-3.366-6.884-7.163-6.884s-7.164 2.528-7.164 6.884c0 4.355 3.367 6.891 7.164 6.891 3.797 0 7.163-2.536 7.163-6.891Zm-2.005 0c0 3.173-2.364 5.301-5.158 5.301v-.022c-2.794.022-5.086-2.106-5.086-5.279s2.292-5.294 5.086-5.294c2.794 0 5.158 2.12 5.158 5.294ZM384.661 21.48l.007 78.168h22.078V21.479h-22.085Zm-173.665-.108v78.276h22.271V40.212l17.257.007c5.717 0 9.786 1.426 12.544 4.363 3.488 3.718 4.914 9.72 4.914 20.695v34.37h21.576V56.403c0-30.868-19.671-35.03-38.919-35.03h-39.643Zm209.21.115v78.16h35.804c19.076 0 25.301-3.173 32.042-10.286 4.757-4.993 7.83-15.953 7.83-27.938 0-10.982-2.601-20.788-7.142-26.892-8.181-10.917-19.965-13.044-37.551-13.044h-30.983ZM442.105 38.5h9.492c13.768 0 22.672 6.19 22.672 22.228 0 16.054-8.904 22.236-22.672 22.236h-9.492V38.5Zm-89.271-17.013L334.409 83.43l-17.658-61.943h-23.826l25.209 78.16h31.82l25.409-78.16h-22.529Zm153.32 78.16h22.078v-78.16h-22.078v78.16Zm61.886-78.139L537.215 99.62h21.77l4.879-13.804h36.447l4.657 13.804h23.639l-31.089-78.11H568.04Zm14.334 14.256 13.353 36.59h-27.15l13.797-36.59Z" fill="#fff"/>
  <path d="M69.612 36.84V25.686a81.773 81.773 0 0 1 3.289-.17c30.501-.958 50.508 26.208 50.508 26.208s-21.611 30.017-44.782 30.017c-3.335 0-6.326-.54-9.015-1.442V46.483c11.873 1.434 14.26 6.68 21.398 18.578l15.876-13.388s-11.588-15.2-31.122-15.2c-2.127 0-4.16.15-6.152.367Zm0-36.84v16.659c1.094-.09 2.191-.158 3.289-.196 42.416-1.43 70.046 34.78 70.046 34.78S111.208 89.84 78.142 89.84c-3.03 0-5.867-.28-8.53-.753v10.3c2.276.288 4.642.459 7.105.459 30.769 0 53.021-15.715 74.572-34.313 3.569 2.863 18.195 9.818 21.206 12.868-20.491 17.152-68.238 30.978-95.306 30.978-2.608 0-5.118-.158-7.577-.396v14.472h116.951V0H69.613Zm0 80.299v8.788C41.15 84.017 33.25 54.43 33.25 54.43s13.668-15.14 36.363-17.59v9.643c-.02 0-.03-.004-.046-.004-11.907-1.43-21.215 9.695-21.215 9.695S53.566 74.91 69.612 80.3Zm-50.55-27.15s16.867-24.89 50.55-27.463v-9.027C32.305 19.649 0 51.244 0 51.244s18.297 52.898 69.612 57.739v-9.597c-37.656-4.739-50.55-46.236-50.55-46.236Z" fill="#77B900"/>
</svg>
