<svg fill="none" xmlns="http://www.w3.org/2000/svg" viewBox="0 0 648 124">
  <path d="M638.923 94.562v-1.784h1.146c.645 0 1.504.05 1.504.81 0 .824-.501.974-1.217.974h-1.433Zm0 1.254h.788l1.719 3.116h1.934l-1.934-3.245c1.003-.072 1.863-.559 1.863-1.927 0-1.698-1.147-2.242-3.152-2.242h-2.866v7.414h1.648v-3.116Zm8.309-.58c0-4.356-3.366-6.885-7.163-6.885s-7.164 2.53-7.164 6.885 3.367 6.891 7.164 6.891c3.797 0 7.163-2.536 7.163-6.891Zm-2.005 0c0 3.173-2.364 5.301-5.158 5.301v-.022c-2.794.022-5.086-2.106-5.086-5.28 0-3.173 2.292-5.293 5.086-5.293 2.794 0 5.158 2.12 5.158 5.294ZM384.661 21.523l.007 78.168h22.078V21.523h-22.085Zm-173.665-.107V99.69h22.271V40.256l17.257.007c5.717 0 9.786 1.425 12.544 4.362 3.488 3.718 4.914 9.721 4.914 20.696v34.37h21.576V56.445c0-30.867-19.671-35.03-38.919-35.03h-39.643Zm209.21.114v78.161h35.804c19.076 0 25.301-3.173 32.042-10.287 4.757-4.992 7.83-15.953 7.83-27.937 0-10.982-2.601-20.789-7.142-26.892-8.181-10.917-19.965-13.045-37.551-13.045h-30.983Zm21.899 17.014h9.492c13.768 0 22.672 6.189 22.672 22.228 0 16.053-8.904 22.235-22.672 22.235h-9.492V38.543ZM352.834 21.53l-18.425 61.943-17.658-61.943h-23.826l25.209 78.161h31.82l25.409-78.16h-22.529Zm153.32 78.161h22.078v-78.16h-22.078v78.16Zm61.886-78.14-30.825 78.112h21.77l4.879-13.804h36.447l4.657 13.804h23.639l-31.089-78.111H568.04Zm14.334 14.256 13.353 36.591h-27.15l13.797-36.59Z" fill="#000"/>
  <path d="M69.612 36.883V25.73a81.587 81.587 0 0 1 3.289-.17c30.501-.957 50.508 26.209 50.508 26.209s-21.611 30.016-44.782 30.016c-3.335 0-6.326-.54-9.015-1.442V46.527c11.873 1.434 14.26 6.679 21.398 18.577l15.876-13.387s-11.588-15.2-31.122-15.2c-2.127 0-4.16.15-6.152.366Zm0-36.84v16.66c1.094-.09 2.191-.158 3.289-.196 42.416-1.43 70.046 34.78 70.046 34.78s-31.739 38.597-64.805 38.597c-3.03 0-5.867-.28-8.53-.753V99.43c2.276.29 4.642.46 7.105.46 30.769 0 53.021-15.715 74.572-34.314 3.569 2.863 18.195 9.819 21.206 12.869-20.491 17.152-68.238 30.977-95.306 30.977-2.608 0-5.118-.157-7.577-.395v14.472h116.951V.044H69.613Zm0 80.3v8.788C41.15 84.06 33.25 54.474 33.25 54.474s13.668-15.14 36.363-17.59v9.643c-.02 0-.03-.004-.046-.004-11.907-1.43-21.215 9.695-21.215 9.695s5.215 18.734 21.261 24.124Zm-50.55-27.15s16.867-24.89 50.55-27.464v-9.027C32.305 19.692 0 51.287 0 51.287s18.297 52.899 69.612 57.74V99.43c-37.656-4.74-50.55-46.237-50.55-46.237Z" fill="#77B900"/>
</svg>
