<svg fill="none" xmlns="http://www.w3.org/2000/svg" viewBox="0 0 352 45">
  <g clip-path="url(#a)" fill="#005050">
    <path d="M75.7 14.4c-.2-.3-.1-.5.2-.5h2.2c.2 0 .4 0 .5.1.2.1.2.2.3.4l5.6 11.5h.1l5.6-11.5c.1-.2.2-.3.3-.4.2-.1.4-.1.5-.1h2.2c.3 0 .4.2.2.5L85 31.3c-.1.2-.2.3-.4.3h-.2c-.2 0-.3-.1-.4-.3l-8.3-16.9ZM111.1 13.6c2.4.1 4.6 1 6.3 2.8 1.7 1.7 2.6 3.9 2.6 6.3s-.9 4.7-2.6 6.3c-1.7 1.7-3.9 2.7-6.3 2.8-5 0-8.9-3.9-8.9-9s3.9-9.2 8.9-9.2Zm0 15.4c3.6 0 6.1-3 6.1-6.5s-2.5-6.5-6.1-6.5c-3.6 0-6 3-6 6.5 0 3.6 2.4 6.5 6 6.5ZM141.7 28.8c.4 0 .5.1.5.5v1.5c0 .4-.1.5-.5.5h-10.2c-.4 0-.5-.1-.5-.5V14.4c0-.4.1-.5.5-.5h1.9c.4 0 .5.1.5.5v14.4h7.8ZM162.1 13.9c.4 0 .5.1.5.5V16c0 .4-.1.5-.5.5h-5v14.3c0 .4-.1.5-.5.5h-1.9c-.4 0-.5-.1-.5-.5V16.5h-5.1c-.4 0-.5-.1-.5-.5v-1.6c0-.4.1-.5.5-.5h13ZM175.6 30.8c0 .4-.1.5-.5.5h-1.9c-.4 0-.5-.1-.5-.5V14.4c0-.4.1-.5.5-.5h6.5c2.9 0 6.2 1.4 6.2 5.5 0 3.2-2 4.8-4.3 5.3l4.2 6c.3.4.1.7-.4.7h-2c-.2 0-.4-.1-.5-.1-.2-.1-.3-.2-.4-.4l-4.1-6h-2.8v5.9Zm3.9-8.6c2.7 0 3.5-1.3 3.5-2.9 0-1.6-.8-2.9-3.5-2.9h-3.9v5.7l3.9.1ZM204.8 13.6c2.4.1 4.6 1 6.3 2.8 1.7 1.7 2.6 3.9 2.6 6.3s-.9 4.7-2.6 6.3c-1.7 1.7-3.9 2.7-6.3 2.8-5 0-8.9-3.9-8.9-9-.1-5.3 3.8-9.2 8.9-9.2Zm0 15.4c3.6 0 6.1-3 6.1-6.5s-2.5-6.5-6.1-6.5c-3.6 0-6 3-6 6.5s2.4 6.5 6 6.5ZM227.5 20l-.1 10.9c0 .4-.1.5-.5.5h-1.8c-.4 0-.5-.1-.5-.5v-17c0-.2.1-.2.3-.2h.1c.1 0 .2 0 .2.1l.2.2 11.1 11.4h.1v-11c0-.4.1-.5.5-.5h1.8c.4 0 .5.1.5.5v16.9c0 .2-.1.3-.3.3h-.1c-.1 0-.2 0-.2-.1l-.2-.2L227.5 20ZM270.6 13.9c5 0 8.8 3.6 8.8 8.7s-3.8 8.7-8.8 8.7h-6.3c-.4 0-.5-.1-.5-.5V14.4c0-.4.1-.5.5-.5h6.3Zm-3.9 2.6v12.3h3.9c3.6 0 5.9-2.8 5.9-6.2 0-3.4-2.3-6.2-5.9-6.2l-3.9.1ZM305.9 30.8c.2.3.1.5-.2.5h-2.2c-.2 0-.4 0-.5-.1-.2-.1-.2-.2-.3-.4l-1.6-3.3h-8l-1.6 3.3c-.1.2-.2.3-.3.4-.2.1-.4.1-.5.1h-2.2c-.3 0-.4-.2-.2-.5l8.4-16.9c.1-.2.2-.3.4-.3h.2c.2 0 .3.1.4.3l8.2 16.9ZM297 19.1l-2.9 5.9h5.8l-2.9-5.9ZM326 13.9c.4 0 .5.1.5.5V16c0 .4-.1.5-.5.5h-5v14.3c0 .4-.1.5-.5.5h-1.9c-.4 0-.5-.1-.5-.5V16.5H313c-.4 0-.5-.1-.5-.5v-1.6c0-.4.1-.5.5-.5h13ZM350.9 30.8c.2.3.1.5-.2.5h-2.2c-.2 0-.4 0-.5-.1-.2-.1-.2-.2-.4-.4l-1.6-3.3h-8l-1.6 3.3c-.1.2-.2.3-.3.4-.2.1-.4.1-.5.1h-2.2c-.3 0-.4-.2-.2-.5l8.4-16.9c.1-.2.2-.3.4-.3h.2c.2 0 .3.1.4.3l8.3 16.9ZM342 19.1l-2.9 5.9h5.8l-2.9-5.9ZM26.1.6H.8l6.3 10.9 6.3 11 6.3 10.9L26 44.3l6.3-10.9 6.3-10.9-6.3-10.9-6.2-11Zm4.7 31.9-4.7 8.1-4.7-8.1-5.8-10 5.8-10 4.7-8.1 4.7 8.1 5.7 10-5.7 10ZM37.6.6l1.2 2h9.3l-4.7 8 1.1 2 6.9-12H37.6Z"/>
  </g>
  <defs>
    <clipPath id="a">
      <path fill="#fff" d="M0 0h351.7v45H0z"/>
    </clipPath>
  </defs>
</svg>
