<svg fill="none" xmlns="http://www.w3.org/2000/svg" viewBox="0 0 47 47">
  <path d="M31.907 4.49a1.959 1.959 0 0 1 2.77 0l7.833 7.834a1.958 1.958 0 0 1 0 2.769L17.05 40.55a1.958 1.958 0 0 1-1.384.574H7.833a1.958 1.958 0 0 1-1.958-1.958v-7.834c0-.52.207-1.017.574-1.384l19.583-19.584 5.875-5.875Zm-4.49 10.029L9.792 32.144v5.064h5.064L32.48 19.583l-5.064-5.064Zm7.833 2.295 3.106-3.106-5.064-5.064-3.106 3.106 5.064 5.064Z" fill="url(#a)"/>
  <defs>
    <linearGradient id="a" x1="24.479" y1="3.917" x2="24.479" y2="41.125" gradientUnits="userSpaceOnUse">
      <stop stop-color="#00897b"/>
      <stop offset="1" stop-color="#4db6ac"/>
    </linearGradient>
  </defs>
</svg>
