<svg fill="none" xmlns="http://www.w3.org/2000/svg" viewBox="0 0 47 47">
  <path d="M23.383 37.6c.822 0 1.518-.284 2.086-.853.569-.569.853-1.264.851-2.084 0-.823-.284-1.519-.85-2.087-.568-.569-1.263-.853-2.087-.851-.823 0-1.518.284-2.085.853s-.851 1.264-.853 2.084c0 .823.284 1.519.853 2.087.569.569 1.264.853 2.085.851Zm-2.116-9.048h4.348c0-1.292.147-2.31.442-3.055.294-.744 1.126-1.762 2.495-3.055 1.019-1.018 1.822-1.988 2.41-2.909.587-.921.88-2.027.88-3.318 0-2.193-.802-3.877-2.408-5.053C27.828 9.987 25.928 9.4 23.735 9.4c-2.232 0-4.044.588-5.436 1.762-1.39 1.175-2.36 2.585-2.906 4.23l3.877 1.528c.196-.705.637-1.469 1.323-2.291.686-.823 1.734-1.234 3.142-1.234 1.253 0 2.193.343 2.82 1.03.627.685.94 1.44.94 2.26 0 .783-.235 1.518-.705 2.204a9.385 9.385 0 0 1-1.762 1.909c-1.724 1.527-2.781 2.682-3.173 3.466-.392.783-.588 2.213-.588 4.288ZM23.5 47c-3.25 0-6.306-.617-9.165-1.852-2.86-1.234-5.346-2.908-7.461-5.022-2.115-2.115-3.79-4.602-5.022-7.461C.619 29.805.002 26.751 0 23.5c0-3.25.617-6.306 1.852-9.165 1.234-2.86 2.908-5.346 5.022-7.461 2.115-2.115 4.602-3.79 7.461-5.022C17.195.619 20.249.002 23.5 0c3.25 0 6.306.617 9.165 1.852 2.86 1.234 5.346 2.908 7.461 5.022 2.115 2.115 3.79 4.602 5.025 7.461C46.385 17.195 47 20.249 47 23.5c0 3.25-.617 6.306-1.852 9.165-1.234 2.86-2.908 5.346-5.022 7.461-2.115 2.115-4.602 3.79-7.461 5.025C29.805 46.385 26.751 47 23.5 47Zm0-4.7c5.248 0 9.694-1.821 13.336-5.464C40.48 33.194 42.3 28.748 42.3 23.5c0-5.248-1.821-9.694-5.464-13.336C33.194 6.52 28.748 4.7 23.5 4.7c-5.248 0-9.694 1.821-13.336 5.464C6.52 13.806 4.7 18.252 4.7 23.5c0 5.248 1.821 9.694 5.464 13.336C13.806 40.48 18.252 42.3 23.5 42.3Z" fill="url(#a)"/>
  <defs>
    <linearGradient id="a" x1="23.5" y1="0" x2="23.5" y2="47" gradientUnits="userSpaceOnUse">
      <stop stop-color="#00897b"/>
      <stop offset="1" stop-color="#4db6ac"/>
    </linearGradient>
  </defs>
</svg>
