<svg fill="none" xmlns="http://www.w3.org/2000/svg" viewBox="0 0 47 47">
  <path d="M4.406 9.547a6.61 6.61 0 0 1 12.675-2.624c.481 1.111.648 2.334.481 3.534a6.61 6.61 0 0 1-4.343 5.323v15.44a6.612 6.612 0 1 1-4.406 0V15.78a6.61 6.61 0 0 1-4.407-6.233Zm16.676-.52 7.039-7.038a.734.734 0 0 1 1.254.52v4.835h2.938a7.344 7.344 0 0 1 7.343 7.343V31.22a6.612 6.612 0 1 1-4.406 0V14.688a2.937 2.937 0 0 0-2.938-2.938h-2.937v4.835a.734.734 0 0 1-1.254.52l-7.039-7.038a.735.735 0 0 1 0-1.04ZM11.016 7.344a2.203 2.203 0 1 0 0 4.406 2.203 2.203 0 0 0 0-4.406Zm0 27.906a2.203 2.203 0 1 0 0 4.406 2.203 2.203 0 0 0 0-4.406Zm24.234 2.203a2.203 2.203 0 1 0 4.406 0 2.203 2.203 0 0 0-4.406 0Z" fill="url(#a)"/>
  <defs>
    <linearGradient id="a" x1="24.234" y1="1.773" x2="24.234" y2="44.067" gradientUnits="userSpaceOnUse">
      <stop stop-color="#00897b"/>
      <stop offset="1" stop-color="#4db6ac"/>
    </linearGradient>
  </defs>
</svg>
