<svg fill="none" xmlns="http://www.w3.org/2000/svg" viewBox="0 0 2780 2299">
  <path d="m2528.06 1578.33-929.61 539.84a329.227 329.227 0 0 1-149.14 35.71c-51.83 0-102.92-12.23-149.13-35.71l-681.094-393.24a106.962 106.962 0 0 1-42.809-35.13 106.989 106.989 0 0 1-19.521-51.81v144.99a107.012 107.012 0 0 0 62.33 87.21l680.284 392.97a329.804 329.804 0 0 0 149.28 35.71c51.87 0 103.01-12.23 149.27-35.71l929.61-540.37a104.433 104.433 0 0 0 42.22-34.51 104.418 104.418 0 0 0 19.04-51.1v-144.99a103.803 103.803 0 0 1-60.73 86.14Z" fill="#fff"/>
  <path d="M2526.98 1404.98c82.66 47.89 83.2 125.2 0 172.81l-928.54 540.38a329.315 329.315 0 0 1-149.13 35.71c-51.84 0-102.93-12.24-149.14-35.71l-681.093-393.24c-82.661-47.62-83.999-125.2-1.07-173.35l929.613-540.38a329 329 0 0 1 149.27-35.807c51.88 0 103.03 12.27 149.27 35.807l680.82 393.78Z" fill="#E8E8E8"/>
  <path d="m1429.12 1931.18-522.725-303.9-2.14-747.428 522.725 303.628 2.14 747.7Z" fill="#C7C7C7"/>
  <path d="M1426.98 1183.48 904.255 879.851 2198.48 132.687l522.73 303.627-1294.23 747.166Z" fill="#747474"/>
  <path d="M2721.21 436.315V685.37l-116.91 67.681c-237.28 136.699-428.02 468.679-428.02 741.549v4.81l-747.16 431.77-2.14-747.7 1294.23-747.165Z" fill="#fff"/>
  <path d="m2779 221.5-.53 172.547-378.8 381.474.53-172.546L2779 221.5Z" fill="#EEE"/>
  <path d="m2400.21 602.976-.54 172.546-895.9 520.848.53-172.81 895.91-520.584ZM1504.3 1123.56l-.54 172.81-662.094-382.278.268-172.813L1504.3 1123.56Z" fill="silver"/>
  <path d="m2779 221.501-378.8 381.474-895.9 520.585-662.367-382.28L1738.1 220.699 2395.65 0 2779 221.501ZM1140.47 945.124c-69.82-40.394-133.75-44.407-179.23-17.923L5.682 1478.81a14.458 14.458 0 0 0-5.618 12.84 43.39 43.39 0 0 0 5.88 18.88 43.466 43.466 0 0 0 13.648 14.3 14.23 14.23 0 0 0 10.968 1.87l1208.36 36.92h18.46c80.25-2.14 136.43-67.95 136.43-180.84.27-160.24-113.16-356.87-253.34-437.656Z" fill="#E1E1E1"/>
  <path d="M.07 1498.07a44.705 44.705 0 0 0 19.528 26.76 14.23 14.23 0 0 0 5.293 2.05c1.885.33 3.815.26 5.675-.18l1208.354 36.92h18.46c80.26-2.14 136.43-67.95 136.43-180.84a420.67 420.67 0 0 0-14.98-107.01L.07 1498.07ZM1510.18 2021.6a35.565 35.565 0 0 1 17.25 12.99 35.63 35.63 0 0 1 6.55 20.58c0 7.37-2.29 14.56-6.55 20.58a35.565 35.565 0 0 1-17.25 12.99 129.066 129.066 0 0 1-58.18 13.85c-20.21 0-40.14-4.74-58.18-13.85a35.565 35.565 0 0 1-17.25-12.99 35.63 35.63 0 0 1-6.55-20.58c0-7.37 2.29-14.56 6.55-20.58a35.565 35.565 0 0 1 17.25-12.99c18-9.23 37.95-14.04 58.18-14.04 20.23 0 40.18 4.81 58.18 14.04ZM755.788 1601.34a35.587 35.587 0 0 1 17.246 12.99 35.605 35.605 0 0 1 6.554 20.58c0 7.37-2.29 14.56-6.554 20.58a35.587 35.587 0 0 1-17.246 12.99 129.219 129.219 0 0 1-116.369 0 35.587 35.587 0 0 1-17.246-12.99 35.605 35.605 0 0 1-6.554-20.58c0-7.37 2.29-14.56 6.554-20.58a35.587 35.587 0 0 1 17.246-12.99 127.557 127.557 0 0 1 58.185-14.04c20.233 0 40.176 4.81 58.184 14.04ZM2494.36 1458.48a35.585 35.585 0 0 1 17.25 13 35.584 35.584 0 0 1 0 41.15 35.524 35.524 0 0 1-17.25 13 129.187 129.187 0 0 1-58.18 13.84c-20.21 0-40.14-4.74-58.19-13.84a35.544 35.544 0 0 1-17.24-13 35.514 35.514 0 0 1-6.56-20.57c0-7.38 2.29-14.57 6.56-20.58a35.604 35.604 0 0 1 17.24-13 129.26 129.26 0 0 1 58.19-13.84c20.21 0 40.14 4.74 58.18 13.84Z" fill="#fff"/>
</svg>
