<?xml version="1.0" encoding="utf-8"?>
<svg fill="none" xmlns="http://www.w3.org/2000/svg" viewBox="0 0 2779 2299">
  <path d="m2527.62 1578.06-929.45 539.75a329.223 329.223 0 0 1-149.11 35.7c-51.82 0-102.91-12.23-149.12-35.7l-680.967-393.18a107.006 107.006 0 0 1-62.32-86.93v144.97a106.986 106.986 0 0 0 62.32 87.19l680.167 392.91a329.81 329.81 0 0 0 149.25 35.71c51.86 0 103-12.24 149.25-35.71l929.44-540.28a104.41 104.41 0 0 0 42.22-34.5 104.272 104.272 0 0 0 19.03-51.09v-144.97c-1.5 18.47-7.93 36.2-18.61 51.34a103.775 103.775 0 0 1-42.1 34.79Z" fill="#1D1D1B"/>
  <path d="M2526.55 1404.74c82.64 47.88 83.18 125.17 0 172.78l-928.38 540.29a329.233 329.233 0 0 1-149.12 35.7c-51.82 0-102.91-12.23-149.11-35.7l-680.97-393.18c-82.648-47.61-83.985-125.18-1.07-173.32l929.45-540.28a328.947 328.947 0 0 1 298.49 0l680.71 393.71Z" fill="#878787"/>
  <path d="M1428.87 1930.85 906.238 1627l-2.14-747.299 522.632 303.579 2.14 747.57Z" fill="#5F5F5F"/>
  <path d="M1426.73 1183.28 904.098 879.7 2198.1 132.664l522.64 303.576-1294.01 747.04Z" fill="#747474"/>
  <path d="M2720.74 436.239v249.012l-116.89 67.67c-237.24 136.675-427.94 468.599-427.94 741.419v4.81l-747.04 431.7-2.14-747.57 1294.01-747.041Z" fill="#1D1D1B"/>
  <path d="m2778.52 221.463-.53 172.516-378.74 381.409.54-172.517 378.73-381.408ZM2399.78 602.872l-.54 172.516-895.74 520.762.53-172.79 895.75-520.488Z" fill="#3C3C3B"/>
  <path d="m1504.03 1123.36-.53 172.79-661.985-382.215.267-172.784 662.248 382.209Z" fill="#5F5F5F"/>
  <path d="m2778.51 221.463-378.73 381.408-895.75 520.489-662.249-382.208L1737.8 220.66 2395.23 0l383.28 221.463ZM1140.28 944.961c-69.81-40.387-133.74-44.399-179.206-17.92L5.681 1478.56a14.427 14.427 0 0 0-4.47 5.69 14.467 14.467 0 0 0-1.147 7.15 43.354 43.354 0 0 0 5.878 18.87 43.335 43.335 0 0 0 13.647 14.29 14.076 14.076 0 0 0 5.292 2.06c1.884.32 3.814.26 5.674-.18l1208.145 36.91h18.46c80.24-2.14 136.41-67.94 136.41-180.81.27-160.22-113.14-356.8-253.29-437.579Z" fill="#878787"/>
  <path d="M.07 1497.82a44.663 44.663 0 0 0 19.525 26.74 14.076 14.076 0 0 0 5.292 2.06c1.884.32 3.814.26 5.674-.18l1208.149 36.91h18.46c80.24-2.14 136.4-67.94 136.4-180.81-.37-36.16-5.41-72.12-14.97-106.99L.07 1497.82ZM1509.92 2021.25a35.61 35.61 0 0 1 17.25 12.99 35.63 35.63 0 0 1 6.55 20.58c0 7.37-2.29 14.56-6.55 20.57a35.61 35.61 0 0 1-17.25 12.99 129.145 129.145 0 0 1-58.17 13.84c-20.21 0-40.13-4.74-58.17-13.84a35.565 35.565 0 0 1-17.25-12.99 35.577 35.577 0 0 1-6.55-20.57c0-7.37 2.29-14.56 6.55-20.58a35.565 35.565 0 0 1 17.25-12.99c18-9.22 37.94-14.04 58.17-14.04 20.23 0 40.17 4.82 58.17 14.04ZM755.658 1601.06a35.584 35.584 0 0 1 17.243 12.99 35.611 35.611 0 0 1 6.553 20.58c0 7.37-2.29 14.56-6.553 20.57a35.584 35.584 0 0 1-17.243 12.99 129.18 129.18 0 0 1-116.349 0 35.584 35.584 0 0 1-17.243-12.99 35.558 35.558 0 0 1-6.553-20.57c0-7.37 2.29-14.56 6.553-20.58a35.584 35.584 0 0 1 17.243-12.99 127.52 127.52 0 0 1 58.175-14.04c20.229 0 40.169 4.81 58.174 14.04ZM2493.93 1458.23a35.57 35.57 0 0 1 23.8 33.57 35.577 35.577 0 0 1-23.8 33.57 129.145 129.145 0 0 1-58.17 13.84c-20.21 0-40.13-4.74-58.18-13.84a35.544 35.544 0 0 1-17.24-13 35.577 35.577 0 0 1 17.24-54.14c18.05-9.1 37.97-13.84 58.18-13.84s40.13 4.74 58.17 13.84Z" fill="#1D1D1B"/>
  <path d="M 1473.707 609.153 L 1473.707 422.084 L 1504.28 451.144 L 1437.383 451.144 L 1437.383 397.263 L 1545.145 397.263 L 1545.145 609.153 Z M 1667.119 613.996 Q 1638.968 613.996 1617.325 600.98 Q 1595.682 587.964 1583.422 563.143 Q 1571.163 538.321 1571.163 503.208 Q 1571.163 468.095 1583.422 443.273 Q 1595.682 418.452 1617.325 405.436 Q 1638.968 392.42 1667.119 392.42 Q 1695.27 392.42 1716.913 405.436 Q 1738.556 418.452 1750.815 443.273 Q 1763.075 468.095 1763.075 503.208 Q 1763.075 538.321 1750.815 563.143 Q 1738.556 587.964 1716.913 600.98 Q 1695.27 613.996 1667.119 613.996 Z M 1667.119 556.786 Q 1674.081 556.786 1679.529 551.943 Q 1684.978 547.1 1688.156 535.294 Q 1691.335 523.489 1691.335 503.208 Q 1691.335 482.624 1688.156 470.971 Q 1684.978 459.317 1679.529 454.473 Q 1674.081 449.63 1667.119 449.63 Q 1660.157 449.63 1654.708 454.473 Q 1649.259 459.317 1646.081 470.971 Q 1642.903 482.624 1642.903 503.208 Q 1642.903 523.489 1646.081 535.294 Q 1649.259 547.1 1654.708 551.943 Q 1660.157 556.786 1667.119 556.786 Z M 1934.381 609.153 L 1934.381 516.224 L 1950.726 558.905 L 1854.468 397.263 L 1929.84 397.263 L 1994.921 507.749 L 1951.029 507.749 L 2016.715 397.263 L 2085.731 397.263 L 1990.077 558.905 L 2005.818 516.224 L 2005.818 609.153 Z M 2160.185 475.965 L 2254.628 475.965 L 2254.628 527.424 L 2160.185 527.424 Z M 2165.029 555.272 L 2270.974 555.272 L 2270.974 609.153 L 2094.802 609.153 L 2094.802 397.263 L 2267.039 397.263 L 2267.039 451.144 L 2165.029 451.144 Z M 2275.497 609.153 L 2368.123 397.263 L 2438.35 397.263 L 2530.976 609.153 L 2457.117 609.153 L 2388.707 431.165 L 2416.555 431.165 L 2348.145 609.153 Z M 2330.589 572.224 L 2348.751 520.765 L 2446.22 520.765 L 2464.382 572.224 Z M 2542.479 609.153 L 2542.479 397.263 L 2644.489 397.263 Q 2674.154 397.263 2695.797 406.949 Q 2717.44 416.636 2729.245 434.647 Q 2741.05 452.657 2741.05 477.176 Q 2741.05 501.695 2729.245 519.403 Q 2717.44 537.11 2695.797 546.494 Q 2674.154 555.878 2644.489 555.878 L 2582.133 555.878 L 2613.916 526.516 L 2613.916 609.153 Z M 2669.311 609.153 L 2617.246 531.965 L 2692.921 531.965 L 2745.591 609.153 Z M 2613.916 534.386 L 2582.133 501.997 L 2639.949 501.997 Q 2654.781 501.997 2661.894 495.338 Q 2669.008 488.678 2669.008 477.176 Q 2669.008 465.673 2661.894 459.014 Q 2654.781 452.354 2639.949 452.354 L 2582.133 452.354 L 2613.916 419.966 Z M 2846.979 613.996 Q 2820.341 613.996 2795.52 607.942 Q 2770.699 601.888 2754.656 592.202 L 2777.661 540.137 Q 2792.796 548.916 2811.412 554.213 Q 2830.028 559.51 2847.584 559.51 Q 2857.876 559.51 2863.779 558.148 Q 2869.682 556.786 2872.406 554.213 Q 2875.13 551.64 2875.13 548.008 Q 2875.13 542.256 2868.773 538.927 Q 2862.417 535.597 2851.974 533.327 Q 2841.53 531.056 2829.12 528.484 Q 2816.709 525.911 2804.147 521.673 Q 2791.585 517.435 2781.142 510.473 Q 2770.699 503.511 2764.342 492.16 Q 2757.985 480.808 2757.985 463.857 Q 2757.985 444.182 2769.034 427.987 Q 2780.082 411.793 2802.028 402.106 Q 2823.974 392.42 2856.665 392.42 Q 2878.157 392.42 2899.043 396.96 Q 2919.93 401.501 2936.578 410.885 L 2915.087 462.646 Q 2899.346 454.776 2884.665 450.841 Q 2869.984 446.906 2856.06 446.906 Q 2845.768 446.906 2839.714 448.722 Q 2833.66 450.538 2831.087 453.565 Q 2828.514 456.592 2828.514 460.225 Q 2828.514 465.673 2834.871 468.852 Q 2841.228 472.03 2851.671 474.149 Q 2862.114 476.268 2874.676 478.689 Q 2887.238 481.111 2899.649 485.349 Q 2912.06 489.587 2922.503 496.549 Q 2932.946 503.511 2939.303 514.711 Q 2945.659 525.911 2945.659 542.559 Q 2945.659 561.932 2934.611 578.126 Q 2923.562 594.321 2901.768 604.159 Q 2879.973 613.996 2846.979 613.996 Z" transform="matrix(0.857929, -0.499226, 1.027437, 0.567736, -516.175042, 1335.470562)" style="fill: rgb(51, 51, 51); text-wrap-mode: nowrap;"/>
</svg>