<svg width="582" height="283" viewBox="0 0 582 283" fill="none" xmlns="http://www.w3.org/2000/svg">
<path fill-rule="evenodd" clip-rule="evenodd" d="M7.49127 29.6106C13.4636 48.3663 146.191 127.321 214.929 126.459C252.38 125.989 271.131 150.924 271.007 192.986L208.432 241.462L208.603 278L489.538 277.966L489.463 244.503L427.103 193.038C428.828 95.7581 492.507 53.3974 576.965 47.4965L577.039 5.0651L214.758 5L214.854 14.1549H180.534L180.412 29.6004L7.49127 29.6106Z" fill="black" stroke="white" stroke-width="9.84551"/>
<path fill-rule="evenodd" clip-rule="evenodd" d="M209.35 241.128L292.846 241.761L292.995 277.985" fill="black"/>
<path d="M209.35 241.128L292.846 241.761L292.995 277.985" stroke="white" stroke-width="9.84551"/>
<path fill-rule="evenodd" clip-rule="evenodd" d="M489.435 244.471L405.363 244.544L405.31 277.964" fill="black"/>
<path d="M489.435 244.471L405.363 244.544L405.31 277.964" stroke="white" stroke-width="9.84551"/>
<path fill-rule="evenodd" clip-rule="evenodd" d="M291.35 244.315C327.781 205.393 371.387 212.486 405.211 244.71Z" fill="black"/>
<path d="M291.35 244.315C327.781 205.393 371.387 212.486 405.211 244.71" stroke="white" stroke-width="9.84551"/>
<path fill-rule="evenodd" clip-rule="evenodd" d="M180.626 17.3816V84.0019Z" fill="black"/>
<path d="M180.626 17.3816V84.0019" stroke="white" stroke-width="9.84551"/>
<path fill-rule="evenodd" clip-rule="evenodd" d="M214.73 17.3816L214.922 126.26Z" fill="black"/>
<path d="M214.73 17.3816L214.922 126.26" stroke="white" stroke-width="9.84551"/>
<path fill-rule="evenodd" clip-rule="evenodd" d="M430.313 168.719L389.718 168.793Z" fill="black"/>
<path d="M430.313 168.719L389.718 168.793" stroke="white" stroke-width="9.84551"/>
<path fill-rule="evenodd" clip-rule="evenodd" d="M427.129 193.208L401.954 193.135Z" fill="black"/>
<path d="M427.129 193.208L401.954 193.135" stroke="white" stroke-width="9.84551"/>
</svg>
